<svg width="42" height="42" viewBox="0 0 42 42" fill="none" xmlns="http://www.w3.org/2000/svg">
<g clip-path="url(#clip0_7422_20862)">
<rect width="42" height="42" fill="#DEDAF9"/>
<path d="M17.7341 18.7438C17.7341 19.0338 17.4987 19.2692 17.2086 19.2692C17.17 19.2692 17.1319 19.2644 17.0953 19.2565C16.9405 19.2224 16.812 19.1203 16.7412 18.9826C16.7046 18.9108 16.6836 18.8297 16.6836 18.7438C16.6836 18.4537 16.919 18.2188 17.2086 18.2188C17.4982 18.2188 17.7341 18.4537 17.7341 18.7438Z" fill="#FFAC00"/>
<path d="M24.6695 29.3457L24.6079 30.0294L24.4277 29.8692C24.5264 29.6959 24.6055 29.5191 24.6695 29.3457Z" fill="#DD920B"/>
<path d="M29.0219 10.5412C29.0219 10.2076 28.8436 9.95706 28.699 9.80811C28.5999 9.70653 28.5164 9.65232 28.5164 9.65232C28.5164 9.65232 28.6116 9.20008 28.6116 8.55397C28.6116 7.63827 28.4202 6.33383 27.4933 5.37808C27.4478 5.3312 27.4005 5.28529 27.3511 5.23987C26.2308 4.21039 24.9913 3.78794 24.0361 4.29927H24.0356C23.6434 4.50927 23.2991 4.87653 23.0305 5.42399H23.03C23.0251 5.41667 22.968 5.33853 22.8703 5.23694C22.8659 5.23255 22.861 5.22767 22.8562 5.22278C22.8513 5.21741 22.8464 5.21253 22.8415 5.20764C22.4777 4.84332 21.6445 4.25776 20.8426 5.46062H20.8421C20.8421 5.46062 20.8411 5.45915 20.8406 5.45818C20.8397 5.45769 20.8392 5.45671 20.8377 5.45525C20.8367 5.45427 20.8358 5.45281 20.8343 5.45134C20.8328 5.44987 20.8314 5.44841 20.8294 5.44646C20.828 5.4445 20.826 5.44255 20.824 5.4406C20.7034 5.31557 19.9948 4.64797 18.6181 4.61476C16.7246 4.56885 15.8944 5.56513 15.8944 6.63564C15.8944 7.24025 16.1591 7.86829 16.646 8.34592C16.6621 8.36155 16.6787 8.37767 16.6953 8.39281C16.7115 8.40843 16.7281 8.42357 16.7452 8.43871C16.6949 8.42748 15.0788 8.06071 14.3526 8.84211C14.1329 9.07848 13.8906 9.6069 13.8906 10.1412C13.8906 10.4791 13.9873 10.8195 14.2481 11.0896C14.4049 11.2517 14.6203 11.3885 14.9089 11.4847C14.6061 11.5863 14.3751 11.7914 14.3751 12.1801C14.3751 12.2348 14.3795 12.2929 14.3893 12.355C14.4205 12.5586 14.4972 12.7081 14.6036 12.815C15.1653 13.3791 16.5586 12.7686 16.5586 12.7686C16.6245 13.7776 16.6983 14.9678 16.7051 15.0845C16.8257 15.0581 16.9508 15.0439 17.0782 15.0439C17.4894 15.0439 17.8694 15.2398 18.1761 15.4923C18.3509 15.5348 18.5228 15.589 18.6928 15.6632C18.7704 15.6969 18.8491 15.735 18.9072 15.797C18.9336 15.8249 18.9858 15.8669 18.9858 15.8073V15.8004L18.9301 14.7885C18.9282 14.7534 18.9272 14.7182 18.9272 14.683C18.9272 14.3192 19.0307 13.9612 19.2261 13.6526L19.3965 13.384C19.4713 13.2663 19.5089 13.132 19.5089 12.9977C19.5089 12.8746 19.4771 12.751 19.4136 12.6402L19.1958 12.2583C19.1304 12.144 19.1001 12.0209 19.1001 11.9008C19.1001 11.5907 19.3013 11.2962 19.6275 11.2049C21.5058 10.6803 25.8894 9.71483 27.8258 11.4725L28.5286 13.3639L28.5301 13.3674C28.5301 13.3674 28.7611 12.7335 28.7611 12.039C28.7611 11.8168 28.7371 11.5877 28.6746 11.3714C28.9315 11.0574 29.0219 10.7785 29.0219 10.5412ZM29.0219 10.5412C29.0219 10.2076 28.8436 9.95706 28.699 9.80811C28.5999 9.70653 28.5164 9.65232 28.5164 9.65232C28.5164 9.65232 28.6116 9.20008 28.6116 8.55397C28.6116 7.63827 28.4202 6.33383 27.4933 5.37808C27.4478 5.3312 27.4005 5.28529 27.3511 5.23987C26.2308 4.21039 24.9913 3.78794 24.0361 4.29927H24.0356C23.6434 4.50927 23.2991 4.87653 23.0305 5.42399H23.03C23.0251 5.41667 22.968 5.33853 22.8703 5.23694C22.8659 5.23255 22.861 5.22767 22.8562 5.22278C22.8513 5.21741 22.8464 5.21253 22.8415 5.20764C22.4777 4.84332 21.6445 4.25776 20.8426 5.46062H20.8421C20.8421 5.46062 20.8411 5.45915 20.8406 5.45818C20.8397 5.45769 20.8392 5.45671 20.8377 5.45525C20.8367 5.45427 20.8358 5.45281 20.8343 5.45134C20.8328 5.44987 20.8314 5.44841 20.8294 5.44646C20.828 5.4445 20.826 5.44255 20.824 5.4406C20.7034 5.31557 19.9948 4.64797 18.6181 4.61476C16.7246 4.56885 15.8944 5.56513 15.8944 6.63564C15.8944 7.24025 16.1591 7.86829 16.646 8.34592C16.6621 8.36155 16.6787 8.37767 16.6953 8.39281C16.7115 8.40843 16.7281 8.42357 16.7452 8.43871C16.6949 8.42748 15.0788 8.06071 14.3526 8.84211C14.1329 9.07848 13.8906 9.6069 13.8906 10.1412C13.8906 10.4791 13.9873 10.8195 14.2481 11.0896C14.4049 11.2517 14.6203 11.3885 14.9089 11.4847C14.6061 11.5863 14.3751 11.7914 14.3751 12.1801C14.3751 12.2348 14.3795 12.2929 14.3893 12.355C14.4205 12.5586 14.4972 12.7081 14.6036 12.815C15.1653 13.3791 16.5586 12.7686 16.5586 12.7686C16.6245 13.7776 16.6983 14.9678 16.7051 15.0845C16.8257 15.0581 16.9508 15.0439 17.0782 15.0439C17.4894 15.0439 17.8694 15.2398 18.1761 15.4923C18.3509 15.5348 18.5228 15.589 18.6928 15.6632C18.7704 15.6969 18.8491 15.735 18.9072 15.797C18.9336 15.8249 18.9858 15.8669 18.9858 15.8073V15.8004L18.9301 14.7885C18.9282 14.7534 18.9272 14.7182 18.9272 14.683C18.9272 14.3192 19.0307 13.9612 19.2261 13.6526L19.3965 13.384C19.4713 13.2663 19.5089 13.132 19.5089 12.9977C19.5089 12.8746 19.4771 12.751 19.4136 12.6402L19.1958 12.2583C19.1304 12.144 19.1001 12.0209 19.1001 11.9008C19.1001 11.5907 19.3013 11.2962 19.6275 11.2049C21.5058 10.6803 25.8894 9.71483 27.8258 11.4725L28.5286 13.3639L28.5301 13.3674C28.5301 13.3674 28.7611 12.7335 28.7611 12.039C28.7611 11.8168 28.7371 11.5877 28.6746 11.3714C28.9315 11.0574 29.0219 10.7785 29.0219 10.5412Z" fill="#541B0A"/>
<path d="M19.8581 37.2118C19.735 37.6044 19.6056 38.0093 19.336 38.3204C19.2564 38.4127 19.166 38.4927 19.0698 38.5665L19.0454 36.8772L19.0254 35.4648C19.0527 35.4697 19.0801 35.4741 19.1074 35.479C19.1831 35.4937 19.2598 35.5088 19.335 35.5288C19.4825 35.5679 19.6241 35.6241 19.7389 35.7227C20.1399 36.068 20.0163 36.7068 19.8581 37.2118Z" fill="#009F62"/>
<path d="M22.6729 38.2695L22.6129 42.4554C22.44 42.2483 22.2788 42.029 22.0796 41.8483C21.7431 41.5431 21.3045 41.3521 21.0183 40.9995C20.5129 40.3783 20.6633 39.383 21.2322 38.8194C21.7025 38.354 22.1699 38.2705 22.6729 38.2695Z" fill="#009F62"/>
<path d="M8.21132 48.263H-1.68945L-1.68506 40.0066L3.43015 32.4984L4.60371 30.7754L5.03738 31.441L6.7462 34.0651C7.40501 35.0413 7.77618 36.1826 7.81866 37.3596L8.21132 48.263Z" fill="#FF6060"/>
<path d="M19.0706 38.5659L19.0261 35.4643L19.0095 34.3044C19.0002 34.1164 18.8611 33.9606 18.6755 33.9303L18.4889 33.8995L17.4228 33.7252L16.7996 33.6231C16.596 33.5899 16.3987 33.5347 16.2116 33.459C15.3575 33.1176 14.7118 32.369 14.5155 31.443L14.2987 29.869L14.0486 28.0566L7.12596 29.0363C6.16826 29.1882 5.31605 29.7283 4.77005 30.5298L4.60352 30.7744L5.03719 31.4401L6.746 34.0641C7.40482 35.0404 7.77598 36.1817 7.81847 37.3587L8.21112 48.2621H19.2093L19.0706 38.5659ZM14.3426 35.4608C14.2572 36.7028 13.1808 37.64 11.9394 37.5545C10.6974 37.469 9.76024 36.3932 9.8457 35.1512C9.93117 33.9093 11.0071 32.9721 12.249 33.0576C13.4909 33.143 14.4281 34.2194 14.3426 35.4608Z" fill="#735FFF"/>
<path d="M26.519 27.4293L26.1151 31.9189C26.0721 32.3965 25.9139 32.8566 25.655 33.26L25.5261 33.4602C25.3386 33.5359 25.1418 33.5911 24.9381 33.6243L24.3145 33.7263L24.8268 32.9303C25.0861 32.5274 25.2443 32.0673 25.2873 31.5902L25.7005 26.9941L26.519 27.4293Z" fill="white"/>
<path d="M24.6085 30.0293L24.5743 30.4059L24.2637 30.129C24.3237 30.0435 24.3789 29.9566 24.4283 29.8691L24.6085 30.0293Z" fill="#FFAC00"/>
<path d="M24.5736 30.4058L24.4711 31.5467C24.4398 31.8949 24.3245 32.2309 24.1351 32.5244L24.1067 32.5678C23.801 32.73 23.4582 32.8692 23.0724 32.9776L22.5879 31.32C23.3878 31.0666 23.9158 30.6222 24.263 30.1289L24.5736 30.4058Z" fill="#DD920B"/>
<path d="M24.1067 32.5674L23.2496 33.8992L23.063 33.93C22.8774 33.9602 22.7383 34.116 22.729 34.3041L22.6723 38.2687C22.1693 38.2696 21.7019 38.3531 21.2316 38.8186C20.6627 39.3821 20.5123 40.3774 21.0177 40.9987C21.3039 41.3513 21.7425 41.5422 22.079 41.8474C22.2782 42.0281 22.4394 42.2474 22.6123 42.4545L22.5292 48.2617H19.2093L19.0706 38.5656C19.1668 38.4918 19.2571 38.4117 19.3368 38.3194C19.6063 38.0084 19.7358 37.6035 19.8588 37.2108C20.0171 36.7059 20.1406 36.0671 19.7397 35.7218C19.6249 35.6231 19.4833 35.567 19.3358 35.5279C19.2606 35.5079 19.1839 35.4927 19.1082 35.4781C19.0808 35.4732 19.0535 35.4688 19.0261 35.4639L19.0095 34.3041C19.0003 34.116 18.8611 33.9602 18.6755 33.93L18.4889 33.8992L17.6035 32.5239C17.5938 32.5093 17.5855 32.4937 17.5762 32.4785C17.9117 32.6656 18.2941 32.8257 18.7307 32.9503C18.9602 33.0162 19.2049 33.0719 19.4657 33.1163C19.5638 33.1334 19.6649 33.1486 19.768 33.1618C20.1445 33.2111 20.5523 33.2374 20.9933 33.2374C21.6658 33.2374 22.2572 33.171 22.7778 33.0519C22.8789 33.0289 22.9766 33.004 23.0723 32.9771C23.4581 32.8687 23.801 32.7295 24.1067 32.5674Z" fill="#FFAC00"/>
<path d="M17.7848 30.323L17.2056 30.8495L17.0449 29.0605C17.1914 29.4737 17.4219 29.922 17.7848 30.323Z" fill="#DD920B"/>
<path d="M17.9977 30.5401L17.2393 31.2297L17.2051 30.8507L17.7843 30.3242C17.8507 30.398 17.9215 30.4702 17.9977 30.5401Z" fill="#FFAC00"/>
<path d="M19.9331 31.4538L19.4653 33.1167C18.7097 32.9882 18.088 32.7641 17.5757 32.4789C17.4029 32.1961 17.2964 31.8772 17.2671 31.5466L17.2383 31.2286L17.9967 30.5391C18.4504 30.9571 19.0746 31.299 19.9331 31.4538Z" fill="#DD920B"/>
<g style="mix-blend-mode:multiply" opacity="0.6">
<path d="M19.3637 35.404L19.3368 35.5295L19.0472 36.8779L19.0272 35.4655L19.0106 34.3056C19.0013 34.1176 18.8621 33.9618 18.6765 33.9315L18.49 33.9008L17.4239 33.7264L16.8007 33.6243C16.597 33.5911 16.3997 33.5359 16.2127 33.4602C15.9817 33.3679 15.7658 33.2458 15.57 33.0984L14.6367 30.573L15.4709 30.2214L16.2972 29.8731L17.0879 29.5396L17.6314 29.3105C17.6314 29.3105 17.9323 31.3446 18.7317 32.9518C18.827 33.1433 18.9295 33.3284 19.0394 33.5037C19.393 34.0688 19.5038 34.7525 19.3637 35.404Z" fill="#AF750E"/>
</g>
<path d="M20.237 31.5005L19.7691 33.1634C19.6661 33.1502 19.565 33.1351 19.4668 33.118L19.9347 31.4551C20.0323 31.4727 20.1329 31.4878 20.237 31.5005Z" fill="#FFAC00"/>
<path d="M22.7774 33.0535C22.2568 33.1727 21.6654 33.2391 20.9929 33.2391C20.5519 33.2391 20.1441 33.2127 19.7676 33.1634L20.2354 31.5005C20.4713 31.5293 20.7233 31.5445 20.9929 31.5445C21.4862 31.5445 21.9179 31.4932 22.2954 31.4023L22.7774 33.0535Z" fill="#DD920B"/>
<path d="M16.2109 33.4586C15.9799 33.3663 15.764 33.2442 15.5682 33.0968C15.0402 32.6992 14.6578 32.1181 14.5147 31.4426L14.0479 28.0563L14.0469 28.0494L15.218 27.4277L15.469 30.2198L15.6219 31.9173C15.6649 32.395 15.8231 32.855 16.0819 33.2584L16.2109 33.4586Z" fill="#735FFF"/>
<path d="M17.4228 33.7263L16.7996 33.6243C16.596 33.5911 16.3987 33.5359 16.2116 33.4602L16.0827 33.26C15.8238 32.8566 15.6656 32.3965 15.6226 31.9189L15.4698 30.2213L15.2188 27.4293L16.0373 26.9941L16.2961 29.8731L16.4504 31.5902C16.4934 32.0673 16.6511 32.5274 16.911 32.9303L17.4228 33.7263Z" fill="white"/>
<path d="M18.4887 33.9003L17.4226 33.7259L16.9108 32.9299C16.651 32.527 16.4932 32.0669 16.4503 31.5898L16.2959 29.8727L16.0371 26.9937L16.82 26.5781L16.8253 26.6387L17.0436 29.0615L17.0866 29.5391L17.2043 30.8504L17.2385 31.2294L17.2673 31.5473C17.2966 31.8779 17.4031 32.1968 17.576 32.4796C17.5852 32.4948 17.5936 32.5104 17.6033 32.525L18.4887 33.9003Z" fill="#735FFF"/>
<path d="M37.1961 30.7788L36.8581 31.2975L35.056 34.0646C34.3972 35.0409 34.0261 36.1822 33.9836 37.3592L33.5909 48.2625H22.5293L22.6123 42.4553L22.6724 38.2695L22.729 34.3049C22.7383 34.1168 22.8775 33.9611 23.0631 33.9308L23.2496 33.9L24.3153 33.7257L24.9389 33.6236C25.1426 33.5904 25.3394 33.5352 25.5269 33.4595C26.3811 33.1181 27.0267 32.3695 27.223 31.4435L27.5542 29.0378L27.6894 28.0566L34.6614 29.0505C35.5688 29.1941 36.3839 29.6873 36.9324 30.4243L37.1961 30.7788Z" fill="#735FFF"/>
<path d="M46.0262 42.6453V48.263H33.5918L33.9844 37.3596C34.0269 36.1826 34.3981 35.0413 35.0569 34.0651L36.859 31.298L37.197 30.7793L38.5097 32.5433L46.0262 42.6453Z" fill="#FF6060"/>
<path d="M25.7016 26.9937L25.2885 31.5898C25.2455 32.0669 25.0873 32.527 24.8279 32.9299L24.3156 33.7259L23.25 33.9003L24.1071 32.5685L24.1354 32.525C24.3249 32.2315 24.4402 31.8955 24.4714 31.5473L24.574 30.4065L24.6082 30.0299L24.6697 29.3462L24.9144 26.6235L24.9188 26.5781L25.7016 26.9937Z" fill="#735FFF"/>
<path d="M23.0734 32.9778C22.9777 33.0047 22.88 33.0296 22.7789 33.0526L22.2969 31.4014C22.398 31.3775 22.4956 31.3501 22.5889 31.3203L23.0734 32.9778Z" fill="#FFAC00"/>
<path d="M27.6908 28.0494L27.6899 28.0558L27.2235 31.4426C27.0271 32.3686 26.3815 33.1173 25.5273 33.4586L25.6563 33.2584C25.9151 32.855 26.0733 32.395 26.1163 31.9173L26.5202 27.4277L27.6908 28.0494Z" fill="#735FFF"/>
<path d="M12.2485 33.0581C11.0066 32.9727 9.93072 33.9099 9.84525 35.1518C9.75979 36.3937 10.697 37.4696 11.9389 37.5551C13.1803 37.6405 14.2567 36.7034 14.3422 35.4614C14.4277 34.22 13.4905 33.1436 12.2485 33.0581ZM10.5114 35.2915C10.4601 35.2876 10.421 35.2431 10.425 35.1918C10.4284 35.1401 10.4728 35.1015 10.5246 35.1049C10.5759 35.1083 10.6149 35.1528 10.611 35.2045C10.6076 35.2558 10.5632 35.2949 10.5114 35.2915ZM12.2705 36.7527C12.2598 36.9046 12.1284 37.0193 11.9765 37.0091C11.8246 36.9983 11.7099 36.867 11.7206 36.7151C11.7309 36.5632 11.8627 36.4484 12.0141 36.4592C12.166 36.4694 12.2808 36.6013 12.2705 36.7527ZM13.6629 35.5083C13.6116 35.5049 13.5725 35.4604 13.5764 35.4087C13.5798 35.3574 13.6243 35.3183 13.676 35.3217C13.7273 35.3257 13.7664 35.3701 13.7625 35.4219C13.7591 35.4731 13.7146 35.5122 13.6629 35.5083Z" fill="#DAD7FF"/>
<path d="M10.6121 35.2053C10.6087 35.2566 10.5643 35.2957 10.5125 35.2922C10.4612 35.2883 10.4221 35.2439 10.4261 35.1926C10.4295 35.1408 10.4739 35.1023 10.5257 35.1057C10.577 35.1091 10.616 35.1535 10.6121 35.2053Z" fill="white"/>
<path d="M12.4102 35.4238C12.4131 35.4307 12.416 35.437 12.4189 35.4439H12.4185C12.4155 35.4375 12.4126 35.4307 12.4102 35.4238Z" fill="#FFAC00"/>
<path d="M13.3913 34.597L12.6368 35.2543C12.5811 35.0634 12.4825 34.8978 12.3262 34.7645L13.0148 34.1648C13.089 34.1003 13.2013 34.1081 13.2663 34.1823L13.4084 34.3454C13.4734 34.4197 13.4655 34.5325 13.3913 34.597Z" fill="#FFAC00"/>
<path d="M12.0739 35.6456C11.9704 35.6802 11.8742 35.734 11.7916 35.8057L11.0542 36.4484C10.9931 36.5017 10.9003 36.4953 10.8466 36.4338C10.7934 36.3727 10.7997 36.28 10.8613 36.2267L11.6021 35.5811C11.6622 35.5288 11.714 35.4678 11.7565 35.4004L11.7823 35.4302C11.8551 35.5142 11.9445 35.5821 12.0446 35.6304L12.0612 35.6387C12.0656 35.6407 12.0695 35.6436 12.0739 35.6456Z" fill="#FFAC00"/>
<path d="M13.1754 36.5934C13.1139 36.6466 13.0211 36.6403 12.9679 36.5792L12.3222 35.8379C12.2524 35.7578 12.1674 35.6923 12.0727 35.6445C12.0683 35.6425 12.0644 35.6396 12.06 35.6376L12.0434 35.6293C11.9433 35.581 11.8539 35.5131 11.7811 35.4291L11.7552 35.3993L10.9069 34.426C10.8425 34.3517 10.8503 34.2389 10.9245 34.1745L11.0876 34.0323C11.1619 33.9674 11.2747 33.9752 11.3391 34.0494L12.1186 34.9441L12.2168 35.0565C12.2915 35.1424 12.3481 35.2435 12.3818 35.3524C12.3916 35.3837 12.4038 35.4144 12.417 35.4442C12.4502 35.518 12.4937 35.5873 12.5474 35.6484L13.1896 36.3863C13.2428 36.4473 13.2365 36.5401 13.1754 36.5934Z" fill="#FFAC00"/>
<path d="M12.2713 36.7532C12.2606 36.9051 12.1292 37.0198 11.9773 37.0096C11.8254 36.9988 11.7107 36.8675 11.7214 36.7156C11.7317 36.5637 11.8635 36.4489 12.0149 36.4597C12.1668 36.4699 12.2816 36.6018 12.2713 36.7532Z" fill="#A39CFF"/>
<path d="M13.7625 35.4226C13.7591 35.4739 13.7147 35.5129 13.6629 35.509C13.6116 35.5056 13.5725 35.4612 13.5764 35.4094C13.5799 35.3581 13.6243 35.3191 13.6761 35.3225C13.7273 35.3264 13.7664 35.3708 13.7625 35.4226Z" fill="white"/>
<path d="M26.9734 22.6374C26.7214 22.7917 26.4411 22.9133 26.1285 22.9953C25.9517 23.0422 25.7651 23.0764 25.5678 23.0974C25.3437 23.1208 25.1254 23.1355 24.9139 23.1414V26.6239L24.6692 29.3466C24.6053 29.52 24.5261 29.6968 24.4275 29.8701C24.3782 29.9576 24.323 30.0445 24.2629 30.13C23.9157 30.6232 23.3877 31.0676 22.5878 31.3211C22.4945 31.3509 22.3968 31.3782 22.2957 31.4022C21.9182 31.493 21.4865 31.5443 20.9933 31.5443C20.7237 31.5443 20.4717 31.5291 20.2358 31.5003C20.1318 31.4876 20.0312 31.4725 19.9335 31.4549C19.0749 31.3001 18.4508 30.9582 17.9971 30.5402C17.9209 30.4704 17.8501 30.3981 17.7837 30.3243C17.4208 29.9234 17.1903 29.4751 17.0438 29.0619L16.8255 26.6391L17.0961 19.2573C17.1327 19.2652 17.1708 19.27 17.2094 19.27C17.4994 19.27 17.7348 19.0346 17.7348 18.7445C17.7348 18.4545 17.4994 18.2195 17.2094 18.2195C16.9193 18.2195 16.6844 18.4545 16.6844 18.7445C16.6844 18.8305 16.7054 18.9116 16.742 18.9834C15.881 18.8139 15.2285 18.0042 15.2285 17.0304C15.2285 16.9581 15.2319 16.8868 15.2393 16.8169C15.2583 16.6279 15.3018 16.4468 15.3662 16.2778C15.4839 15.9691 15.672 15.7 15.9083 15.4925C16.112 15.3137 16.3513 15.1809 16.6135 15.1081C16.6228 15.1057 16.6316 15.1032 16.6409 15.1008C16.6619 15.0949 16.6829 15.0901 16.7044 15.0852C16.825 15.0588 16.95 15.0446 17.0775 15.0446C17.0877 15.0446 17.1009 15.0446 17.1146 15.0456C17.2103 15.0485 17.3041 15.0612 17.3954 15.0832C17.5488 15.1198 17.6958 15.1809 17.8335 15.2581C17.9551 15.3255 18.0699 15.4055 18.1754 15.493C18.3502 15.5355 18.5221 15.5897 18.6921 15.6639C18.7697 15.6976 18.8483 15.7357 18.9064 15.7977C18.9338 15.8265 18.989 15.8705 18.9851 15.8011C18.9851 15.8006 18.9294 14.7892 18.9294 14.7892C18.9074 14.3892 19.011 13.9917 19.2254 13.6533L19.3958 13.3847C19.4041 13.372 19.4114 13.3588 19.4187 13.3456C19.5394 13.1268 19.5384 12.8597 19.4129 12.6409L19.1951 12.259C18.9616 11.8507 19.1741 11.332 19.6268 11.2055C20.4556 10.9741 21.7707 10.6571 23.1489 10.5257H23.1499C24.553 10.3919 26.0206 10.4505 27.1047 10.9882H27.1052C27.1692 11.0205 27.2312 11.0537 27.2923 11.0888C27.4852 11.1992 27.6639 11.3267 27.8251 11.4732L28.5279 13.3646C28.5484 13.4501 28.5679 13.5361 28.5855 13.622C29.0895 16.0492 29.5403 21.0633 26.9734 22.6374Z" fill="#C16D53"/>
<path d="M22.9701 15.2905C23.1037 15.2807 23.1965 15.0591 23.1772 14.7955C23.158 14.5318 23.034 14.3261 22.9003 14.3358C22.7666 14.3456 22.6738 14.5672 22.6931 14.8308C22.7124 15.0945 22.8364 15.3003 22.9701 15.2905Z" fill="#231F20"/>
<path d="M27.2337 15.1049C27.3674 15.0952 27.4602 14.8735 27.4409 14.6099C27.4216 14.3463 27.2976 14.1405 27.1639 14.1503C27.0303 14.16 26.9375 14.3817 26.9568 14.6453C26.976 14.9089 27.1 15.1147 27.2337 15.1049Z" fill="#231F20"/>
<g style="mix-blend-mode:screen">
<path d="M26.9738 22.6374C26.7218 22.7917 26.4415 22.9134 26.1289 22.9954C27.6497 22.423 28.2636 19.8288 28.2587 17.3947C28.2538 14.8679 27.5037 12.1584 27.1052 10.9883C27.2981 11.0987 27.6643 11.3267 27.8255 11.4732L28.5283 13.3647C28.5488 13.4502 28.5683 13.5361 28.5859 13.6221C29.0899 16.0493 29.5407 21.0634 26.9738 22.6374Z" fill="#E5765C"/>
</g>
<path d="M24.9132 23.1407C24.9132 23.1407 21.3671 23.5167 19.1035 20.2207C19.1035 20.2207 19.8312 25.4883 24.9132 26.1915V23.1407Z" fill="#843928"/>
<path d="M28.6112 8.55379C28.6112 9.19991 28.516 9.65214 28.516 9.65214C28.3783 5.33689 24.0352 4.29958 24.0352 4.29958H24.0356C24.9909 3.78777 26.2304 4.21021 27.3507 5.2397C27.4 5.28512 27.4474 5.33102 27.4928 5.37791C28.4198 6.33365 28.6112 7.63809 28.6112 8.55379Z" fill="#872F1B"/>
<path d="M22.6289 8.26083C22.6289 8.26083 24.7851 9.73816 26.239 7.77344C26.239 7.77344 26.0841 9.02269 25.2363 9.49739C24.577 9.86709 23.2999 9.76551 22.6289 8.26083Z" fill="#872F1B"/>
<path d="M25.7344 8.67773C25.7344 8.67773 26.2975 9.36829 27.348 8.90922C27.348 8.90922 25.961 10.0276 25.7344 8.67773Z" fill="#872F1B"/>
<path d="M29.3382 41.1854V40.6302H29.6581L29.0486 39.1157H28.362V40.6302H28.7336V41.1854H27.4277V40.6302H27.8067V37.0533H27.4277V36.498H30.1548L30.4698 36.8194V38.8012L30.1553 39.1157H29.5888L30.1983 40.6302H30.6442V41.1854H29.3382ZM28.362 38.5604H29.9223V37.0533H28.362V38.5604Z" fill="#DAD7FF"/>
<g style="mix-blend-mode:soft-light">
<path d="M38.5108 32.5682L36.8587 31.2975L36.1447 30.7481C35.6524 30.3696 35.0712 30.1244 34.4568 30.0355L27.5547 29.0378L27.69 28.0566L34.662 29.0505C35.5694 29.1941 36.3845 29.6873 36.9329 30.4243L37.1966 30.7788L38.5094 32.5428L38.5108 32.5682Z" fill="white"/>
</g>
<g style="mix-blend-mode:soft-light">
<path d="M14.2212 29.3088L7.91685 29.954C6.75208 30.0731 5.65325 30.5512 4.77222 31.3224L3.42969 32.4974L4.60325 30.7744L4.76978 30.5298C5.31578 29.7283 6.16799 29.1882 7.12569 29.0363L14.0484 28.0566L14.2212 29.3093V29.3088Z" fill="white"/>
</g>
<g style="mix-blend-mode:screen">
<path d="M17.8854 15.4835C17.7472 15.6256 17.2569 15.6617 17.1407 15.6461C16.8779 15.61 16.6069 15.5396 16.3524 15.6153C16.0955 15.6915 15.9051 15.9025 15.6877 16.0598C15.6648 16.0764 15.6409 16.0925 15.613 16.0969C15.4406 16.1247 15.5471 15.9132 15.5842 15.8576C15.6746 15.7218 15.7854 15.5982 15.908 15.4908C15.9661 15.4605 16.0237 15.4283 16.0794 15.3897C16.2572 15.2671 16.4096 15.167 16.6132 15.1065C16.6225 15.104 16.6313 15.1016 16.6406 15.0991C16.6616 15.0933 16.6826 15.0884 16.704 15.0835C16.8247 15.0571 16.9497 15.043 17.0772 15.043C17.1377 15.043 17.2613 15.0542 17.3951 15.0816C17.5587 15.1143 17.737 15.1699 17.8332 15.2564C17.9391 15.3516 17.9411 15.4263 17.8854 15.4835Z" fill="#E5765C"/>
</g>
<path d="M28.5586 37.2559V38.363H29.7185V37.2559H28.5586ZM29.6047 38.2492H28.6724V37.3697H29.6047V38.2492Z" fill="white"/>
<path d="M30.4157 40.3123L30.0513 39.4327H30.2867L30.7868 38.9321V36.6881L30.2867 36.1875H27.1172V37.3703H27.4888V40.3123H27.1172V41.4951H30.9612V40.3123H30.4157ZM30.8479 41.3813H29.1415V40.4261H29.3691L28.9144 39.3189H28.5579V40.4261H28.9369V41.3813H27.231V40.4261H27.6026V37.2565H27.231V36.3013H30.2413L30.673 36.7335V38.8867L30.2413 39.3189H29.8848L30.3321 40.4261H30.8479V41.3813ZM28.6717 40.3123V39.4327H28.8382L29.1947 40.3123H28.6717Z" fill="white"/>
<path d="M28.5586 37.2559V38.363H29.7185V37.2559H28.5586ZM29.6047 38.2492H28.6724V37.3697H29.6047V38.2492Z" fill="white"/>
<path d="M28.5586 37.2559V38.363H29.7185V37.2559H28.5586ZM29.6047 38.2492H28.6724V37.3697H29.6047V38.2492Z" fill="white"/>
<g style="mix-blend-mode:soft-light">
<path d="M16.8257 26.6387L17.0118 28.6151L14.2144 29.3379L14.0488 28.0574L16.8257 26.6387Z" fill="white"/>
</g>
<g style="mix-blend-mode:soft-light">
<path d="M24.9136 26.623L24.7578 28.4969L27.5537 29.0376L27.689 28.0564L24.9136 26.623Z" fill="white"/>
</g>
<path d="M16.741 19.0562C16.7361 19.0562 16.7317 19.0562 16.7269 19.0548C15.8156 18.8755 15.1543 18.0238 15.1543 17.03C15.1543 16.0361 15.7994 15.2088 16.6878 15.0135C16.7273 15.0047 16.7664 15.0296 16.7752 15.0692C16.784 15.1087 16.7591 15.1478 16.7195 15.1566C15.8976 15.3373 15.3013 16.1255 15.3013 17.0305C15.3013 17.9354 15.9127 18.7456 16.7557 18.9117C16.7952 18.9195 16.8211 18.9581 16.8133 18.9976C16.8065 19.0328 16.7757 19.0567 16.7415 19.0567L16.741 19.0562Z" fill="#231F20"/>
<path d="M18.2623 15.6398C18.2447 15.6398 18.2276 15.6334 18.2135 15.6212C17.9571 15.3912 17.5522 15.1172 17.0775 15.1172C16.9574 15.1172 16.8373 15.1304 16.72 15.1558C16.6805 15.1646 16.6414 15.1397 16.6326 15.1001C16.6238 15.0606 16.6487 15.0215 16.6883 15.0127C16.8153 14.9849 16.9462 14.9707 17.077 14.9707C17.5976 14.9707 18.0352 15.2652 18.3107 15.5123C18.3409 15.5392 18.3434 15.5856 18.316 15.6158C18.3014 15.632 18.2814 15.6403 18.2613 15.6403L18.2623 15.6398Z" fill="#231F20"/>
<path d="M16.744 18.0537C16.7211 18.0537 16.6986 18.043 16.684 18.023C16.6605 17.9898 16.6683 17.9443 16.7015 17.9209C16.7059 17.918 17.1328 17.6113 17.1723 17.3095C17.1836 17.2225 17.1606 17.1463 17.1025 17.0765C16.9726 16.9207 16.7909 17.0081 16.5584 17.1883C16.5467 17.1976 16.5316 17.2098 16.5135 17.2245C16.3362 17.37 16.1526 17.5072 16.0251 17.4418C15.9573 17.4071 15.927 17.3275 15.9348 17.2049C15.9509 16.9529 16.0295 16.7058 16.1614 16.4909C16.2732 16.3093 16.4075 16.1774 16.5609 16.0998C16.8837 15.9361 17.2749 16.0075 17.6153 16.0993C17.6544 16.11 17.6773 16.1501 17.6671 16.1891C17.6568 16.2282 17.6167 16.2511 17.5772 16.2409C17.2637 16.1564 16.9052 16.0895 16.6268 16.2306C16.4979 16.2961 16.3831 16.4094 16.2859 16.5681C16.1663 16.763 16.095 16.9866 16.0808 17.2147C16.0759 17.2943 16.0921 17.3119 16.0925 17.3119C16.1126 17.3207 16.1834 17.3065 16.4207 17.1117C16.4398 17.096 16.4564 17.0824 16.4691 17.0726C16.6185 16.9573 16.9682 16.6868 17.2153 16.9832C17.3003 17.0848 17.3345 17.2015 17.3179 17.3295C17.27 17.6953 16.8061 18.0274 16.7865 18.0415C16.7738 18.0508 16.7587 18.0552 16.744 18.0552V18.0537Z" fill="#231F20"/>
<path d="M25.9075 17.3712C25.886 17.3712 25.8631 17.3687 25.8391 17.3639C25.615 17.317 25.4172 17.2037 25.237 17.0884C25.2028 17.0664 25.193 17.0215 25.2145 16.9873C25.236 16.9531 25.2819 16.9434 25.3156 16.9649C25.4841 17.0728 25.6677 17.1783 25.8684 17.2203C25.97 17.2413 26.0501 17.1758 26.1361 17.001C26.3641 16.5361 26.1649 15.9173 25.9402 15.3737C25.7937 15.0192 25.6203 14.6817 25.4255 14.3701C25.404 14.336 25.4142 14.2905 25.4484 14.269C25.4826 14.2476 25.528 14.2578 25.5495 14.292C25.7488 14.6104 25.9261 14.9552 26.0755 15.3176C26.3128 15.8919 26.5209 16.5483 26.2674 17.0655C26.2245 17.1529 26.1175 17.3712 25.907 17.3712H25.9075Z" fill="#231F20"/>
<path d="M24.2689 19.4885C23.464 19.4885 22.8155 18.8819 22.5781 18.627C22.5508 18.5972 22.5522 18.5508 22.582 18.5234C22.6118 18.4961 22.6582 18.4975 22.6856 18.5273C23.9402 19.8791 24.9941 19.2194 25.3892 18.8731C25.4195 18.8462 25.4659 18.8497 25.4927 18.8799C25.5196 18.9102 25.5162 18.9566 25.4859 18.9835C25.0634 19.3541 24.6488 19.4889 24.2689 19.4889V19.4885Z" fill="#231F20"/>
<path d="M22.6319 18.6508C22.6041 18.6508 22.5772 18.6346 22.565 18.6073C22.5484 18.5702 22.565 18.5272 22.6022 18.5106C22.7111 18.4622 22.8034 18.3895 22.8766 18.2942C22.901 18.262 22.9474 18.2561 22.9792 18.2811C23.0114 18.306 23.0173 18.3519 22.9924 18.3836C22.904 18.4984 22.7931 18.5858 22.6617 18.6444C22.652 18.6488 22.6417 18.6508 22.6319 18.6508Z" fill="#231F20"/>
<path d="M22.2669 18.7257C22.2132 18.7257 22.1795 18.7213 22.1761 18.7208C22.136 18.715 22.1082 18.6779 22.1141 18.6378C22.1199 18.5978 22.157 18.5699 22.1971 18.5758C22.199 18.5758 22.3963 18.6017 22.6015 18.5103C22.6386 18.4937 22.6816 18.5103 22.6982 18.5475C22.7148 18.5846 22.6982 18.6276 22.661 18.6442C22.5067 18.713 22.3582 18.7262 22.2674 18.7262L22.2669 18.7257Z" fill="#231F20"/>
<path d="M16.7039 15.1583C16.6653 15.1583 16.6331 15.1285 16.6306 15.0894L16.6296 15.0718C16.6057 14.688 16.5461 13.7273 16.4909 12.8756C16.1926 12.9918 15.2788 13.3024 14.7269 12.9992C14.4994 12.8741 14.3612 12.6612 14.3157 12.3667C14.2425 11.8935 14.4393 11.5648 14.8842 11.4159C14.9223 11.4032 14.9643 11.4237 14.977 11.4623C14.9897 11.5008 14.9692 11.5424 14.9306 11.5551C14.5516 11.682 14.3978 11.9404 14.4603 12.3447C14.4989 12.5953 14.6093 12.7677 14.7973 12.8707C15.3867 13.1945 16.5168 12.7071 16.5281 12.7022C16.55 12.6925 16.5749 12.6944 16.5955 12.7066C16.616 12.7188 16.6287 12.7408 16.6306 12.7643C16.6873 13.6404 16.7513 14.663 16.7762 15.0625L16.7771 15.0806C16.7796 15.1211 16.7488 15.1558 16.7088 15.1583C16.7073 15.1583 16.7058 15.1583 16.7044 15.1583H16.7039Z" fill="#231F20"/>
<path d="M14.9071 11.5583C14.8763 11.5583 14.848 11.5387 14.8377 11.5085C14.825 11.4699 14.8456 11.4284 14.8841 11.4157C15.4721 11.2184 16.2989 11.3937 16.3341 11.4015C16.3737 11.4103 16.3986 11.4489 16.3903 11.4884C16.382 11.528 16.3429 11.5534 16.3033 11.5446C16.295 11.5427 15.4804 11.3703 14.931 11.5549C14.9232 11.5573 14.9154 11.5588 14.9076 11.5588L14.9071 11.5583Z" fill="#231F20"/>
<path d="M18.967 15.9107C18.9372 15.9107 18.8981 15.8961 18.8522 15.8468C18.8024 15.7935 18.7311 15.7598 18.6623 15.73C18.507 15.6626 18.3419 15.6079 18.1578 15.5635C18.1182 15.5542 18.0943 15.5142 18.1036 15.4751C18.1128 15.436 18.1524 15.4116 18.192 15.4209C18.3849 15.4673 18.5577 15.5249 18.7209 15.5957C18.7809 15.6216 18.8473 15.6529 18.906 15.6983C18.8913 15.4356 18.8561 14.7929 18.8561 14.7929C18.8332 14.3748 18.9392 13.967 19.1633 13.6139L19.3338 13.3448C19.4627 13.1417 19.4686 12.8858 19.3489 12.6767L19.1306 12.2948C19.008 12.0804 18.9914 11.8265 19.0852 11.5979C19.179 11.3699 19.3689 11.2009 19.6063 11.1345C21.4352 10.6236 25.9019 9.62881 27.8734 11.4187C27.8822 11.4265 27.8886 11.4363 27.893 11.4475L28.5957 13.3385C28.6099 13.3766 28.5904 13.4186 28.5528 13.4327C28.5147 13.4469 28.4727 13.4274 28.4585 13.3898L27.7616 11.5154C25.8374 9.79095 21.447 10.7726 19.6453 11.2756C19.4515 11.3298 19.2967 11.4675 19.2205 11.6536C19.1438 11.8402 19.1575 12.0472 19.2576 12.2221L19.4759 12.604C19.6224 12.8604 19.6151 13.1739 19.4568 13.4235L19.2864 13.6926C19.0788 14.0202 18.9802 14.3978 19.0017 14.785C19.0391 15.4606 19.0578 15.7992 19.0578 15.8009C19.0617 15.8707 19.0202 15.8966 19.0022 15.9039C18.9924 15.9078 18.9807 15.9112 18.9675 15.9112L18.967 15.9107Z" fill="#231F20"/>
<path d="M28.5278 13.44C28.4975 13.44 28.4702 13.4214 28.4594 13.3926C28.4516 13.3726 28.4536 13.3506 28.4624 13.3326C28.499 13.2266 28.8389 12.2069 28.602 11.3913C28.5952 11.3683 28.6006 11.3429 28.6157 11.3244C28.8736 11.0089 28.9815 10.7012 28.9361 10.4097C28.8687 9.97451 28.478 9.71568 28.4741 9.71324C28.4487 9.69663 28.436 9.66635 28.4423 9.63656C28.4482 9.60921 29.003 6.85772 27.2996 5.29298C26.356 4.42612 25.3871 4.03298 24.5705 4.18633C23.9469 4.30354 23.4497 4.73038 23.0942 5.45512C23.083 5.47807 23.06 5.4937 23.0346 5.49565C23.0082 5.4981 22.9838 5.48638 22.9692 5.46538C22.9643 5.45854 22.4827 4.80119 21.882 4.81242C21.5314 4.81877 21.2017 5.05026 20.9014 5.50005C20.8887 5.5191 20.8682 5.53082 20.8452 5.53277C20.8228 5.53424 20.8003 5.52496 20.7852 5.50786C20.7837 5.50591 20.6089 5.3091 20.2553 5.11082C19.9295 4.92768 19.3801 4.70596 18.6139 4.6874C17.3397 4.65614 16.4201 5.11961 16.0909 5.95717C15.7759 6.75858 16.0582 7.73386 16.7927 8.3834C16.8176 8.40586 16.8245 8.442 16.8093 8.47179C16.7937 8.50158 16.76 8.51721 16.7273 8.5094C16.7112 8.50549 15.1034 8.13824 14.4041 8.8913C14.1374 9.17847 13.8503 9.90028 14.0061 10.5088C14.1174 10.943 14.428 11.2477 14.9296 11.4147C14.9682 11.4274 14.9887 11.4689 14.976 11.5075C14.9633 11.5456 14.9218 11.5666 14.8832 11.5539C14.3391 11.3732 13.9865 11.0245 13.864 10.5454C13.6877 9.85633 14.0178 9.09154 14.2967 8.79168C14.8895 8.15386 16.0201 8.24421 16.5178 8.32137C15.8717 7.63765 15.6441 6.69363 15.9547 5.90393C16.3078 5.00533 17.2796 4.50865 18.6178 4.54089C19.911 4.57214 20.6216 5.14549 20.8306 5.34524C21.1461 4.90131 21.4992 4.67275 21.8801 4.6664C21.886 4.6664 21.8913 4.6664 21.8972 4.6664C22.4276 4.6664 22.851 5.09519 23.0151 5.28858C23.3853 4.59119 23.9117 4.16142 24.5437 4.04275C25.4061 3.88061 26.42 4.28644 27.3987 5.18554C29.0382 6.69119 28.6616 9.24 28.5947 9.61947C28.7075 9.70444 29.0157 9.97012 29.0807 10.3862C29.1314 10.7115 29.0216 11.0484 28.753 11.3879C28.9942 12.2835 28.6133 13.3467 28.5967 13.3921C28.5864 13.421 28.5591 13.44 28.5283 13.4405L28.5278 13.44Z" fill="#231F20"/>
<path d="M17.5751 32.5533C17.5506 32.5533 17.5262 32.5411 17.5125 32.5181C17.3338 32.2261 17.2234 31.893 17.1931 31.5541L17.1643 31.2361C17.1609 31.1956 17.1902 31.1604 17.2308 31.1565C17.2713 31.1531 17.3064 31.1824 17.3104 31.2229L17.3392 31.5409C17.3675 31.8573 17.4705 32.1684 17.6376 32.4414C17.6586 32.4761 17.6478 32.521 17.6131 32.542C17.6014 32.5494 17.5882 32.5528 17.5751 32.5528V32.5533Z" fill="#231F20"/>
<path d="M18.4884 33.9732C18.4845 33.9732 18.4806 33.9732 18.4767 33.9722L17.4111 33.7978C17.3711 33.7915 17.3442 33.7534 17.3505 33.7138C17.3569 33.6738 17.395 33.6469 17.4345 33.6533L18.5002 33.8276C18.5402 33.834 18.5671 33.8721 18.5607 33.9116C18.5549 33.9478 18.5236 33.9732 18.4884 33.9732Z" fill="#231F20"/>
<path d="M14.0485 28.1301C14.0123 28.1301 13.9811 28.1032 13.9762 28.0666L13.9752 28.0598C13.9713 28.0295 13.9865 27.9997 14.0133 27.9856L15.1844 27.3639C15.2201 27.3453 15.2645 27.3585 15.2836 27.3941C15.3026 27.4298 15.2889 27.4742 15.2533 27.4933L14.1066 28.1018C14.0954 28.1164 14.0783 28.1267 14.0587 28.1296C14.0553 28.1296 14.0524 28.1301 14.049 28.1301H14.0485Z" fill="#231F20"/>
<path d="M16.0364 27.0661C16.0101 27.0661 15.9847 27.052 15.9715 27.0271C15.9524 26.9914 15.9661 26.947 16.0018 26.9279L16.7846 26.5123C16.8061 26.5011 16.8325 26.5011 16.854 26.5123C16.8755 26.5241 16.8896 26.5455 16.8921 26.57L16.8974 26.6305C16.9009 26.671 16.8716 26.7062 16.831 26.7101C16.8066 26.7121 16.7846 26.7023 16.7695 26.6857L16.0701 27.0569C16.0594 27.0627 16.0477 27.0652 16.036 27.0652L16.0364 27.0661Z" fill="#231F20"/>
<path d="M18.488 33.9734C18.464 33.9734 18.4401 33.9617 18.4264 33.9397L17.541 32.5645C17.5347 32.5542 17.5283 32.5439 17.522 32.5337L17.5127 32.5176C17.4917 32.4829 17.5024 32.438 17.5371 32.417C17.5718 32.396 17.6167 32.4067 17.6377 32.4414L17.6484 32.4595C17.6533 32.4682 17.6587 32.477 17.6641 32.4853L18.5495 33.8611C18.5715 33.8953 18.5617 33.9402 18.5275 33.9622C18.5153 33.97 18.5016 33.9739 18.488 33.9739V33.9734Z" fill="#231F20"/>
<path d="M17.2029 30.924C17.1653 30.924 17.1336 30.8952 17.1302 30.8571L16.969 29.0682C16.9656 29.0276 16.9949 28.9925 17.0354 28.9886C17.0755 28.9851 17.1111 29.0144 17.115 29.055L17.2762 30.8439C17.2796 30.8844 17.2503 30.9196 17.2098 30.9235C17.2073 30.9235 17.2054 30.9235 17.2029 30.9235V30.924Z" fill="#231F20"/>
<path d="M17.0433 29.1345C17.0057 29.1345 16.9739 29.1057 16.9705 29.0676L16.7522 26.6443C16.7488 26.6038 16.7781 26.5686 16.8186 26.5647C16.8587 26.5613 16.8943 26.5906 16.8982 26.6311L17.1166 29.0544C17.12 29.095 17.0907 29.1301 17.0501 29.134C17.0477 29.134 17.0457 29.134 17.0433 29.134V29.1345Z" fill="#231F20"/>
<path d="M16.211 33.5319C16.2018 33.5319 16.193 33.5304 16.1837 33.5265C15.2929 33.1705 14.6424 32.3969 14.4431 31.4578C14.4431 31.4558 14.4426 31.4543 14.4422 31.4524L13.9753 28.0655C13.9699 28.0255 13.9977 27.9884 14.0378 27.983C14.0773 27.9781 14.1149 28.0055 14.1203 28.0455L14.5867 31.4294C14.7762 32.3192 15.3935 33.0523 16.2379 33.3898C16.2755 33.4049 16.2936 33.4474 16.2789 33.485C16.2677 33.5138 16.2399 33.5309 16.211 33.5309V33.5319Z" fill="#231F20"/>
<path d="M17.2381 31.3032C17.2005 31.3032 17.1687 31.2744 17.1653 31.2363L17.1311 30.8573C17.1277 30.8168 17.157 30.7816 17.1975 30.7777C17.2381 30.7738 17.2732 30.8036 17.2772 30.8441L17.3113 31.2231C17.3148 31.2636 17.2855 31.2988 17.2449 31.3027C17.2425 31.3027 17.2405 31.3027 17.2381 31.3027V31.3032Z" fill="#231F20"/>
<path d="M17.4214 33.799C17.3975 33.799 17.3736 33.7873 17.3599 33.7653L16.8481 32.9692C16.5829 32.558 16.4198 32.0833 16.3763 31.5959L15.9632 26.9999C15.9597 26.9593 15.9895 26.9242 16.0296 26.9203C16.0691 26.9164 16.1053 26.9461 16.1092 26.9867L16.5223 31.5828C16.5639 32.0462 16.7192 32.4985 16.9716 32.8896L17.4839 33.6857C17.5059 33.7199 17.4962 33.7648 17.462 33.7868C17.4498 33.7946 17.4361 33.7985 17.4224 33.7985L17.4214 33.799Z" fill="#231F20"/>
<path d="M16.2104 33.5327C16.1865 33.5327 16.1626 33.5209 16.1489 33.499L16.02 33.2987C15.7553 32.8866 15.5922 32.4114 15.5487 31.925L15.1448 27.4353C15.1414 27.3948 15.1707 27.3596 15.2112 27.3557C15.2518 27.3523 15.2869 27.3816 15.2908 27.4222L15.6947 31.9123C15.7362 32.3752 15.8915 32.8275 16.1435 33.2201L16.2725 33.4203C16.2944 33.4545 16.2847 33.4995 16.2505 33.5214C16.2383 33.5293 16.2246 33.5332 16.2109 33.5332L16.2104 33.5327Z" fill="#231F20"/>
<path d="M17.4231 33.7994C17.4192 33.7994 17.4153 33.7994 17.4114 33.7984L16.7882 33.6963C16.5797 33.6621 16.3765 33.605 16.1846 33.5278C16.147 33.5127 16.1289 33.4702 16.144 33.4326C16.1592 33.395 16.2017 33.3769 16.2393 33.3921C16.4214 33.4653 16.6138 33.5195 16.8116 33.5518L17.4348 33.6538C17.4748 33.6602 17.5017 33.6983 17.4954 33.7378C17.4895 33.774 17.4582 33.7994 17.4231 33.7994Z" fill="#231F20"/>
<path d="M15.2181 27.5019C15.1917 27.5019 15.1663 27.4877 15.1531 27.4628C15.1341 27.4272 15.1478 27.3827 15.1834 27.3637L16.0019 26.9285C16.0376 26.9095 16.082 26.9232 16.1011 26.9588C16.1201 26.9945 16.1064 27.0389 16.0708 27.0579L15.2523 27.4931C15.2415 27.4989 15.2293 27.5019 15.2181 27.5019Z" fill="#231F20"/>
<path d="M23.2491 33.9725C23.2354 33.9725 23.2217 33.9686 23.2095 33.9607C23.1753 33.9388 23.1655 33.8933 23.1875 33.8596L24.0446 32.5279C24.0666 32.4937 24.112 32.4839 24.1457 32.5059C24.1799 32.5279 24.1897 32.5733 24.1677 32.607L23.3106 33.9388C23.2964 33.9607 23.273 33.9725 23.2491 33.9725Z" fill="#231F20"/>
<path d="M23.249 33.9732C23.2138 33.9732 23.1826 33.9478 23.1767 33.9116C23.1704 33.8716 23.1972 33.834 23.2373 33.8276L24.3034 33.6533C24.3434 33.6469 24.381 33.6738 24.3874 33.7138C24.3937 33.7539 24.3669 33.7915 24.3268 33.7978L23.2607 33.9722C23.2568 33.9727 23.2529 33.9732 23.249 33.9732Z" fill="#231F20"/>
<path d="M24.6067 30.102C24.6067 30.102 24.6023 30.102 24.5999 30.102C24.5594 30.0986 24.5301 30.0629 24.5335 30.0224L24.595 29.3382C24.5984 29.2976 24.6336 29.2683 24.6746 29.2718C24.7152 29.2752 24.7445 29.3108 24.741 29.3514L24.6795 30.0356C24.6761 30.0737 24.6443 30.1025 24.6067 30.1025V30.102Z" fill="#231F20"/>
<path d="M24.5735 30.4799C24.5735 30.4799 24.5691 30.4799 24.5667 30.4799C24.5262 30.4765 24.4969 30.4409 24.5003 30.4003L24.534 30.0238C24.5374 29.9833 24.5726 29.9535 24.6136 29.9574C24.6541 29.9608 24.6834 29.9964 24.68 30.037L24.6463 30.4135C24.6429 30.4516 24.6111 30.4804 24.5735 30.4804V30.4799Z" fill="#231F20"/>
<path d="M27.6885 28.1298C27.6851 28.1298 27.6822 28.1298 27.6787 28.1293C27.6592 28.1269 27.6421 28.1167 27.6309 28.102L26.4842 27.4935C26.4485 27.4744 26.4349 27.43 26.4539 27.3943C26.473 27.3587 26.5174 27.345 26.5531 27.3641L27.7242 27.9858C27.7515 27.9999 27.7667 28.0297 27.7623 28.0605L27.7613 28.0673C27.7564 28.104 27.7247 28.1308 27.689 28.1308L27.6885 28.1298Z" fill="#231F20"/>
<path d="M24.6692 29.4179C24.6692 29.4179 24.6648 29.4179 24.6624 29.4179C24.6219 29.4144 24.5926 29.3788 24.596 29.3383L24.8411 26.6156C24.8446 26.5751 24.8802 26.5453 24.9207 26.5492C24.9613 26.5526 24.9906 26.5882 24.9872 26.6288L24.742 29.3514C24.7386 29.3895 24.7068 29.4184 24.6692 29.4184V29.4179Z" fill="#231F20"/>
<path d="M25.5263 33.5329C25.4975 33.5329 25.4696 33.5154 25.4584 33.487C25.4433 33.4494 25.4618 33.4069 25.4994 33.3918C26.3438 33.0539 26.9611 32.3213 27.1506 31.4315L27.617 28.0475C27.6224 28.0075 27.66 27.9797 27.6995 27.985C27.7396 27.9904 27.7674 28.0275 27.7621 28.0676L27.2952 31.4544C27.2952 31.4544 27.2947 31.4579 27.2942 31.4598C27.0949 32.3989 26.4444 33.172 25.5536 33.5286C25.5448 33.532 25.5356 33.5339 25.5263 33.5339V33.5329Z" fill="#231F20"/>
<path d="M25.6997 27.0675C25.6879 27.0675 25.6762 27.0646 25.6655 27.0592L24.9568 26.6827C24.9427 26.6929 24.9246 26.6983 24.9065 26.6968C24.866 26.6934 24.8367 26.6577 24.8401 26.6172L24.844 26.5723C24.846 26.5479 24.8606 26.5259 24.8821 26.5147C24.9036 26.5029 24.93 26.5029 24.9515 26.5147L25.7343 26.9303C25.77 26.9493 25.7837 26.9937 25.7646 27.0294C25.7514 27.0543 25.726 27.0685 25.6997 27.0685V27.0675Z" fill="#231F20"/>
<path d="M24.1065 32.6423C24.0928 32.6423 24.0791 32.6384 24.0669 32.6306C24.0327 32.6086 24.023 32.5632 24.0449 32.5295L24.0733 32.486C24.2559 32.2037 24.3678 31.877 24.398 31.5415L24.5006 30.4007C24.504 30.3601 24.5397 30.3308 24.5802 30.3343C24.6207 30.3377 24.65 30.3733 24.6466 30.4139L24.5441 31.5547C24.5118 31.9137 24.3917 32.2633 24.1963 32.5656L24.1685 32.6091C24.1543 32.6311 24.1309 32.6428 24.107 32.6428L24.1065 32.6423Z" fill="#231F20"/>
<path d="M25.5264 33.5332C25.5127 33.5332 25.499 33.5293 25.4868 33.5214C25.4527 33.4995 25.4429 33.454 25.4649 33.4203L25.5938 33.2201C25.8458 32.8279 26.0011 32.3757 26.0426 31.9123L26.4465 27.4222C26.4499 27.3816 26.4856 27.3523 26.5261 27.3557C26.5666 27.3592 26.5959 27.3948 26.5925 27.4353L26.1886 31.9254C26.1452 32.4119 25.982 32.887 25.7173 33.2992L25.5884 33.4995C25.5743 33.5214 25.5508 33.5332 25.5269 33.5332H25.5264Z" fill="#231F20"/>
<path d="M24.3135 33.7985C24.2998 33.7985 24.2862 33.7946 24.2739 33.7868C24.2398 33.7648 24.23 33.7194 24.252 33.6857L24.7638 32.8896C25.0158 32.4985 25.1711 32.0462 25.2131 31.5828L25.6262 26.9867C25.6297 26.9462 25.6663 26.9164 25.7059 26.9203C25.7464 26.9237 25.7757 26.9593 25.7723 26.9999L25.3591 31.5959C25.3152 32.0833 25.152 32.558 24.8873 32.9692L24.3755 33.7653C24.3614 33.7873 24.3379 33.799 24.314 33.799L24.3135 33.7985Z" fill="#231F20"/>
<path d="M26.5185 27.5019C26.5068 27.5019 26.4951 27.4989 26.4843 27.4931L25.6658 27.0579C25.6302 27.0389 25.6165 26.9945 25.6356 26.9588C25.6546 26.9232 25.699 26.9095 25.7347 26.9285L26.5532 27.3637C26.5889 27.3827 26.6025 27.4272 26.5835 27.4628C26.5703 27.4877 26.5449 27.5019 26.5185 27.5019Z" fill="#231F20"/>
<path d="M24.3154 33.7994C24.2802 33.7994 24.249 33.774 24.2431 33.7378C24.2368 33.6978 24.2636 33.6602 24.3037 33.6538L24.9268 33.5518C25.1246 33.519 25.317 33.4653 25.4992 33.3921C25.5368 33.3769 25.5793 33.395 25.5944 33.4326C25.6096 33.4702 25.5915 33.5127 25.5539 33.5278C25.362 33.6055 25.1588 33.6621 24.9503 33.6963L24.3271 33.7984C24.3232 33.7989 24.3193 33.7994 24.3154 33.7994Z" fill="#231F20"/>
<path d="M24.6967 23.2167C22.7847 23.2167 21.4232 22.5252 20.5822 21.8981C19.5361 21.1187 19.0604 20.2914 19.0409 20.2562C19.0209 20.221 19.0331 20.1766 19.0682 20.1566C19.1034 20.1365 19.1478 20.1488 19.1679 20.1839C19.1727 20.1922 19.6513 21.0234 20.675 21.7843C21.618 22.4856 23.2306 23.2695 25.5602 23.0233C26.5174 22.9217 27.2817 22.4881 27.8316 21.734C28.4948 20.8251 28.8533 19.467 28.8972 17.6966C28.9416 15.9121 28.6437 14.2619 28.5138 13.6348C28.4977 13.5577 28.4792 13.4742 28.4567 13.3794C28.4474 13.3399 28.4718 13.3008 28.5109 13.291C28.551 13.2818 28.5895 13.3062 28.5993 13.3452C28.6223 13.4414 28.6413 13.5259 28.6574 13.6046C28.7883 14.2365 29.0886 15.9004 29.0437 17.6996C28.9993 19.4997 28.631 20.8862 27.9498 21.8195C27.374 22.6087 26.575 23.0624 25.5753 23.1679C25.2706 23.2001 24.9775 23.2152 24.6967 23.2152V23.2167Z" fill="#231F20"/>
<path d="M16.8253 26.7114C16.8253 26.7114 16.8233 26.7114 16.8223 26.7114C16.7818 26.7099 16.7505 26.6757 16.752 26.6357L17.0226 19.2539C17.024 19.2134 17.0582 19.1826 17.0983 19.1836C17.1388 19.1851 17.17 19.2193 17.1686 19.2593L16.898 26.6411C16.8966 26.6806 16.8638 26.7119 16.8248 26.7119L16.8253 26.7114Z" fill="#231F20"/>
<path d="M19.025 35.5375C18.9849 35.5375 18.9522 35.5053 18.9517 35.4652L18.9351 34.3053C18.9278 34.1554 18.813 34.0269 18.6621 34.002L18.4755 33.9718C18.4355 33.9654 18.4086 33.9273 18.415 33.8878C18.4213 33.8482 18.4594 33.8204 18.499 33.8272L18.6855 33.8575C18.9039 33.8931 19.0704 34.0797 19.0811 34.3004L19.0977 35.4628C19.0982 35.5033 19.066 35.5365 19.0255 35.537H19.0245L19.025 35.5375Z" fill="#231F20"/>
<path d="M4.60218 30.8479C4.58802 30.8479 4.57386 30.844 4.56116 30.8352C4.52795 30.8122 4.51916 30.7668 4.54211 30.7336L4.70865 30.4894C5.26344 29.6748 6.14007 29.119 7.11388 28.9652L14.038 27.985C14.0776 27.9797 14.1152 28.0075 14.121 28.0475C14.1269 28.0876 14.0986 28.1247 14.0585 28.1306L7.13586 29.1107C6.20307 29.2582 5.36258 29.7915 4.83025 30.5729L4.66372 30.8171C4.64956 30.8381 4.6266 30.8493 4.60316 30.8493L4.60218 30.8479Z" fill="#231F20"/>
<path d="M19.0689 38.6388C19.0288 38.6388 18.9961 38.6066 18.9956 38.5665L18.9512 35.4649C18.9507 35.4243 18.9829 35.3911 19.0235 35.3906H19.0244C19.0645 35.3906 19.0972 35.4229 19.0977 35.4629L19.1421 38.5646C19.1426 38.6051 19.1104 38.6383 19.0699 38.6388H19.0689Z" fill="#231F20"/>
<path d="M19.2081 48.3349H8.20997C8.16944 48.3349 8.13672 48.3021 8.13672 48.2616C8.13672 48.2211 8.16944 48.1883 8.20997 48.1883H19.1334L18.9957 38.5664C18.9952 38.5259 19.0274 38.4927 19.068 38.4922C19.1075 38.4912 19.1417 38.524 19.1422 38.5645L19.2809 48.2606C19.2809 48.2802 19.2736 48.2992 19.2599 48.3129C19.2462 48.3266 19.2272 48.3349 19.2076 48.3349H19.2081Z" fill="#231F20"/>
<path d="M8.21035 48.3354H-1.69042C-1.70995 48.3354 -1.72851 48.3276 -1.74218 48.3139C-1.75586 48.3003 -1.76367 48.2817 -1.76367 48.2622L-1.75928 40.0058C-1.75928 39.9911 -1.75488 39.9769 -1.74658 39.9647L4.54219 30.733C4.56514 30.6998 4.61056 30.691 4.64377 30.714C4.67698 30.7369 4.68577 30.7824 4.66282 30.8156L-1.61276 40.0282L-1.61716 48.1884H8.21035C8.25089 48.1884 8.28361 48.2212 8.28361 48.2617C8.28361 48.3022 8.25089 48.3349 8.21035 48.3349V48.3354Z" fill="#231F20"/>
<path d="M24.9131 26.6957C24.9082 26.6957 24.9033 26.6953 24.8984 26.6943C24.8941 26.6933 24.8892 26.6918 24.8848 26.6899C24.8804 26.6879 24.876 26.686 24.8721 26.683C24.8682 26.6806 24.8643 26.6777 24.8608 26.6743C24.8472 26.6606 24.8398 26.6415 24.8398 26.622C24.8398 26.6176 24.8398 26.6127 24.8408 26.6078C24.8418 26.6034 24.8433 26.5986 24.8452 26.5942C24.8472 26.5898 24.8491 26.5854 24.8521 26.5815C24.8545 26.5776 24.8574 26.5737 24.8608 26.5707C24.8643 26.5673 24.8682 26.5639 24.8721 26.5614C24.876 26.5585 24.8804 26.5566 24.8848 26.5546C24.8892 26.5527 24.8941 26.5512 24.8984 26.5502C24.9224 26.5453 24.9478 26.5536 24.9649 26.5707C24.9781 26.5839 24.9864 26.603 24.9864 26.622C24.9864 26.641 24.9781 26.6606 24.9649 26.6743C24.9614 26.6777 24.9575 26.6806 24.9536 26.683C24.9497 26.686 24.9453 26.6879 24.9409 26.6899C24.9365 26.6918 24.9317 26.6933 24.9273 26.6943C24.9224 26.6953 24.9175 26.6957 24.9131 26.6957Z" fill="#231F20"/>
<path d="M24.9131 26.6955C24.8726 26.6955 24.8398 26.6628 24.8398 26.6222V23.1514C24.8398 23.1108 24.8726 23.0781 24.9131 23.0781C24.9536 23.0781 24.9864 23.1108 24.9864 23.1514V26.6222C24.9864 26.6628 24.9536 26.6955 24.9131 26.6955Z" fill="#231F20"/>
<path d="M22.6709 38.3417H22.6699C22.6294 38.3412 22.5972 38.308 22.5977 38.2675L22.6543 34.3029C22.6651 34.0792 22.8316 33.8932 23.0499 33.8575L23.2365 33.8272C23.276 33.8204 23.3141 33.8477 23.3205 33.8878C23.3268 33.9278 23.2999 33.9654 23.2599 33.9718L23.0733 34.0021C22.9229 34.0265 22.8077 34.1554 22.8003 34.3078L22.7437 38.2699C22.7432 38.31 22.7105 38.3422 22.6704 38.3422L22.6709 38.3417Z" fill="#231F20"/>
<path d="M22.6123 42.5277H22.6113C22.5708 42.5272 22.5386 42.494 22.5391 42.4534L22.5991 38.2676C22.5996 38.2275 22.6323 38.1953 22.6724 38.1953H22.6734C22.7139 38.1958 22.7461 38.229 22.7456 38.2695L22.6856 42.4554C22.6851 42.4954 22.6524 42.5277 22.6123 42.5277Z" fill="#231F20"/>
<path d="M46.0238 48.3356H33.5889C33.5483 48.3356 33.5156 48.3029 33.5156 48.2623C33.5156 48.2218 33.5483 48.1891 33.5889 48.1891H45.9506V42.669L37.1354 30.8221C37.111 30.7893 37.1179 30.7439 37.1506 30.7195C37.1828 30.6956 37.2287 30.7019 37.2531 30.7347L46.0824 42.6011C46.0917 42.6138 46.0971 42.629 46.0971 42.6451V48.2628C46.0971 48.3033 46.0643 48.3361 46.0238 48.3361V48.3356Z" fill="#231F20"/>
<path d="M37.1945 30.8524C37.172 30.8524 37.15 30.8421 37.1359 30.8231L36.8721 30.469C36.332 29.7428 35.5423 29.2652 34.6486 29.1235L27.678 28.1302C27.638 28.1243 27.6102 28.0872 27.616 28.0472C27.6219 28.0071 27.6585 27.9793 27.699 27.9852L34.671 28.979C35.6038 29.127 36.4272 29.6246 36.9903 30.3816L37.254 30.7357C37.2785 30.7684 37.2716 30.8138 37.2389 30.8382C37.2257 30.848 37.2106 30.8529 37.1954 30.8529L37.1945 30.8524Z" fill="#231F20"/>
<path d="M8.21032 48.3355C8.17125 48.3355 8.13853 48.3042 8.13706 48.2647L7.74441 37.3613C7.70241 36.197 7.33613 35.0708 6.68464 34.1053L4.54118 30.8146C4.5192 30.7809 4.52848 30.7355 4.56267 30.7131C4.59636 30.6911 4.64178 30.7004 4.66425 30.7345L6.80674 34.0242C7.47288 35.0117 7.84794 36.1643 7.89092 37.3559L8.28357 48.2593C8.28504 48.2998 8.25329 48.3335 8.21276 48.335C8.21178 48.335 8.21081 48.335 8.21032 48.335V48.3355Z" fill="#231F20"/>
<path d="M33.5909 48.3349C33.5909 48.3349 33.5889 48.3349 33.5884 48.3349C33.5479 48.3334 33.5162 48.2992 33.5176 48.2592L33.9103 37.3558C33.9533 36.1641 34.3283 35.0116 34.995 34.0231L37.1345 30.7383C37.1565 30.7046 37.2019 30.6949 37.2361 30.7168C37.2698 30.7388 37.2796 30.7842 37.2576 30.8184L35.1175 34.1042C34.4656 35.0712 34.0988 36.1969 34.0573 37.3611L33.6646 48.2645C33.6632 48.3041 33.6309 48.3353 33.5914 48.3353L33.5909 48.3349Z" fill="#231F20"/>
<path d="M20.9929 31.6168C20.7262 31.6168 20.4684 31.6017 20.2266 31.5724C20.1866 31.5675 20.1578 31.5308 20.1626 31.4908C20.1675 31.4507 20.2046 31.4224 20.2442 31.4268C20.4801 31.4556 20.7321 31.4703 20.9929 31.4703C21.4593 31.4703 21.892 31.4234 22.2783 31.3301C22.3173 31.3208 22.3574 31.3448 22.3667 31.3843C22.376 31.4234 22.352 31.4634 22.3125 31.4727C21.9149 31.5684 21.471 31.6168 20.9929 31.6168Z" fill="#231F20"/>
<path d="M19.9318 31.5278C19.9274 31.5278 19.923 31.5278 19.9186 31.5268C19.126 31.3837 18.4623 31.0702 17.9456 30.594C17.9158 30.5667 17.9138 30.5203 17.9412 30.4905C17.9685 30.4607 18.0149 30.4587 18.0447 30.4861C18.5404 30.9432 19.1797 31.2445 19.9445 31.3827C19.984 31.3901 20.0109 31.4282 20.0036 31.4677C19.9972 31.5029 19.9664 31.5278 19.9318 31.5278Z" fill="#231F20"/>
<path d="M17.7837 30.3971C17.7637 30.3971 17.7437 30.3888 17.7295 30.3732C17.4048 30.0143 17.1508 29.5811 16.975 29.0864C16.9613 29.0483 16.9814 29.0063 17.0194 28.9926C17.0575 28.9789 17.0995 28.9989 17.1132 29.037C17.2827 29.5137 17.5264 29.9303 17.8384 30.2746C17.8658 30.3043 17.8634 30.3507 17.8331 30.3781C17.8189 30.3908 17.8013 30.3971 17.7837 30.3971Z" fill="#231F20"/>
<path d="M24.4266 29.9418C24.4144 29.9418 24.4017 29.9388 24.3905 29.932C24.3553 29.912 24.3431 29.867 24.3631 29.8324C24.4535 29.6736 24.5331 29.5012 24.5995 29.3196C24.6137 29.2815 24.6557 29.2619 24.6933 29.2761C24.7314 29.2903 24.7509 29.3323 24.7367 29.3699C24.6674 29.5589 24.5844 29.7386 24.4901 29.9046C24.4764 29.9286 24.452 29.9418 24.4266 29.9418Z" fill="#231F20"/>
<path d="M22.5869 31.3941C22.5557 31.3941 22.5269 31.3741 22.5171 31.3428C22.5049 31.3043 22.5264 31.2632 22.565 31.251C23.2638 31.0298 23.8147 30.6381 24.2025 30.0877C24.2259 30.0545 24.2713 30.0467 24.3045 30.0702C24.3377 30.0936 24.3456 30.139 24.3221 30.1722C23.9158 30.7495 23.3395 31.1597 22.6094 31.3912C22.6021 31.3936 22.5947 31.3946 22.5874 31.3946L22.5869 31.3941Z" fill="#231F20"/>
<path d="M23.0711 33.0502C23.0388 33.0502 23.0095 33.0292 23.0007 32.997C22.99 32.9579 23.0124 32.9174 23.0515 32.9066C23.4173 32.8041 23.7601 32.6678 24.0717 32.5027C24.1074 32.4837 24.1518 32.4974 24.1709 32.533C24.1899 32.5687 24.1762 32.6131 24.1406 32.6322C23.8202 32.8021 23.4671 32.9418 23.0916 33.0478C23.0847 33.0497 23.0784 33.0507 23.0715 33.0507L23.0711 33.0502Z" fill="#231F20"/>
<path d="M19.4646 33.1907C19.4607 33.1907 19.4563 33.1907 19.4524 33.1897C18.733 33.0676 18.0894 32.8503 17.5395 32.5436C17.5043 32.5241 17.4916 32.4791 17.5111 32.444C17.5307 32.4088 17.5751 32.3956 17.6108 32.4156C18.146 32.714 18.7741 32.926 19.4768 33.0452C19.5169 33.052 19.5437 33.0896 19.5369 33.1296C19.531 33.1653 19.4998 33.1907 19.4646 33.1907Z" fill="#231F20"/>
<path d="M20.9921 33.3121C20.5594 33.3121 20.1438 33.2862 19.757 33.2359C19.717 33.2305 19.6886 33.1939 19.694 33.1538C19.6994 33.1138 19.7365 33.0855 19.7761 33.0908C20.156 33.1406 20.5653 33.166 20.9916 33.166C21.6324 33.166 22.2272 33.104 22.76 32.9824C22.8001 32.9731 22.8386 32.998 22.8479 33.0376C22.8572 33.0772 22.8323 33.1162 22.7927 33.1255C22.2492 33.25 21.6436 33.313 20.9916 33.313L20.9921 33.3121Z" fill="#231F20"/>
<path d="M17.9972 30.6122C17.9796 30.6122 17.9616 30.6058 17.9479 30.5931C17.8737 30.5252 17.8004 30.451 17.7296 30.3724C17.7027 30.3421 17.7052 30.2962 17.735 30.2688C17.7652 30.242 17.8112 30.2439 17.8385 30.2742C17.9064 30.3494 17.9762 30.4202 18.047 30.4852C18.0768 30.5125 18.0788 30.5589 18.0514 30.5887C18.0368 30.6043 18.0172 30.6126 17.9972 30.6126V30.6122Z" fill="#231F20"/>
<path d="M20.2347 31.5724C20.2318 31.5724 20.2288 31.5724 20.2259 31.5719C20.1214 31.5592 20.0183 31.5436 19.9197 31.526C19.8796 31.5187 19.8533 31.4806 19.8606 31.441C19.8679 31.401 19.906 31.3751 19.9456 31.382C20.0418 31.399 20.1419 31.4142 20.244 31.4269C20.284 31.4318 20.3128 31.4684 20.3079 31.5084C20.3035 31.5456 20.2718 31.5729 20.2352 31.5729L20.2347 31.5724Z" fill="#231F20"/>
<path d="M19.7663 33.2366C19.7634 33.2366 19.7599 33.2366 19.757 33.2361C19.653 33.2229 19.5499 33.2073 19.4513 33.1902C19.4112 33.1834 19.3849 33.1453 19.3917 33.1057C19.3985 33.0657 19.4366 33.0388 19.4762 33.0461C19.5729 33.0627 19.6735 33.0779 19.7751 33.0911C19.8151 33.0964 19.8434 33.1331 19.8386 33.1731C19.8337 33.2102 19.8024 33.2371 19.7658 33.2371L19.7663 33.2366Z" fill="#231F20"/>
<path d="M22.2959 31.4737C22.2627 31.4737 22.2329 31.4513 22.2246 31.4176C22.2153 31.378 22.2398 31.3389 22.2788 31.3292C22.375 31.3062 22.4717 31.2794 22.5655 31.2496C22.6046 31.2374 22.6451 31.2584 22.6578 31.2969C22.67 31.3355 22.649 31.3765 22.6104 31.3892C22.5133 31.4205 22.4131 31.4483 22.313 31.4718C22.3072 31.4732 22.3018 31.4737 22.2959 31.4737Z" fill="#231F20"/>
<path d="M22.7762 33.1253C22.7425 33.1253 22.7127 33.1023 22.7049 33.0681C22.6961 33.0286 22.7205 32.9895 22.7601 32.9807C22.8583 32.9583 22.9535 32.9343 23.0512 32.907C23.0902 32.8962 23.1308 32.9187 23.1415 32.9578C23.1523 32.9968 23.1298 33.0374 23.0907 33.0481C22.9906 33.076 22.8934 33.1009 22.7928 33.1238C22.7874 33.1253 22.7821 33.1258 22.7767 33.1258L22.7762 33.1253Z" fill="#231F20"/>
<path d="M24.2627 30.2032C24.248 30.2032 24.2334 30.1988 24.2207 30.19C24.1875 30.1666 24.1796 30.1212 24.2026 30.088C24.2617 30.0035 24.3159 29.918 24.3633 29.834C24.3833 29.7988 24.4277 29.7866 24.4629 29.8062C24.4981 29.8262 24.5108 29.8706 24.4907 29.9058C24.4409 29.9937 24.3843 30.0836 24.3222 30.172C24.3081 30.1925 24.2851 30.2032 24.2622 30.2032H24.2627Z" fill="#231F20"/>
<path d="M22.6106 42.5277C22.5896 42.5277 22.5686 42.5189 22.5544 42.5013C22.5134 42.4525 22.4734 42.4026 22.4333 42.3528C22.3073 42.197 22.1769 42.0359 22.0285 41.9011C21.8942 41.7795 21.7393 41.6735 21.5889 41.5709C21.3657 41.4186 21.1352 41.2613 20.9594 41.045C20.4564 40.4262 20.5565 39.3825 21.1792 38.7662C21.6847 38.2656 22.195 38.1958 22.6712 38.1953C22.7117 38.1953 22.7444 38.228 22.7444 38.2686C22.7444 38.3091 22.7117 38.3418 22.6712 38.3418C22.1574 38.3423 21.7242 38.4327 21.2822 38.8702C20.7113 39.4358 20.6156 40.3891 21.0732 40.9522C21.2358 41.1519 21.4473 41.2965 21.6715 41.4498C21.8258 41.5553 21.985 41.6642 22.1266 41.7927C22.2834 41.9348 22.4172 42.1003 22.5471 42.2605C22.5867 42.3099 22.6267 42.3587 22.6673 42.407C22.6931 42.4383 22.6887 42.4842 22.658 42.5101C22.6443 42.5213 22.6277 42.5272 22.6111 42.5272L22.6106 42.5277Z" fill="#231F20"/>
<path d="M19.0705 38.6394C19.0485 38.6394 19.0265 38.6296 19.0123 38.6106C18.9879 38.5783 18.9938 38.5324 19.026 38.508C19.1281 38.4299 19.2116 38.3532 19.2814 38.2721C19.5451 37.9674 19.6746 37.5542 19.7888 37.1894C19.9295 36.7401 20.0726 36.1052 19.6921 35.778C19.5349 35.6427 19.32 35.5934 19.0949 35.5509C19.0802 35.548 19.0656 35.5456 19.0514 35.5431L19.0133 35.5363C18.9733 35.529 18.9474 35.4909 18.9542 35.4508C18.9615 35.4108 19.0001 35.3849 19.0397 35.3917L19.0758 35.3981C19.091 35.4005 19.1066 35.4034 19.1217 35.4064C19.3576 35.4508 19.6033 35.5075 19.7874 35.6667C20.2333 36.0505 20.0814 36.7445 19.9285 37.2329C19.8098 37.6114 19.6755 38.0397 19.3923 38.3674C19.3156 38.4558 19.2253 38.5398 19.1149 38.6238C19.1017 38.634 19.0861 38.6389 19.0705 38.6389V38.6394Z" fill="#231F20"/>
<path d="M17.2096 19.3425C17.1671 19.3425 17.1236 19.3376 17.0802 19.3283C17.0406 19.3196 17.0157 19.2805 17.0245 19.2409C17.0333 19.2014 17.0719 19.1765 17.1119 19.1853C17.1446 19.1926 17.1774 19.196 17.2096 19.196C17.4587 19.196 17.6613 18.9933 17.6613 18.7443C17.6613 18.4952 17.4587 18.2925 17.2096 18.2925C16.9605 18.2925 16.7578 18.4952 16.7578 18.7443C16.7578 18.816 16.7744 18.8849 16.8077 18.9499C16.8262 18.986 16.812 19.0299 16.7759 19.0485C16.7398 19.0671 16.6958 19.0529 16.6773 19.0168C16.6333 18.9313 16.6113 18.84 16.6113 18.7447C16.6113 18.4146 16.8799 18.1465 17.2096 18.1465C17.5392 18.1465 17.8078 18.4151 17.8078 18.7447C17.8078 19.0744 17.5392 19.343 17.2096 19.343V19.3425Z" fill="#231F20"/>
<path d="M17.0952 19.329C17.0898 19.329 17.0849 19.3285 17.0795 19.3271C16.9047 19.2885 16.7577 19.1747 16.6761 19.015C16.6576 18.9789 16.6717 18.9349 16.7079 18.9164C16.744 18.8978 16.788 18.912 16.8065 18.9481C16.8685 19.0687 16.9794 19.1547 17.1113 19.184C17.1508 19.1928 17.1757 19.2318 17.1669 19.2714C17.1596 19.3056 17.1293 19.329 17.0956 19.329H17.0952Z" fill="#231F20"/>
<path d="M12.0944 37.6344C12.0407 37.6344 11.987 37.6324 11.9327 37.629C11.3125 37.5865 10.7465 37.3047 10.3382 36.8359C9.92993 36.367 9.72872 35.7673 9.77121 35.1476C9.81369 34.5273 10.0955 33.9613 10.5643 33.553C11.0332 33.1448 11.6324 32.9436 12.2526 32.986C13.5326 33.0744 14.5026 34.1874 14.4142 35.4675C14.3297 36.6933 13.3051 37.6349 12.0944 37.6349V37.6344ZM11.943 37.4825C13.1415 37.565 14.1856 36.6567 14.2681 35.4567C14.3507 34.2573 13.4423 33.2141 12.2424 33.1316C11.6612 33.0915 11.0996 33.28 10.66 33.6629C10.221 34.0453 9.95679 34.5762 9.91674 35.1574C9.87669 35.7385 10.0652 36.3001 10.4481 36.7397C10.8305 37.1787 11.3613 37.4429 11.9425 37.483L11.943 37.4825Z" fill="#231F20"/>
</g>
<defs>
<clipPath id="clip0_7422_20862">
<rect width="42" height="42" fill="white"/>
</clipPath>
</defs>
</svg>
