<svg width="30" height="30" viewBox="0 0 30 30" fill="none" xmlns="http://www.w3.org/2000/svg">
<path d="M22.0566 10.4619C22.0566 8.53909 21.2928 6.69503 19.9332 5.33539C18.5735 3.97575 16.7295 3.21191 14.8066 3.21191C12.8838 3.21191 11.0398 3.97575 9.68012 5.33539C8.32048 6.69503 7.55664 8.53909 7.55664 10.4619C7.55664 18.9202 3.93164 21.3369 3.93164 21.3369H25.6816C25.6816 21.3369 22.0566 18.9202 22.0566 10.4619Z" stroke="#E1FF26" stroke-width="2" stroke-linecap="round" stroke-linejoin="round"/>
<path d="M16.8976 26.1699C16.6852 26.5361 16.3803 26.8401 16.0134 27.0514C15.6465 27.2627 15.2306 27.374 14.8072 27.374C14.3838 27.374 13.9679 27.2627 13.601 27.0514C13.2342 26.8401 12.9292 26.5361 12.7168 26.1699" stroke="#E1FF26" stroke-width="2" stroke-linecap="round" stroke-linejoin="round"/>
</svg>
