<svg width="93" height="93" viewBox="0 0 93 93" fill="none" xmlns="http://www.w3.org/2000/svg">
<path d="M62.5237 35.2925C62.5237 31.21 60.8344 27.2947 57.8273 24.4079C54.8203 21.5212 50.7418 19.8994 46.4892 19.8994C42.2366 19.8994 38.1582 21.5212 35.1511 24.4079C32.1441 27.2947 30.4547 31.21 30.4547 35.2925C30.4547 53.2511 22.4375 58.3822 22.4375 58.3822H70.5409C70.5409 58.3822 62.5237 53.2511 62.5237 35.2925Z" stroke="#FCFCD8" stroke-opacity="0.5" stroke-width="2" stroke-linecap="round" stroke-linejoin="round"/>
<path d="M51.2965 71.209C50.8076 72.1844 50.106 72.994 49.2617 73.5568C48.4175 74.1196 47.4604 74.4159 46.4861 74.4159C45.5119 74.4159 44.5547 74.1196 43.7105 73.5568C42.8663 72.994 42.1646 72.1844 41.6758 71.209" stroke="#FCFCD8" stroke-opacity="0.5" stroke-width="2" stroke-linecap="round" stroke-linejoin="round"/>
<path d="M25.612 31.0002C25.2173 30.1907 25.0353 29.2103 25.0842 28.1573C25.1332 27.1044 25.4114 26.0157 25.8909 25.0003C26.3705 23.985 27.0346 23.0786 27.8168 22.3719C28.5989 21.6652 29.4717 21.183 30.3477 20.9736" stroke="#FCFCD8" stroke-opacity="0.2" stroke-linecap="round" stroke-linejoin="round"/>
<path d="M20.5604 26.1702C20.6094 25.1172 20.8876 24.0286 21.3671 23.0132C21.8467 21.9979 22.5108 21.0915 23.293 20.3848" stroke="#FCFCD8" stroke-opacity="0.1" stroke-linecap="round" stroke-linejoin="round"/>
</svg>
