<svg width="22" height="28" viewBox="0 0 22 28" fill="none" xmlns="http://www.w3.org/2000/svg">
<circle cx="10.9057" cy="9.90374" r="3.21429" stroke="#E1FF26"/>
<path d="M9.80939 1.90333C10.4023 1.26897 11.4083 1.26897 12.0012 1.90333L12.7624 2.71785C13.2553 3.24517 13.952 3.53375 14.6733 3.50937L15.7876 3.47171C16.6554 3.44239 17.3667 4.15373 17.3374 5.02152L17.2997 6.13576C17.2753 6.85713 17.5639 7.55383 18.0912 8.04667L18.9057 8.80793C19.5401 9.40081 19.5401 10.4068 18.9057 10.9997L18.0912 11.7609C17.5639 12.2538 17.2753 12.9505 17.2997 13.6719L17.3374 14.7861C17.3667 15.6539 16.6554 16.3652 15.7876 16.3359L14.6733 16.2982C13.952 16.2739 13.2553 16.5625 12.7624 17.0898L12.0012 17.9043C11.4083 18.5386 10.4023 18.5386 9.80939 17.9043L9.04813 17.0898C8.55529 16.5625 7.85859 16.2739 7.13723 16.2982L6.02299 16.3359C5.15519 16.3652 4.44385 15.6539 4.47318 14.7861L4.51084 13.6719C4.53521 12.9505 4.24663 12.2538 3.71931 11.7609L2.9048 10.9997C2.27044 10.4068 2.27044 9.40081 2.9048 8.80793L3.71931 8.04667C4.24663 7.55383 4.53521 6.85713 4.51084 6.13576L4.47318 5.02152C4.44385 4.15373 5.15519 3.44239 6.02299 3.47171L7.13723 3.50937C7.85859 3.53375 8.55529 3.24517 9.04813 2.71785L9.80939 1.90333Z" stroke="#E1FF26"/>
<path d="M4.87578 16.0947L1 22.6979H3.51072C4.33401 22.6979 5.07319 23.2024 5.3732 23.9691L6.1677 25.9995L10.9048 18.1582" stroke="#E1FF26"/>
<path d="M16.9348 16.0947L20.8105 22.6979H18.2998C17.4765 22.6979 16.7374 23.2024 16.4373 23.9691L15.6428 25.9995L10.9058 18.1582" stroke="#E1FF26"/>
</svg>
