<svg width="23" height="21" viewBox="0 0 23 21" fill="none" xmlns="http://www.w3.org/2000/svg">
<path d="M13.6728 12.6143L5.97656 17.1057V20.1149L13.6746 15.6216L13.6728 12.6143Z" fill="#6729FF"/>
<path d="M10.7752 13.4582L3.07898 8.9668L0.5 10.4714L8.19806 14.9647L10.7752 13.4582Z" fill="#6729FF"/>
<path d="M8.60242 11.3457V2.36106L6.02344 0.856445V9.84111L8.60242 11.3457Z" fill="#6729FF"/>
<path d="M9.32802 8.38727L17.0242 3.894V0.884766L9.32617 5.37803L9.32802 8.38727Z" fill="#6729FF"/>
<path d="M12.2246 7.54173L19.9208 12.0331L22.4998 10.5285L14.8017 6.03711L12.2246 7.54173Z" fill="#6729FF"/>
<path d="M14.3965 9.65625V18.639L16.9755 20.1437V11.159L14.3965 9.65625Z" fill="#6729FF"/>
<path d="M13.6728 12.6143L5.97656 17.1057V20.1149L13.6746 15.6216L13.6728 12.6143Z" fill="#6729FF"/>
</svg>
