<svg width="211" height="42" viewBox="0 0 211 42" fill="none" xmlns="http://www.w3.org/2000/svg">
<path d="M17.0164 8.88161V15.2675L32.6064 6.22689V0L17.0164 8.88161Z" fill="#FCFCD8"/>
<path d="M29.7811 9.85449L24.3279 13.0837L39.9234 22.1159L45.2387 18.9676L29.7811 9.85449Z" fill="#FCFCD8"/>
<path d="M5.4532 18.9434L0 22.1725L15.5955 31.2019L20.9108 28.0536L5.4532 18.9434Z" fill="#FCFCD8"/>
<path d="M12.4536 34.8308V41.2195L28.0436 32.1789V25.9492L12.4536 34.8308Z" fill="#FCFCD8"/>
<path d="M15.1958 4.7213L9.6709 1.62598L9.93294 19.7935L15.3199 22.8136L15.1958 4.7213Z" fill="#FCFCD8"/>
<path d="M35.2389 21.4546L29.7112 18.3564L29.9732 36.524L35.3602 39.544L35.2389 21.4546Z" fill="#FCFCD8"/>
<path d="M70.8206 28.3032C69.0405 30.9366 66.1111 32.4976 62.4759 32.4976C56.5047 32.5006 52.2388 28.2677 52.2388 22.2013C52.2388 16.1349 56.5047 11.751 62.5134 11.751C66.0362 11.751 68.9685 13.2765 70.7112 15.9098L67.0011 18.7712C66.0736 17.3227 64.4779 16.3689 62.5508 16.3689C59.3967 16.3689 57.173 18.8097 57.173 22.2043C57.173 25.5988 59.3622 27.8885 62.5134 27.8885C64.4779 27.8885 66.0736 26.9733 67.0011 25.4863L70.8206 28.3092V28.3032Z" fill="#FCFCD8"/>
<path d="M80.0572 11.9395C86.0284 11.9395 90.2195 16.0597 90.2195 22.1617C90.2195 28.2636 86.0284 32.3454 80.0572 32.3454C74.086 32.3454 69.9324 28.2251 69.9324 22.1617C69.9324 16.0983 74.1234 11.9395 80.0572 11.9395ZM80.0572 27.769C83.2113 27.769 85.3976 25.4437 85.3976 22.1617C85.3976 18.8797 83.2084 16.5159 80.0572 16.5159C76.906 16.5159 74.7543 18.8797 74.7543 22.1617C74.7543 25.4437 76.9434 27.769 80.0572 27.769Z" fill="#FCFCD8"/>
<path d="M91.0029 31.7362V3.22595L95.8248 1.85449V14.8789C97.3083 13.0098 99.46 11.9405 102.13 11.9405C106.989 11.9405 109.919 14.9914 109.919 21.2474V30.19L105.097 31.7362V21.591C105.097 18.0809 103.576 16.5169 100.981 16.5169C98.014 16.5169 95.8248 18.9192 95.8248 22.2012V30.193L91.0029 31.7392V31.7362Z" fill="#FCFCD8"/>
<path d="M116.929 31.3932L109.541 13.7983L114.294 12.5127L119.375 25.4808L124.177 14.1211L129.65 12.5127L119.13 37.5396L113.369 39.3642L116.929 31.3932Z" fill="#FCFCD8"/>
<path d="M137.546 30.9871L132.473 32.4238L124.86 13.9017L129.659 12.5095L134.809 26.1707L139.928 13.2026L145.628 11.6416L137.543 30.9901L137.546 30.9871Z" fill="#FCFCD8"/>
<path d="M158.288 19.5439L147.449 22.5534L149.235 26.2798L162.384 22.7756" fill="#FCFCD8"/>
<path d="M153.945 28.5741C151.238 28.5741 149.198 26.9331 148.568 24.4538L148.542 24.2968C148.337 23.109 148.372 21.8886 148.643 20.7156C149.311 18.5029 151.166 17.0159 153.686 17.0159C156.207 17.0159 157.99 18.5414 158.546 20.7156L161.374 23.032L163.324 22.4958C163.324 22.3981 163.33 22.3003 163.33 22.2026C163.33 17.0929 159.807 12.4395 153.611 12.4395C147.415 12.4395 143.524 16.7108 143.524 22.7772C143.524 28.8436 147.678 33.189 153.724 33.189C157.209 33.189 160.251 31.7406 162.031 29.2613L158.508 26.3229C157.506 27.6973 155.947 28.5741 153.945 28.5741Z" fill="#FCFCD8"/>
<path d="M158.511 26.323L158.851 25.7484L163.333 24.7383C163.333 24.7383 163.299 27.5167 162.034 29.2614L158.511 26.323Z" fill="#FCFCD8"/>
<g filter="url(#filter0_b_6426_135871)">
<rect x="173.333" y="10.6094" width="37" height="20" rx="8" fill="#3A3A3A" fill-opacity="0.22"/>
<rect x="173.583" y="10.8594" width="36.5" height="19.5" rx="7.75" stroke="url(#paint0_linear_6426_135871)" stroke-width="0.5"/>
<path d="M181.642 21.4544H183.82L182.749 18.4574H182.731L181.642 21.4544ZM182.281 17.6834H183.226L185.737 24.1094H184.792L184.09 22.1744H181.372L180.652 24.1094H179.779L182.281 17.6834ZM186.29 17.6834H187.055V24.1094H186.29V17.6834ZM188.267 19.4564H189.032V20.0864H189.05C189.176 19.8284 189.374 19.6424 189.644 19.5284C189.914 19.4084 190.211 19.3484 190.535 19.3484C190.895 19.3484 191.207 19.4144 191.471 19.5464C191.741 19.6784 191.963 19.8584 192.137 20.0864C192.317 20.3084 192.452 20.5664 192.542 20.8604C192.632 21.1544 192.677 21.4664 192.677 21.7964C192.677 22.1264 192.632 22.4384 192.542 22.7324C192.458 23.0264 192.326 23.2844 192.146 23.5064C191.972 23.7224 191.75 23.8934 191.48 24.0194C191.216 24.1454 190.907 24.2084 190.553 24.2084C190.439 24.2084 190.31 24.1964 190.166 24.1724C190.028 24.1484 189.89 24.1094 189.752 24.0554C189.614 24.0014 189.482 23.9294 189.356 23.8394C189.236 23.7434 189.134 23.6264 189.05 23.4884H189.032V25.8824H188.267V19.4564ZM191.867 21.7424C191.867 21.5264 191.837 21.3164 191.777 21.1124C191.723 20.9024 191.636 20.7164 191.516 20.5544C191.402 20.3924 191.252 20.2634 191.066 20.1674C190.886 20.0714 190.673 20.0234 190.427 20.0234C190.169 20.0234 189.95 20.0744 189.77 20.1764C189.59 20.2784 189.443 20.4134 189.329 20.5814C189.215 20.7434 189.131 20.9294 189.077 21.1394C189.029 21.3494 189.005 21.5624 189.005 21.7784C189.005 22.0064 189.032 22.2284 189.086 22.4444C189.14 22.6544 189.224 22.8404 189.338 23.0024C189.458 23.1644 189.611 23.2964 189.797 23.3984C189.983 23.4944 190.208 23.5424 190.472 23.5424C190.736 23.5424 190.955 23.4914 191.129 23.3894C191.309 23.2874 191.453 23.1524 191.561 22.9844C191.669 22.8164 191.747 22.6244 191.795 22.4084C191.843 22.1924 191.867 21.9704 191.867 21.7424ZM193.575 17.6834H194.34V20.1404H194.358C194.418 19.9964 194.502 19.8764 194.61 19.7804C194.718 19.6784 194.838 19.5974 194.97 19.5374C195.108 19.4714 195.249 19.4234 195.393 19.3934C195.543 19.3634 195.687 19.3484 195.825 19.3484C196.131 19.3484 196.386 19.3904 196.59 19.4744C196.794 19.5584 196.959 19.6754 197.085 19.8254C197.211 19.9754 197.298 20.1554 197.346 20.3654C197.4 20.5694 197.427 20.7974 197.427 21.0494V24.1094H196.662V20.9594C196.662 20.6714 196.578 20.4434 196.41 20.2754C196.242 20.1074 196.011 20.0234 195.717 20.0234C195.483 20.0234 195.279 20.0594 195.105 20.1314C194.937 20.2034 194.796 20.3054 194.682 20.4374C194.568 20.5694 194.481 20.7254 194.421 20.9054C194.367 21.0794 194.34 21.2714 194.34 21.4814V24.1094H193.575V17.6834ZM202.698 24.0914C202.566 24.1694 202.383 24.2084 202.149 24.2084C201.951 24.2084 201.792 24.1544 201.672 24.0464C201.558 23.9324 201.501 23.7494 201.501 23.4974C201.291 23.7494 201.045 23.9324 200.763 24.0464C200.487 24.1544 200.187 24.2084 199.863 24.2084C199.653 24.2084 199.452 24.1844 199.26 24.1364C199.074 24.0884 198.912 24.0134 198.774 23.9114C198.636 23.8094 198.525 23.6774 198.441 23.5154C198.363 23.3474 198.324 23.1464 198.324 22.9124C198.324 22.6484 198.369 22.4324 198.459 22.2644C198.549 22.0964 198.666 21.9614 198.81 21.8594C198.96 21.7514 199.128 21.6704 199.314 21.6164C199.506 21.5624 199.701 21.5174 199.899 21.4814C200.109 21.4394 200.307 21.4094 200.493 21.3914C200.685 21.3674 200.853 21.3374 200.997 21.3014C201.141 21.2594 201.255 21.2024 201.339 21.1304C201.423 21.0524 201.465 20.9414 201.465 20.7974C201.465 20.6294 201.432 20.4944 201.366 20.3924C201.306 20.2904 201.225 20.2124 201.123 20.1584C201.027 20.1044 200.916 20.0684 200.79 20.0504C200.67 20.0324 200.55 20.0234 200.43 20.0234C200.106 20.0234 199.836 20.0864 199.62 20.2124C199.404 20.3324 199.287 20.5634 199.269 20.9054H198.504C198.516 20.6174 198.576 20.3744 198.684 20.1764C198.792 19.9784 198.936 19.8194 199.116 19.6994C199.296 19.5734 199.5 19.4834 199.728 19.4294C199.962 19.3754 200.211 19.3484 200.475 19.3484C200.685 19.3484 200.892 19.3634 201.096 19.3934C201.306 19.4234 201.495 19.4864 201.663 19.5824C201.831 19.6724 201.966 19.8014 202.068 19.9694C202.17 20.1374 202.221 20.3564 202.221 20.6264V23.0204C202.221 23.2004 202.23 23.3324 202.248 23.4164C202.272 23.5004 202.344 23.5424 202.464 23.5424C202.53 23.5424 202.608 23.5274 202.698 23.4974V24.0914ZM201.456 21.7064C201.36 21.7784 201.234 21.8324 201.078 21.8684C200.922 21.8984 200.757 21.9254 200.583 21.9494C200.415 21.9674 200.244 21.9914 200.07 22.0214C199.896 22.0454 199.74 22.0874 199.602 22.1474C199.464 22.2074 199.35 22.2944 199.26 22.4084C199.176 22.5164 199.134 22.6664 199.134 22.8584C199.134 22.9844 199.158 23.0924 199.206 23.1824C199.26 23.2664 199.326 23.3354 199.404 23.3894C199.488 23.4434 199.584 23.4824 199.692 23.5064C199.8 23.5304 199.914 23.5424 200.034 23.5424C200.286 23.5424 200.502 23.5094 200.682 23.4434C200.862 23.3714 201.009 23.2844 201.123 23.1824C201.237 23.0744 201.321 22.9604 201.375 22.8404C201.429 22.7144 201.456 22.5974 201.456 22.4894V21.7064Z" fill="url(#paint1_linear_6426_135871)"/>
</g>
<defs>
<filter id="filter0_b_6426_135871" x="169.333" y="6.60938" width="45" height="28" filterUnits="userSpaceOnUse" color-interpolation-filters="sRGB">
<feFlood flood-opacity="0" result="BackgroundImageFix"/>
<feGaussianBlur in="BackgroundImageFix" stdDeviation="2"/>
<feComposite in2="SourceAlpha" operator="in" result="effect1_backgroundBlur_6426_135871"/>
<feBlend mode="normal" in="SourceGraphic" in2="effect1_backgroundBlur_6426_135871" result="shape"/>
</filter>
<linearGradient id="paint0_linear_6426_135871" x1="174.919" y1="-1.05729" x2="217.75" y2="31.857" gradientUnits="userSpaceOnUse">
<stop stop-color="#3E3D3D" stop-opacity="0.33"/>
<stop offset="1" stop-color="#A4A3A3" stop-opacity="0.59"/>
</linearGradient>
<linearGradient id="paint1_linear_6426_135871" x1="177.547" y1="17.3094" x2="204.806" y2="25.5696" gradientUnits="userSpaceOnUse">
<stop stop-color="#A15FFF"/>
<stop offset="1" stop-color="#FF8E8E"/>
</linearGradient>
</defs>
</svg>
