<svg width="157" height="47" viewBox="0 0 157 47" fill="none" xmlns="http://www.w3.org/2000/svg">
<g filter="url(#filter0_b_4920_93029)">
<rect width="157" height="47" rx="15" fill="#0D0E0E" fill-opacity="0.79"/>
<rect x="0.5" y="0.5" width="156" height="46" rx="14.5" stroke="white" stroke-opacity="0.09"/>
</g>
<path d="M49.7 21.515C49.54 20.755 49.185 20.185 48.635 19.805C48.095 19.425 47.45 19.235 46.7 19.235C46.06 19.235 45.51 19.355 45.05 19.595C44.6 19.835 44.225 20.16 43.925 20.57C43.635 20.97 43.42 21.43 43.28 21.95C43.14 22.47 43.07 23.01 43.07 23.57C43.07 24.18 43.14 24.76 43.28 25.31C43.42 25.85 43.635 26.325 43.925 26.735C44.225 27.135 44.605 27.455 45.065 27.695C45.525 27.935 46.075 28.055 46.715 28.055C47.185 28.055 47.6 27.98 47.96 27.83C48.33 27.67 48.645 27.455 48.905 27.185C49.175 26.905 49.385 26.575 49.535 26.195C49.685 25.815 49.775 25.405 49.805 24.965H51.23C51.09 26.315 50.625 27.365 49.835 28.115C49.045 28.865 47.965 29.24 46.595 29.24C45.765 29.24 45.04 29.1 44.42 28.82C43.8 28.53 43.285 28.135 42.875 27.635C42.465 27.135 42.155 26.545 41.945 25.865C41.745 25.185 41.645 24.455 41.645 23.675C41.645 22.895 41.755 22.165 41.975 21.485C42.195 20.795 42.515 20.195 42.935 19.685C43.365 19.175 43.895 18.775 44.525 18.485C45.165 18.185 45.895 18.035 46.715 18.035C47.275 18.035 47.805 18.11 48.305 18.26C48.805 18.41 49.25 18.63 49.64 18.92C50.03 19.21 50.355 19.575 50.615 20.015C50.875 20.445 51.045 20.945 51.125 21.515H49.7ZM52.2902 21.245H53.4902V22.88H53.5202C53.8302 22.25 54.2102 21.785 54.6602 21.485C55.1102 21.185 55.6802 21.045 56.3702 21.065V22.415C55.8602 22.415 55.4252 22.485 55.0652 22.625C54.7052 22.765 54.4152 22.97 54.1952 23.24C53.9752 23.51 53.8152 23.84 53.7152 24.23C53.6152 24.61 53.5652 25.05 53.5652 25.55V29H52.2902V21.245ZM62.0016 24.38C61.9816 24.08 61.9116 23.795 61.7916 23.525C61.6816 23.255 61.5266 23.025 61.3266 22.835C61.1366 22.635 60.9066 22.48 60.6366 22.37C60.3766 22.25 60.0866 22.19 59.7666 22.19C59.4366 22.19 59.1366 22.25 58.8666 22.37C58.6066 22.48 58.3816 22.635 58.1916 22.835C58.0016 23.035 57.8516 23.27 57.7416 23.54C57.6316 23.8 57.5666 24.08 57.5466 24.38H62.0016ZM63.2316 26.54C63.0616 27.41 62.6866 28.065 62.1066 28.505C61.5266 28.945 60.7966 29.165 59.9166 29.165C59.2966 29.165 58.7566 29.065 58.2966 28.865C57.8466 28.665 57.4666 28.385 57.1566 28.025C56.8466 27.665 56.6116 27.235 56.4516 26.735C56.3016 26.235 56.2166 25.69 56.1966 25.1C56.1966 24.51 56.2866 23.97 56.4666 23.48C56.6466 22.99 56.8966 22.565 57.2166 22.205C57.5466 21.845 57.9316 21.565 58.3716 21.365C58.8216 21.165 59.3116 21.065 59.8416 21.065C60.5316 21.065 61.1016 21.21 61.5516 21.5C62.0116 21.78 62.3766 22.14 62.6466 22.58C62.9266 23.02 63.1166 23.5 63.2166 24.02C63.3266 24.54 63.3716 25.035 63.3516 25.505H57.5466C57.5366 25.845 57.5766 26.17 57.6666 26.48C57.7566 26.78 57.9016 27.05 58.1016 27.29C58.3016 27.52 58.5566 27.705 58.8666 27.845C59.1766 27.985 59.5416 28.055 59.9616 28.055C60.5016 28.055 60.9416 27.93 61.2816 27.68C61.6316 27.43 61.8616 27.05 61.9716 26.54H63.2316ZM71.0933 28.97C70.8733 29.1 70.5683 29.165 70.1783 29.165C69.8483 29.165 69.5833 29.075 69.3833 28.895C69.1933 28.705 69.0983 28.4 69.0983 27.98C68.7483 28.4 68.3383 28.705 67.8683 28.895C67.4083 29.075 66.9083 29.165 66.3683 29.165C66.0183 29.165 65.6833 29.125 65.3633 29.045C65.0533 28.965 64.7833 28.84 64.5533 28.67C64.3233 28.5 64.1383 28.28 63.9983 28.01C63.8683 27.73 63.8033 27.395 63.8033 27.005C63.8033 26.565 63.8783 26.205 64.0283 25.925C64.1783 25.645 64.3733 25.42 64.6133 25.25C64.8633 25.07 65.1433 24.935 65.4533 24.845C65.7733 24.755 66.0983 24.68 66.4283 24.62C66.7783 24.55 67.1083 24.5 67.4183 24.47C67.7383 24.43 68.0183 24.38 68.2583 24.32C68.4983 24.25 68.6883 24.155 68.8283 24.035C68.9683 23.905 69.0383 23.72 69.0383 23.48C69.0383 23.2 68.9833 22.975 68.8733 22.805C68.7733 22.635 68.6383 22.505 68.4683 22.415C68.3083 22.325 68.1233 22.265 67.9133 22.235C67.7133 22.205 67.5133 22.19 67.3133 22.19C66.7733 22.19 66.3233 22.295 65.9633 22.505C65.6033 22.705 65.4083 23.09 65.3783 23.66H64.1033C64.1233 23.18 64.2233 22.775 64.4033 22.445C64.5833 22.115 64.8233 21.85 65.1233 21.65C65.4233 21.44 65.7633 21.29 66.1433 21.2C66.5333 21.11 66.9483 21.065 67.3883 21.065C67.7383 21.065 68.0833 21.09 68.4233 21.14C68.7733 21.19 69.0883 21.295 69.3683 21.455C69.6483 21.605 69.8733 21.82 70.0433 22.1C70.2133 22.38 70.2983 22.745 70.2983 23.195V27.185C70.2983 27.485 70.3133 27.705 70.3433 27.845C70.3833 27.985 70.5033 28.055 70.7033 28.055C70.8133 28.055 70.9433 28.03 71.0933 27.98V28.97ZM69.0233 24.995C68.8633 25.115 68.6533 25.205 68.3933 25.265C68.1333 25.315 67.8583 25.36 67.5683 25.4C67.2883 25.43 67.0033 25.47 66.7133 25.52C66.4233 25.56 66.1633 25.63 65.9333 25.73C65.7033 25.83 65.5133 25.975 65.3633 26.165C65.2233 26.345 65.1533 26.595 65.1533 26.915C65.1533 27.125 65.1933 27.305 65.2733 27.455C65.3633 27.595 65.4733 27.71 65.6033 27.8C65.7433 27.89 65.9033 27.955 66.0833 27.995C66.2633 28.035 66.4533 28.055 66.6533 28.055C67.0733 28.055 67.4333 28 67.7333 27.89C68.0333 27.77 68.2783 27.625 68.4683 27.455C68.6583 27.275 68.7983 27.085 68.8883 26.885C68.9783 26.675 69.0233 26.48 69.0233 26.3V24.995ZM73.5999 21.245H75.1449V22.37H73.5999V27.185C73.5999 27.335 73.6099 27.455 73.6299 27.545C73.6599 27.635 73.7099 27.705 73.7799 27.755C73.8499 27.805 73.9449 27.84 74.0649 27.86C74.1949 27.87 74.3599 27.875 74.5599 27.875H75.1449V29H74.1699C73.8399 29 73.5549 28.98 73.3149 28.94C73.0849 28.89 72.8949 28.805 72.7449 28.685C72.6049 28.565 72.4999 28.395 72.4299 28.175C72.3599 27.955 72.3249 27.665 72.3249 27.305V22.37H71.0049V21.245H72.3249V18.92H73.5999V21.245ZM81.4964 24.38C81.4764 24.08 81.4064 23.795 81.2864 23.525C81.1764 23.255 81.0214 23.025 80.8214 22.835C80.6314 22.635 80.4014 22.48 80.1314 22.37C79.8714 22.25 79.5814 22.19 79.2614 22.19C78.9314 22.19 78.6314 22.25 78.3614 22.37C78.1014 22.48 77.8764 22.635 77.6864 22.835C77.4964 23.035 77.3464 23.27 77.2364 23.54C77.1264 23.8 77.0614 24.08 77.0414 24.38H81.4964ZM82.7264 26.54C82.5564 27.41 82.1814 28.065 81.6014 28.505C81.0214 28.945 80.2914 29.165 79.4114 29.165C78.7914 29.165 78.2514 29.065 77.7914 28.865C77.3414 28.665 76.9614 28.385 76.6514 28.025C76.3414 27.665 76.1064 27.235 75.9464 26.735C75.7964 26.235 75.7114 25.69 75.6914 25.1C75.6914 24.51 75.7814 23.97 75.9614 23.48C76.1414 22.99 76.3914 22.565 76.7114 22.205C77.0414 21.845 77.4264 21.565 77.8664 21.365C78.3164 21.165 78.8064 21.065 79.3364 21.065C80.0264 21.065 80.5964 21.21 81.0464 21.5C81.5064 21.78 81.8714 22.14 82.1414 22.58C82.4214 23.02 82.6114 23.5 82.7114 24.02C82.8214 24.54 82.8664 25.035 82.8464 25.505H77.0414C77.0314 25.845 77.0714 26.17 77.1614 26.48C77.2514 26.78 77.3964 27.05 77.5964 27.29C77.7964 27.52 78.0514 27.705 78.3614 27.845C78.6714 27.985 79.0364 28.055 79.4564 28.055C79.9964 28.055 80.4364 27.93 80.7764 27.68C81.1264 27.43 81.3564 27.05 81.4664 26.54H82.7264ZM89.0778 23.42H91.8678C92.6778 23.43 93.2678 23.265 93.6378 22.925C94.0178 22.585 94.2078 22.095 94.2078 21.455C94.2078 20.815 94.0178 20.33 93.6378 20C93.2678 19.66 92.6778 19.49 91.8678 19.49H89.0778V23.42ZM87.6528 18.29H92.3478C93.4278 18.29 94.2428 18.57 94.7928 19.13C95.3528 19.68 95.6328 20.455 95.6328 21.455C95.6328 22.455 95.3528 23.235 94.7928 23.795C94.2428 24.355 93.4278 24.63 92.3478 24.62H89.0778V29H87.6528V18.29ZM96.6744 21.245H97.8744V22.88H97.9044C98.2144 22.25 98.5944 21.785 99.0444 21.485C99.4944 21.185 100.064 21.045 100.754 21.065V22.415C100.244 22.415 99.8094 22.485 99.4494 22.625C99.0894 22.765 98.7994 22.97 98.5794 23.24C98.3594 23.51 98.1994 23.84 98.0994 24.23C97.9994 24.61 97.9494 25.05 97.9494 25.55V29H96.6744V21.245ZM101.931 25.13C101.931 25.6 101.991 26.02 102.111 26.39C102.241 26.75 102.416 27.055 102.636 27.305C102.856 27.545 103.111 27.73 103.401 27.86C103.701 27.99 104.016 28.055 104.346 28.055C104.676 28.055 104.986 27.99 105.276 27.86C105.576 27.73 105.836 27.545 106.056 27.305C106.276 27.055 106.446 26.75 106.566 26.39C106.696 26.02 106.761 25.6 106.761 25.13C106.761 24.66 106.696 24.245 106.566 23.885C106.446 23.515 106.276 23.205 106.056 22.955C105.836 22.705 105.576 22.515 105.276 22.385C104.986 22.255 104.676 22.19 104.346 22.19C104.016 22.19 103.701 22.255 103.401 22.385C103.111 22.515 102.856 22.705 102.636 22.955C102.416 23.205 102.241 23.515 102.111 23.885C101.991 24.245 101.931 24.66 101.931 25.13ZM100.581 25.13C100.581 24.56 100.661 24.03 100.821 23.54C100.981 23.04 101.221 22.61 101.541 22.25C101.861 21.88 102.256 21.59 102.726 21.38C103.196 21.17 103.736 21.065 104.346 21.065C104.966 21.065 105.506 21.17 105.966 21.38C106.436 21.59 106.831 21.88 107.151 22.25C107.471 22.61 107.711 23.04 107.871 23.54C108.031 24.03 108.111 24.56 108.111 25.13C108.111 25.7 108.031 26.23 107.871 26.72C107.711 27.21 107.471 27.64 107.151 28.01C106.831 28.37 106.436 28.655 105.966 28.865C105.506 29.065 104.966 29.165 104.346 29.165C103.736 29.165 103.196 29.065 102.726 28.865C102.256 28.655 101.861 28.37 101.541 28.01C101.221 27.64 100.981 27.21 100.821 26.72C100.661 26.23 100.581 25.7 100.581 25.13ZM110.514 19.85H109.239V18.29H110.514V19.85ZM110.514 29.975C110.514 30.665 110.344 31.165 110.004 31.475C109.674 31.795 109.224 31.955 108.654 31.955C108.424 31.955 108.209 31.935 108.009 31.895V30.8C108.059 30.81 108.104 30.815 108.144 30.815C108.174 30.825 108.209 30.83 108.249 30.83H108.519C108.799 30.83 108.989 30.75 109.089 30.59C109.189 30.44 109.239 30.165 109.239 29.765V21.245H110.514V29.975ZM117.424 24.38C117.404 24.08 117.334 23.795 117.214 23.525C117.104 23.255 116.949 23.025 116.749 22.835C116.559 22.635 116.329 22.48 116.059 22.37C115.799 22.25 115.509 22.19 115.189 22.19C114.859 22.19 114.559 22.25 114.289 22.37C114.029 22.48 113.804 22.635 113.614 22.835C113.424 23.035 113.274 23.27 113.164 23.54C113.054 23.8 112.989 24.08 112.969 24.38H117.424ZM118.654 26.54C118.484 27.41 118.109 28.065 117.529 28.505C116.949 28.945 116.219 29.165 115.339 29.165C114.719 29.165 114.179 29.065 113.719 28.865C113.269 28.665 112.889 28.385 112.579 28.025C112.269 27.665 112.034 27.235 111.874 26.735C111.724 26.235 111.639 25.69 111.619 25.1C111.619 24.51 111.709 23.97 111.889 23.48C112.069 22.99 112.319 22.565 112.639 22.205C112.969 21.845 113.354 21.565 113.794 21.365C114.244 21.165 114.734 21.065 115.264 21.065C115.954 21.065 116.524 21.21 116.974 21.5C117.434 21.78 117.799 22.14 118.069 22.58C118.349 23.02 118.539 23.5 118.639 24.02C118.749 24.54 118.794 25.035 118.774 25.505H112.969C112.959 25.845 112.999 26.17 113.089 26.48C113.179 26.78 113.324 27.05 113.524 27.29C113.724 27.52 113.979 27.705 114.289 27.845C114.599 27.985 114.964 28.055 115.384 28.055C115.924 28.055 116.364 27.93 116.704 27.68C117.054 27.43 117.284 27.05 117.394 26.54H118.654ZM124.911 23.735C124.811 23.245 124.601 22.865 124.281 22.595C123.961 22.325 123.531 22.19 122.991 22.19C122.531 22.19 122.146 22.275 121.836 22.445C121.526 22.615 121.276 22.84 121.086 23.12C120.906 23.4 120.776 23.725 120.696 24.095C120.616 24.455 120.576 24.83 120.576 25.22C120.576 25.58 120.616 25.93 120.696 26.27C120.786 26.61 120.921 26.915 121.101 27.185C121.281 27.445 121.516 27.655 121.806 27.815C122.096 27.975 122.441 28.055 122.841 28.055C123.471 28.055 123.961 27.89 124.311 27.56C124.671 27.23 124.891 26.765 124.971 26.165H126.276C126.136 27.125 125.776 27.865 125.196 28.385C124.626 28.905 123.846 29.165 122.856 29.165C122.266 29.165 121.741 29.07 121.281 28.88C120.831 28.69 120.451 28.42 120.141 28.07C119.841 27.72 119.611 27.305 119.451 26.825C119.301 26.335 119.226 25.8 119.226 25.22C119.226 24.64 119.301 24.1 119.451 23.6C119.601 23.09 119.826 22.65 120.126 22.28C120.436 21.9 120.821 21.605 121.281 21.395C121.741 21.175 122.276 21.065 122.886 21.065C123.326 21.065 123.736 21.12 124.116 21.23C124.506 21.33 124.846 21.49 125.136 21.71C125.436 21.93 125.681 22.21 125.871 22.55C126.061 22.88 126.181 23.275 126.231 23.735H124.911ZM129.023 21.245H130.568V22.37H129.023V27.185C129.023 27.335 129.033 27.455 129.053 27.545C129.083 27.635 129.133 27.705 129.203 27.755C129.273 27.805 129.368 27.84 129.488 27.86C129.618 27.87 129.783 27.875 129.983 27.875H130.568V29H129.593C129.263 29 128.978 28.98 128.738 28.94C128.508 28.89 128.318 28.805 128.168 28.685C128.028 28.565 127.923 28.395 127.853 28.175C127.783 27.955 127.748 27.665 127.748 27.305V22.37H126.428V21.245H127.748V18.92H129.023V21.245Z" fill="#E1FF26"/>
<path d="M30.5 18V29" stroke="#E1FF26" stroke-width="1.5" stroke-linecap="round" stroke-linejoin="round"/>
<path d="M25 23.5H36" stroke="#E1FF26" stroke-width="1.5" stroke-linecap="round" stroke-linejoin="round"/>
<defs>
<filter id="filter0_b_4920_93029" x="-13.1" y="-13.1" width="183.2" height="73.2" filterUnits="userSpaceOnUse" color-interpolation-filters="sRGB">
<feFlood flood-opacity="0" result="BackgroundImageFix"/>
<feGaussianBlur in="BackgroundImageFix" stdDeviation="6.55"/>
<feComposite in2="SourceAlpha" operator="in" result="effect1_backgroundBlur_4920_93029"/>
<feBlend mode="normal" in="SourceGraphic" in2="effect1_backgroundBlur_4920_93029" result="shape"/>
</filter>
</defs>
</svg>
