<svg width="22" height="22" viewBox="0 0 22 22" fill="none" xmlns="http://www.w3.org/2000/svg">
<path d="M21 4.5C21 4.5 21 17.0311 21 18C21 19.6568 16.5229 21 11 21C5.47715 21 1.00002 19.6568 1.00002 18C1.00002 17.0712 1 4.5 1 4.5" stroke="#E1FF26" stroke-linecap="round" stroke-linejoin="round"/>
<path d="M21 13.5C21 15.1568 16.5229 16.5 11 16.5C5.47715 16.5 1 15.1568 1 13.5" stroke="#E1FF26" stroke-linecap="round" stroke-linejoin="round"/>
<path d="M21 9C21 10.6568 16.5229 12 11 12C5.47715 12 1 10.6568 1 9" stroke="#E1FF26" stroke-linecap="round" stroke-linejoin="round"/>
<path d="M11 7C16.5228 7 21 5.65685 21 4C21 2.34315 16.5228 1 11 1C5.47715 1 1 2.34315 1 4C1 5.65685 5.47715 7 11 7Z" stroke="#E1FF26" stroke-linecap="round" stroke-linejoin="round"/>
</svg>
