<svg width="61" height="27" viewBox="0 0 61 27" fill="none" xmlns="http://www.w3.org/2000/svg">
<path d="M14.7451 7.87604C14.6382 8.81435 14.3056 9.62035 13.7592 10.294C13.2129 10.9556 12.4646 11.4729 11.5262 11.8218C10.5879 12.1706 9.4595 12.3511 8.16483 12.3511C7.07207 12.3511 6.08622 12.2188 5.18351 11.9661C4.2808 11.7135 3.50875 11.3286 2.85547 10.8233C2.2022 10.3181 1.70333 9.68049 1.347 8.92262C0.990667 8.16475 0.8125 7.28658 0.8125 6.26406C0.8125 5.24153 0.990667 4.36336 1.347 3.59346C1.70333 2.82356 2.21408 2.19802 2.85547 1.68074C3.50875 1.16346 4.2808 0.77851 5.18351 0.513856C6.08622 0.249203 7.08395 0.128906 8.16483 0.128906C9.47138 0.128906 10.5879 0.309352 11.5381 0.670243C12.4883 1.03113 13.2366 1.54841 13.783 2.22207C14.3294 2.89574 14.6501 3.70173 14.7451 4.66411H12.3814C12.227 4.15886 11.9657 3.71376 11.5975 3.35287C11.2293 2.97995 10.7661 2.70326 10.1959 2.51079C9.62579 2.31831 8.93688 2.22207 8.15295 2.22207C7.16709 2.22207 6.3119 2.37846 5.57548 2.6792C4.83906 2.99198 4.25705 3.43707 3.8532 4.03856C3.44936 4.64005 3.24744 5.37386 3.24744 6.26406C3.24744 7.15425 3.44936 7.86401 3.8532 8.46549C4.25705 9.06698 4.82718 9.51208 5.57548 9.81282C6.3119 10.1256 7.17897 10.2699 8.15295 10.2699C8.93688 10.2699 9.61391 10.1737 10.184 9.98124C10.7542 9.78876 11.2174 9.51208 11.5856 9.15119C11.9538 8.79029 12.2151 8.36926 12.3814 7.87604H14.7451Z" fill="#E1FF26"/>
<path d="M23.9633 12.3387C22.4192 12.3387 21.1008 12.0982 20.008 11.6049C18.9153 11.1117 18.0838 10.414 17.5018 9.51177C16.9198 8.60954 16.6348 7.51484 16.6348 6.25172C16.6348 4.9886 16.9198 3.86983 17.5018 2.96761C18.0838 2.06538 18.9153 1.36766 20.008 0.874437C21.1008 0.381219 22.4192 0.140625 23.9633 0.140625V2.22176C23.025 2.22176 22.1817 2.36612 21.4334 2.66686C20.6969 2.96761 20.1149 3.41271 19.6992 4.00216C19.2835 4.59162 19.0697 5.34949 19.0697 6.25172C19.0697 7.15394 19.2835 7.91182 19.6992 8.50127C20.1149 9.09073 20.6969 9.53583 21.4334 9.82454C22.1698 10.1133 23.0131 10.2576 23.9633 10.2576V12.3387Z" fill="#E1FF26"/>
<path d="M39.5703 0.128906C41.1144 0.128906 42.4329 0.3695 43.5256 0.862718C44.6184 1.35594 45.4498 2.05366 46.0318 2.95589C46.6138 3.85812 46.8989 4.95282 46.8989 6.21594C46.8989 7.47906 46.6138 8.59782 46.0318 9.50005C45.4498 10.4023 44.6184 11.1 43.5256 11.5932C42.4329 12.0864 41.1144 12.327 39.5703 12.327V10.2459C40.5087 10.2459 41.352 10.1015 42.1003 9.80079C42.8367 9.50005 43.4187 9.05495 43.8344 8.46549C44.2501 7.87604 44.4639 7.11817 44.4639 6.21594C44.4639 5.31371 44.2501 4.55584 43.8344 3.96638C43.4187 3.37693 42.8367 2.93183 42.1003 2.64311C41.3638 2.3544 40.5205 2.21005 39.5703 2.21005V0.128906Z" fill="#E1FF26"/>
<path d="M8.11763 26.7743C6.57352 26.7743 5.2551 26.5337 4.16234 26.0405C3.06959 25.5473 2.23815 24.8495 1.65614 23.9473C1.07413 23.0451 0.789062 21.9504 0.789062 20.6873C0.789062 19.4241 1.07413 18.3054 1.65614 17.4032C2.23815 16.5009 3.06959 15.8032 4.16234 15.31C5.2551 14.8168 6.57352 14.5762 8.11763 14.5762C9.66174 14.5762 10.992 14.8168 12.0729 15.31C13.1538 15.8032 13.9971 16.5009 14.5672 17.4032C15.1374 18.3054 15.4343 19.4001 15.4343 20.6873C15.4343 21.9744 15.1493 23.0451 14.5672 23.9473C13.9852 24.8495 13.1538 25.5473 12.0729 26.0405C10.992 26.5337 9.66174 26.7743 8.11763 26.7743ZM8.11763 24.6811C9.06785 24.6811 9.91117 24.5368 10.6357 24.2481C11.3603 23.9593 11.9304 23.5142 12.3342 22.9248C12.7381 22.3353 12.9519 21.5775 12.9519 20.6752C12.9519 19.773 12.75 19.0151 12.3342 18.4257C11.9185 17.8362 11.3484 17.3911 10.6357 17.0904C9.91117 16.7896 9.06785 16.6453 8.11763 16.6453C7.16741 16.6453 6.33597 16.7896 5.58767 17.0904C4.85125 17.3911 4.26924 17.8362 3.85352 18.4257C3.4378 19.0151 3.224 19.773 3.224 20.6752C3.224 21.5775 3.4378 22.3353 3.85352 22.9248C4.26924 23.5142 4.85125 23.9593 5.58767 24.2481C6.32409 24.5368 7.16741 24.6811 8.11763 24.6811Z" fill="#E1FF26"/>
<path d="M16.6935 26.534L22.1335 14.793H24.711L30.2104 26.534H27.6092L22.8462 15.9599H23.9865L19.2591 26.534H16.6816H16.6935ZM19.5798 23.9716V21.9627H27.2528V23.9716H19.5798Z" fill="#E1FF26"/>
<path d="M30.9707 22.5765H33.3938C33.4413 22.9856 33.6313 23.3585 33.952 23.6953C34.2846 24.0321 34.7122 24.2848 35.2467 24.4772C35.7812 24.6697 36.387 24.7539 37.0521 24.7539C37.6579 24.7539 38.1568 24.6817 38.5606 24.5494C38.9526 24.4171 39.2495 24.2246 39.4396 23.984C39.6296 23.7434 39.7246 23.4547 39.7246 23.1179C39.7246 22.7811 39.6058 22.5405 39.3683 22.36C39.1307 22.1796 38.7506 22.0352 38.2399 21.9269C37.7292 21.8066 37.0521 21.6984 36.2207 21.5781C35.5674 21.4818 34.9379 21.3495 34.3559 21.1691C33.7739 20.9886 33.2513 20.7721 32.8118 20.4834C32.3723 20.1947 32.016 19.8578 31.7547 19.4609C31.4933 19.0518 31.3746 18.5707 31.3746 18.0173C31.3746 17.3316 31.5646 16.7181 31.9566 16.2008C32.3485 15.6835 32.9187 15.2745 33.6907 14.9858C34.4628 14.6971 35.3892 14.5527 36.5058 14.5527C38.1805 14.5527 39.4633 14.9136 40.366 15.6354C41.2687 16.3572 41.7082 17.3436 41.6845 18.6067H39.3564C39.3089 17.897 39.012 17.3797 38.4656 17.0669C37.9192 16.7542 37.2422 16.5978 36.4107 16.5978C35.6506 16.5978 35.021 16.7181 34.5222 16.9466C34.0233 17.1752 33.7739 17.5722 33.7739 18.1256C33.7739 18.3421 33.8333 18.5346 33.952 18.703C34.0708 18.8714 34.2727 19.0037 34.5578 19.124C34.8429 19.2443 35.2348 19.3646 35.7218 19.4729C36.2088 19.5812 36.8146 19.6894 37.551 19.7977C38.228 19.8939 38.8457 20.0263 39.4039 20.1826C39.9622 20.339 40.4373 20.5556 40.8411 20.8202C41.245 21.0849 41.5538 21.4097 41.7676 21.8066C41.9814 22.2036 42.0883 22.6968 42.0883 23.2743C42.0883 23.984 41.9101 24.6096 41.5419 25.1389C41.1737 25.6682 40.6155 26.0772 39.8553 26.3659C39.0951 26.6546 38.1211 26.799 36.9096 26.799C36.0544 26.799 35.2942 26.7027 34.6291 26.5223C33.9758 26.3298 33.4057 26.0892 32.9306 25.7644C32.4554 25.4516 32.0635 25.1028 31.7665 24.7299C31.4696 24.3569 31.2558 23.984 31.1251 23.5991C30.9945 23.2262 30.947 22.8893 30.9707 22.5886V22.5765Z" fill="#E1FF26"/>
<path d="M44.5098 14.793H46.8972V26.534H44.5098V14.793Z" fill="#E1FF26"/>
<path d="M49.2032 22.5765H51.6262C51.6737 22.9856 51.8638 23.3585 52.1845 23.6953C52.517 24.0321 52.9446 24.2848 53.4791 24.4772C54.0136 24.6697 54.6194 24.7539 55.2846 24.7539C55.8903 24.7539 56.3892 24.6817 56.793 24.5494C57.185 24.4171 57.4819 24.2246 57.672 23.984C57.862 23.7434 57.9571 23.4547 57.9571 23.1179C57.9571 22.7811 57.8383 22.5405 57.6007 22.36C57.3632 22.1796 56.9831 22.0352 56.4723 21.9269C55.9616 21.8066 55.2846 21.6984 54.4531 21.5781C53.7998 21.4818 53.1703 21.3495 52.5883 21.1691C52.0063 20.9886 51.4837 20.7721 51.0442 20.4834C50.6047 20.1947 50.2484 19.8578 49.9871 19.4609C49.7258 19.0518 49.607 18.5707 49.607 18.0173C49.607 17.3316 49.797 16.7181 50.189 16.2008C50.581 15.6835 51.1511 15.2745 51.9232 14.9858C52.6952 14.6971 53.6217 14.5527 54.7382 14.5527C56.4129 14.5527 57.6957 14.9136 58.5985 15.6354C59.5012 16.3572 59.9406 17.3436 59.9169 18.6067H57.5888C57.5413 17.897 57.2444 17.3797 56.698 17.0669C56.1516 16.7542 55.4746 16.5978 54.6432 16.5978C53.883 16.5978 53.2535 16.7181 52.7546 16.9466C52.2557 17.1752 52.0063 17.5722 52.0063 18.1256C52.0063 18.3421 52.0657 18.5346 52.1845 18.703C52.3032 18.8714 52.5052 19.0037 52.7902 19.124C53.0753 19.2443 53.4673 19.3646 53.9542 19.4729C54.4412 19.5812 55.047 19.6894 55.7834 19.7977C56.4605 19.8939 57.0781 20.0263 57.6363 20.1826C58.1946 20.339 58.6697 20.5556 59.0736 20.8202C59.4774 21.0849 59.7862 21.4097 60 21.8066C60.2138 22.2036 60.3207 22.6968 60.3207 23.2743C60.3207 23.984 60.1426 24.6096 59.7743 25.1389C59.4061 25.6682 58.8479 26.0772 58.0877 26.3659C57.3275 26.6546 56.3536 26.799 55.142 26.799C54.2868 26.799 53.5267 26.7027 52.8615 26.5223C52.2082 26.3298 51.6381 26.0892 51.163 25.7644C50.6879 25.4516 50.2959 25.1028 49.999 24.7299C49.702 24.3569 49.4882 23.984 49.3576 23.5991C49.2269 23.2262 49.1794 22.8893 49.2032 22.5886V22.5765Z" fill="#E1FF26"/>
<path d="M39.7596 0.128906H23.7246V2.22207H39.7596V0.128906Z" fill="#E1FF26"/>
<path d="M39.7596 10.2461H23.7246V12.3393H39.7596V10.2461Z" fill="#E1FF26"/>
</svg>
