<svg width="38" height="38" viewBox="0 0 38 38" fill="none" xmlns="http://www.w3.org/2000/svg">
<g clip-path="url(#clip0_3724_39153)">
<rect x="0.703125" width="37" height="38" rx="18.5" fill="#E0E0E0"/>
<g clip-path="url(#clip1_3724_39153)">
<rect width="37" height="38" transform="translate(0.703125)" fill="#DEDAF9"/>
<path d="M16.3278 16.9574C16.3278 17.2199 16.1204 17.4329 15.8648 17.4329C15.8309 17.4329 15.7973 17.4284 15.765 17.4214C15.6286 17.3904 15.5155 17.2981 15.4531 17.1735C15.4208 17.1085 15.4023 17.0352 15.4023 16.9574C15.4023 16.695 15.6097 16.4824 15.8648 16.4824C16.12 16.4824 16.3278 16.695 16.3278 16.9574Z" fill="#FFAC00"/>
<path d="M22.4356 26.5498L22.3814 27.1684L22.2227 27.0235C22.3096 26.8666 22.3793 26.7067 22.4356 26.5498Z" fill="#DD920B"/>
<path d="M26.2713 9.53635C26.2713 9.23456 26.1143 9.00789 25.9869 8.87312C25.8996 8.78121 25.826 8.73217 25.826 8.73217C25.826 8.73217 25.9099 8.323 25.9099 7.73842C25.9099 6.90993 25.7413 5.72972 24.9247 4.865C24.8847 4.82258 24.8429 4.78105 24.7995 4.73996C23.8125 3.80851 22.7206 3.4263 21.8791 3.88893H21.8786C21.5331 4.07893 21.2298 4.41121 20.9932 4.90654H20.9928C20.9885 4.89991 20.9381 4.82921 20.8521 4.7373C20.8482 4.73333 20.8439 4.72891 20.8396 4.72449C20.8353 4.71963 20.831 4.71521 20.8267 4.71079C20.5062 4.38117 19.7722 3.85137 19.0658 4.93968H19.0653C19.0653 4.93968 19.0645 4.93835 19.064 4.93747C19.0632 4.93703 19.0628 4.93614 19.0615 4.93482C19.0606 4.93393 19.0597 4.93261 19.0585 4.93128C19.0572 4.92996 19.0559 4.92863 19.0542 4.92686C19.0529 4.9251 19.0511 4.92333 19.0494 4.92156C18.9432 4.80844 18.3189 4.20442 17.1061 4.17437C15.438 4.13284 14.7067 5.03423 14.7067 6.00279C14.7067 6.54982 14.9398 7.11805 15.3688 7.55019C15.383 7.56433 15.3976 7.57891 15.4122 7.59261C15.4264 7.60675 15.4411 7.62044 15.4561 7.63414C15.4118 7.62398 13.9882 7.29214 13.3484 7.99912C13.1548 8.21298 12.9414 8.69107 12.9414 9.17447C12.9414 9.48024 13.0266 9.78821 13.2563 10.0326C13.3944 10.1793 13.5842 10.303 13.8384 10.39C13.5717 10.4819 13.3682 10.6675 13.3682 11.0192C13.3682 11.0687 13.3721 11.1213 13.3807 11.1774C13.4082 11.3617 13.4758 11.4969 13.5695 11.5937C14.0643 12.104 15.2918 11.5517 15.2918 11.5517C15.3498 12.4646 15.4148 13.5414 15.4208 13.647C15.5271 13.6231 15.6372 13.6103 15.7495 13.6103C16.1118 13.6103 16.4465 13.7875 16.7167 14.0159C16.8707 14.0544 17.0222 14.1034 17.1719 14.1706C17.2403 14.2011 17.3096 14.2355 17.3608 14.2917C17.384 14.3168 17.43 14.3548 17.43 14.3009V14.2947L17.381 13.3792C17.3793 13.3474 17.3784 13.3156 17.3784 13.2838C17.3784 12.9546 17.4696 12.6307 17.6417 12.3514L17.7918 12.1084C17.8577 12.0019 17.8908 11.8804 17.8908 11.7589C17.8908 11.6476 17.8628 11.5358 17.8069 11.4355L17.615 11.0899C17.5574 10.9865 17.5307 10.8752 17.5307 10.7665C17.5307 10.4859 17.708 10.2195 17.9953 10.1368C19.65 9.66228 23.5118 8.78872 25.2177 10.379L25.8368 12.0903L25.8381 12.0934C25.8381 12.0934 26.0416 11.5199 26.0416 10.8915C26.0416 10.6905 26.0205 10.4833 25.9654 10.2875C26.1917 10.0034 26.2713 9.7511 26.2713 9.53635ZM26.2713 9.53635C26.2713 9.23456 26.1143 9.00789 25.9869 8.87312C25.8996 8.78121 25.826 8.73217 25.826 8.73217C25.826 8.73217 25.9099 8.323 25.9099 7.73842C25.9099 6.90993 25.7413 5.72972 24.9247 4.865C24.8847 4.82258 24.8429 4.78105 24.7995 4.73996C23.8125 3.80851 22.7206 3.4263 21.8791 3.88893H21.8786C21.5331 4.07893 21.2298 4.41121 20.9932 4.90654H20.9928C20.9885 4.89991 20.9381 4.82921 20.8521 4.7373C20.8482 4.73333 20.8439 4.72891 20.8396 4.72449C20.8353 4.71963 20.831 4.71521 20.8267 4.71079C20.5062 4.38117 19.7722 3.85137 19.0658 4.93968H19.0653C19.0653 4.93968 19.0645 4.93835 19.064 4.93747C19.0632 4.93703 19.0628 4.93614 19.0615 4.93482C19.0606 4.93393 19.0597 4.93261 19.0585 4.93128C19.0572 4.92996 19.0559 4.92863 19.0542 4.92686C19.0529 4.9251 19.0511 4.92333 19.0494 4.92156C18.9432 4.80844 18.3189 4.20442 17.1061 4.17437C15.438 4.13284 14.7067 5.03423 14.7067 6.00279C14.7067 6.54982 14.9398 7.11805 15.3688 7.55019C15.383 7.56433 15.3976 7.57891 15.4122 7.59261C15.4264 7.60675 15.4411 7.62044 15.4561 7.63414C15.4118 7.62398 13.9882 7.29214 13.3484 7.99912C13.1548 8.21298 12.9414 8.69107 12.9414 9.17447C12.9414 9.48024 13.0266 9.78821 13.2563 10.0326C13.3944 10.1793 13.5842 10.303 13.8384 10.39C13.5717 10.4819 13.3682 10.6675 13.3682 11.0192C13.3682 11.0687 13.3721 11.1213 13.3807 11.1774C13.4082 11.3617 13.4758 11.4969 13.5695 11.5937C14.0643 12.104 15.2918 11.5517 15.2918 11.5517C15.3498 12.4646 15.4148 13.5414 15.4208 13.647C15.5271 13.6231 15.6372 13.6103 15.7495 13.6103C16.1118 13.6103 16.4465 13.7875 16.7167 14.0159C16.8707 14.0544 17.0222 14.1034 17.1719 14.1706C17.2403 14.2011 17.3096 14.2355 17.3608 14.2917C17.384 14.3168 17.43 14.3548 17.43 14.3009V14.2947L17.381 13.3792C17.3793 13.3474 17.3784 13.3156 17.3784 13.2838C17.3784 12.9546 17.4696 12.6307 17.6417 12.3514L17.7918 12.1084C17.8577 12.0019 17.8908 11.8804 17.8908 11.7589C17.8908 11.6476 17.8628 11.5358 17.8069 11.4355L17.615 11.0899C17.5574 10.9865 17.5307 10.8752 17.5307 10.7665C17.5307 10.4859 17.708 10.2195 17.9953 10.1368C19.65 9.66228 23.5118 8.78872 25.2177 10.379L25.8368 12.0903L25.8381 12.0934C25.8381 12.0934 26.0416 11.5199 26.0416 10.8915C26.0416 10.6905 26.0205 10.4833 25.9654 10.2875C26.1917 10.0034 26.2713 9.7511 26.2713 9.53635Z" fill="#541B0A"/>
<path d="M18.1984 33.6665C18.09 34.0217 17.976 34.388 17.7385 34.6695C17.6683 34.753 17.5888 34.8255 17.504 34.8922L17.4825 33.3638L17.4648 32.0859C17.4889 32.0904 17.513 32.0943 17.5371 32.0988C17.6038 32.112 17.6714 32.1257 17.7376 32.1438C17.8675 32.1792 17.9923 32.23 18.0934 32.3192C18.4466 32.6316 18.3378 33.2096 18.1984 33.6665Z" fill="#009F62"/>
<path d="M20.6776 34.624L20.6247 38.4112C20.4724 38.2239 20.3304 38.0255 20.1549 37.862C19.8585 37.5858 19.4721 37.413 19.22 37.094C18.7747 36.532 18.9072 35.6315 19.4085 35.1216C19.8228 34.7005 20.2345 34.6249 20.6776 34.624Z" fill="#009F62"/>
<path d="M7.93695 43.6649H-0.785156L-0.781284 36.1948L3.72497 29.4017L4.75882 27.8428L5.14087 28.445L6.64625 30.8191C7.22663 31.7024 7.55361 32.7351 7.59104 33.7999L7.93695 43.6649Z" fill="#FF6060"/>
<path d="M17.5026 34.8922L17.4634 32.0859L17.4488 31.0365C17.4406 30.8664 17.318 30.7254 17.1545 30.698L16.9902 30.6702L16.051 30.5125L15.502 30.4201C15.3226 30.3901 15.1488 30.3401 14.984 30.2716C14.2315 29.9628 13.6628 29.2854 13.4898 28.4477L13.2988 27.0235L13.0785 25.3838L6.97996 26.2702C6.13628 26.4076 5.38552 26.8963 4.90452 27.6214L4.75781 27.8427L5.13986 28.445L6.64524 30.8191C7.22563 31.7024 7.5526 32.735 7.59003 33.7999L7.93594 43.6649H17.6248L17.5026 34.8922ZM13.3375 32.0828C13.2622 33.2065 12.314 34.0544 11.2203 33.9771C10.1263 33.8998 9.30064 32.9263 9.37593 31.8027C9.45122 30.679 10.399 29.8311 11.4931 29.9084C12.5872 29.9858 13.4128 30.9596 13.3375 32.0828Z" fill="#735FFF"/>
<path d="M24.0671 24.8156L23.7113 28.8776C23.6734 29.3097 23.534 29.726 23.306 30.0909L23.1924 30.2721C23.0272 30.3406 22.8538 30.3905 22.6744 30.4206L22.125 30.5129L22.5763 29.7927C22.8048 29.4282 22.9442 29.0119 22.982 28.5802L23.346 24.4219L24.0671 24.8156Z" fill="white"/>
<path d="M22.3819 27.1684L22.3518 27.509L22.0781 27.2585C22.131 27.1812 22.1797 27.1025 22.2231 27.0234L22.3819 27.1684Z" fill="#FFAC00"/>
<path d="M22.3509 27.5093L22.2605 28.5415C22.233 28.8566 22.1315 29.1606 21.9645 29.4261L21.9396 29.4654C21.6703 29.6121 21.3682 29.7381 21.0284 29.8362L20.6016 28.3365C21.3063 28.1072 21.7714 27.7051 22.0773 27.2588L22.3509 27.5093Z" fill="#DD920B"/>
<path d="M21.9406 29.4652L21.1855 30.6701L21.0212 30.698C20.8577 30.7254 20.7351 30.8663 20.7269 31.0364L20.677 34.6235C20.2338 34.6243 19.8221 34.6999 19.4078 35.121C18.9066 35.6309 18.7741 36.5314 19.2193 37.0935C19.4715 37.4125 19.8578 37.5853 20.1542 37.8614C20.3298 38.0249 20.4718 38.2233 20.6241 38.4107L20.5509 43.6648H17.6262L17.504 34.8921C17.5888 34.8254 17.6684 34.7529 17.7385 34.6694C17.976 34.388 18.09 34.0217 18.1984 33.6664C18.3378 33.2095 18.4467 32.6316 18.0934 32.3192C17.9923 32.2299 17.8676 32.1791 17.7376 32.1437C17.6714 32.1256 17.6038 32.1119 17.5371 32.0987C17.513 32.0943 17.489 32.0903 17.4649 32.0859L17.4502 31.0364C17.4421 30.8663 17.3194 30.7254 17.156 30.698L16.9916 30.6701L16.2116 29.4259C16.203 29.4126 16.1957 29.3985 16.1875 29.3848C16.4831 29.554 16.8199 29.6989 17.2046 29.8116C17.4068 29.8713 17.6223 29.9216 17.8521 29.9618C17.9385 29.9773 18.0276 29.991 18.1184 30.0029C18.4501 30.0476 18.8093 30.0714 19.1978 30.0714C19.7903 30.0714 20.3113 30.0113 20.7699 29.9035C20.859 29.8827 20.945 29.8602 21.0293 29.8359C21.3692 29.7378 21.6712 29.6119 21.9406 29.4652Z" fill="#FFAC00"/>
<path d="M16.3706 27.4352L15.8603 27.9115L15.7188 26.293C15.8478 26.6668 16.0509 27.0724 16.3706 27.4352Z" fill="#DD920B"/>
<path d="M16.5576 27.6299L15.8895 28.2538L15.8594 27.9109L16.3696 27.4346C16.4281 27.5013 16.4905 27.5667 16.5576 27.6299Z" fill="#FFAC00"/>
<path d="M18.2646 28.4575L17.8525 29.962C17.1869 29.8458 16.6392 29.643 16.1879 29.385C16.0356 29.1291 15.9418 28.8406 15.916 28.5414L15.8906 28.2538L16.5588 27.6299C16.9585 28.0081 17.5083 28.3174 18.2646 28.4575Z" fill="#DD920B"/>
<g style="mix-blend-mode:multiply" opacity="0.6">
<path d="M17.7619 32.0307L17.7382 32.1442L17.4831 33.3642L17.4654 32.0863L17.4508 31.0369C17.4426 30.8668 17.32 30.7259 17.1565 30.6985L16.9922 30.6706L16.053 30.5129L15.504 30.4205C15.3246 30.3905 15.1508 30.3406 14.986 30.2721C14.7825 30.1886 14.5924 30.0781 14.4198 29.9446L13.5977 27.6598L14.3325 27.3416L15.0604 27.0266L15.757 26.7248L16.2358 26.5176C16.2358 26.5176 16.5009 28.3579 17.2052 29.8121C17.2891 29.9853 17.3794 30.1528 17.4762 30.3114C17.7877 30.8226 17.8854 31.4412 17.7619 32.0307Z" fill="#AF750E"/>
</g>
<path d="M18.53 28.4991L18.1179 30.0036C18.0271 29.9917 17.938 29.978 17.8516 29.9625L18.2637 28.458C18.3498 28.4739 18.4384 28.4876 18.53 28.4991Z" fill="#FFAC00"/>
<path d="M20.7687 29.9041C20.3101 30.0119 19.7891 30.072 19.1966 30.072C18.8081 30.072 18.4489 30.0481 18.1172 30.0035L18.5293 28.499C18.7372 28.525 18.9592 28.5387 19.1966 28.5387C19.6312 28.5387 20.0115 28.4923 20.3441 28.4102L20.7687 29.9041Z" fill="#DD920B"/>
<path d="M14.9845 30.272C14.781 30.1885 14.5908 30.078 14.4183 29.9445C13.9532 29.5849 13.6163 29.0591 13.4903 28.448L13.079 25.3841L13.0781 25.3779L14.1098 24.8154L14.331 27.3415L14.4656 28.8775C14.5035 29.3096 14.6429 29.7258 14.8709 30.0908L14.9845 30.272Z" fill="#735FFF"/>
<path d="M16.051 30.5129L15.502 30.4206C15.3226 30.3905 15.1488 30.3406 14.984 30.2721L14.8705 30.0909C14.6424 29.726 14.503 29.3097 14.4652 28.8776L14.3305 27.3417L14.1094 24.8156L14.8304 24.4219L15.0585 27.0266L15.1944 28.5802C15.2323 29.0119 15.3712 29.4282 15.6001 29.7927L16.051 30.5129Z" fill="white"/>
<path d="M16.9918 30.6707L16.0526 30.513L15.6017 29.7927C15.3728 29.4282 15.2339 29.012 15.196 28.5803L15.0601 27.0267L14.832 24.4219L15.5217 24.0459L15.5264 24.1007L15.7187 26.2928L15.7566 26.7249L15.8603 27.9113L15.8904 28.2542L15.9158 28.5418C15.9416 28.841 16.0354 29.1295 16.1877 29.3853C16.1959 29.399 16.2032 29.4132 16.2118 29.4264L16.9918 30.6707Z" fill="#735FFF"/>
<path d="M33.4715 27.8467L33.1738 28.316L31.5862 30.8196C31.0059 31.7028 30.6789 32.7355 30.6415 33.8004L30.2955 43.6653H20.5508L20.6239 38.4112L20.6768 34.624L20.7267 31.037C20.7349 30.8668 20.8575 30.7259 21.021 30.6985L21.1854 30.6707L22.1241 30.5129L22.6735 30.4206C22.853 30.3905 23.0263 30.3406 23.1915 30.2721C23.944 29.9632 24.5128 29.2859 24.6857 28.4481L24.9774 26.2715L25.0966 25.3838L31.2386 26.283C32.038 26.4129 32.756 26.8592 33.2392 27.5259L33.4715 27.8467Z" fill="#735FFF"/>
<path d="M41.251 38.5826V43.6653H30.2969L30.6428 33.8003C30.6802 32.7354 31.0072 31.7028 31.5876 30.8195L33.1751 28.3159L33.4729 27.8467L34.6293 29.4427L41.251 38.5826Z" fill="#FF6060"/>
<path d="M23.3434 24.4219L22.9794 28.5803C22.9415 29.012 22.8021 29.4282 22.5737 29.7927L22.1224 30.513L21.1836 30.6707L21.9387 29.4658L21.9636 29.4264C22.1305 29.1609 22.2321 28.8569 22.2596 28.5418L22.35 27.5096L22.3801 27.169L22.4343 26.5504L22.6498 24.087L22.6537 24.0459L23.3434 24.4219Z" fill="#735FFF"/>
<path d="M21.0278 29.8366C20.9435 29.8609 20.8574 29.8834 20.7684 29.9042L20.3438 28.4103C20.4328 28.3886 20.5189 28.3639 20.601 28.3369L21.0278 29.8366Z" fill="#FFAC00"/>
<path d="M25.0973 25.3779L25.0965 25.3837L24.6856 28.448C24.5126 29.2857 23.9439 29.9631 23.1914 30.272L23.305 30.0908C23.533 29.7258 23.6724 29.3096 23.7103 28.8775L24.0661 24.8154L25.0973 25.3779Z" fill="#735FFF"/>
<path d="M11.493 29.9092C10.399 29.8319 9.45115 30.6798 9.37586 31.8034C9.30057 32.9271 10.1262 33.9005 11.2203 33.9778C12.3139 34.0552 13.2622 33.2072 13.3374 32.0836C13.4127 30.9604 12.5871 29.9865 11.493 29.9092ZM9.9627 31.9298C9.91752 31.9263 9.8831 31.8861 9.88655 31.8397C9.88956 31.7928 9.92871 31.7579 9.97431 31.761C10.0195 31.7641 10.0539 31.8043 10.0505 31.8512C10.0475 31.8976 10.0083 31.9329 9.9627 31.9298ZM11.5124 33.2519C11.5029 33.3893 11.3872 33.4931 11.2534 33.4838C11.1196 33.4741 11.0185 33.3553 11.028 33.2178C11.037 33.0804 11.1532 32.9766 11.2865 32.9863C11.4203 32.9956 11.5214 33.1149 11.5124 33.2519ZM12.739 32.126C12.6938 32.1229 12.6594 32.0827 12.6628 32.0359C12.6658 31.9895 12.705 31.9541 12.7506 31.9572C12.7958 31.9607 12.8302 32.001 12.8268 32.0478C12.8237 32.0942 12.7846 32.1295 12.739 32.126Z" fill="#DAD7FF"/>
<path d="M10.0509 31.8511C10.0479 31.8975 10.0087 31.9328 9.96311 31.9297C9.91793 31.9262 9.88351 31.886 9.88696 31.8396C9.88997 31.7927 9.92912 31.7578 9.97472 31.7609C10.0199 31.764 10.0543 31.8042 10.0509 31.8511Z" fill="white"/>
<path d="M11.6367 32.0498C11.6393 32.056 11.6419 32.0617 11.6445 32.0679H11.644C11.6415 32.0622 11.6389 32.056 11.6367 32.0498Z" fill="#FFAC00"/>
<path d="M12.5008 31.3016L11.8361 31.8964C11.7871 31.7236 11.7002 31.5738 11.5625 31.4532L12.1691 30.9106C12.2345 30.8523 12.3335 30.8593 12.3907 30.9265L12.5159 31.0741C12.5731 31.1412 12.5662 31.2433 12.5008 31.3016Z" fill="#FFAC00"/>
<path d="M11.3395 32.2501C11.2483 32.2815 11.1636 32.3301 11.0908 32.3951L10.4412 32.9766C10.3874 33.0247 10.3057 33.019 10.2583 32.9633C10.2114 32.9081 10.217 32.8241 10.2712 32.776L10.9239 32.1918C10.9768 32.1445 11.0224 32.0893 11.0599 32.0283L11.0827 32.0553C11.1468 32.1313 11.2255 32.1927 11.3137 32.2364L11.3283 32.2439C11.3322 32.2457 11.3356 32.2484 11.3395 32.2501Z" fill="#FFAC00"/>
<path d="M12.3103 33.108C12.2561 33.1561 12.1744 33.1504 12.1275 33.0952L11.5587 32.4244C11.4972 32.3519 11.4223 32.2927 11.3389 32.2494C11.335 32.2477 11.3315 32.245 11.3277 32.2432L11.313 32.2357C11.2249 32.192 11.1461 32.1306 11.082 32.0546L11.0592 32.0276L10.3119 31.147C10.2551 31.0798 10.262 30.9778 10.3274 30.9194L10.4711 30.7908C10.5365 30.7321 10.6359 30.7391 10.6927 30.8063L11.3793 31.6158L11.4658 31.7174C11.5316 31.7952 11.5815 31.8867 11.6112 31.9852C11.6198 32.0135 11.6306 32.0413 11.6422 32.0683C11.6714 32.135 11.7097 32.1977 11.757 32.253L12.3228 32.9206C12.3697 32.9758 12.3641 33.0598 12.3103 33.108Z" fill="#FFAC00"/>
<path d="M11.5124 33.2515C11.5029 33.389 11.3872 33.4928 11.2534 33.4835C11.1196 33.4738 11.0185 33.3549 11.028 33.2175C11.037 33.0801 11.1532 32.9763 11.2865 32.986C11.4203 32.9953 11.5214 33.1146 11.5124 33.2515Z" fill="#A39CFF"/>
<path d="M12.8282 32.0478C12.8252 32.0942 12.7861 32.1295 12.7405 32.126C12.6953 32.1229 12.6609 32.0827 12.6643 32.0359C12.6673 31.9895 12.7065 31.9541 12.7521 31.9572C12.7972 31.9608 12.8317 32.001 12.8282 32.0478Z" fill="white"/>
<path d="M24.4639 20.48C24.2418 20.6197 23.9949 20.7297 23.7195 20.8039C23.5638 20.8463 23.3995 20.8773 23.2256 20.8963C23.0282 20.9175 22.8358 20.9307 22.6496 20.936V24.0869L22.434 26.5503C22.3777 26.7072 22.308 26.8671 22.221 27.024C22.1776 27.1031 22.129 27.1817 22.0761 27.259C21.7702 27.7053 21.3051 28.1074 20.6004 28.3367C20.5182 28.3637 20.4321 28.3884 20.3431 28.4101C20.0105 28.4923 19.6302 28.5387 19.1957 28.5387C18.9582 28.5387 18.7362 28.525 18.5284 28.4989C18.4367 28.4874 18.3481 28.4737 18.262 28.4578C17.5057 28.3177 16.9559 28.0084 16.5562 27.6302C16.4891 27.567 16.4267 27.5016 16.3682 27.4349C16.0485 27.0721 15.8454 26.6665 15.7164 26.2927L15.524 24.1006L15.7624 17.4219C15.7947 17.429 15.8282 17.4334 15.8622 17.4334C16.1178 17.4334 16.3251 17.2204 16.3251 16.958C16.3251 16.6955 16.1178 16.483 15.8622 16.483C15.6067 16.483 15.3997 16.6955 15.3997 16.958C15.3997 17.0357 15.4182 17.1091 15.4505 17.174C14.692 17.0207 14.1172 16.2881 14.1172 15.407C14.1172 15.3416 14.1202 15.2771 14.1267 15.2139C14.1434 15.0429 14.1817 14.879 14.2385 14.7261C14.3422 14.4469 14.5078 14.2034 14.7161 14.0156C14.8955 13.8539 15.1063 13.7337 15.3373 13.6679C15.3455 13.6657 15.3532 13.6634 15.3614 13.6612C15.3799 13.6559 15.3984 13.6515 15.4174 13.6471C15.5236 13.6232 15.6338 13.6104 15.746 13.6104C15.7551 13.6104 15.7667 13.6104 15.7787 13.6113C15.8631 13.614 15.9457 13.6254 16.0261 13.6453C16.1612 13.6785 16.2907 13.7337 16.412 13.8035C16.5192 13.8645 16.6203 13.937 16.7132 14.016C16.8672 14.0545 17.0187 14.1035 17.1684 14.1707C17.2368 14.2012 17.3061 14.2357 17.3573 14.2918C17.3814 14.3178 17.43 14.3576 17.4265 14.2949C17.4265 14.2944 17.3775 13.3793 17.3775 13.3793C17.3581 13.0174 17.4493 12.6578 17.6382 12.3516L17.7884 12.1085C17.7957 12.097 17.8021 12.0851 17.8086 12.0732C17.9149 11.8752 17.914 11.6335 17.8034 11.4356L17.6115 11.09C17.4059 10.7207 17.593 10.2514 17.9919 10.137C18.722 9.92751 19.8806 9.64075 21.0947 9.52189H21.0956C22.3316 9.40082 23.6245 9.45384 24.5796 9.94033H24.58C24.6364 9.96949 24.691 9.99954 24.7448 10.0314C24.9147 10.1312 25.0722 10.2465 25.2142 10.3791L25.8333 12.0904C25.8513 12.1677 25.8686 12.2455 25.884 12.3233C26.328 14.5193 26.7252 19.0559 24.4639 20.48Z" fill="#C16D53"/>
<path d="M20.9388 13.8341C21.0566 13.8252 21.1383 13.6247 21.1213 13.3862C21.1043 13.1477 20.9951 12.9615 20.8773 12.9703C20.7595 12.9792 20.6778 13.1797 20.6948 13.4182C20.7118 13.6567 20.821 13.8429 20.9388 13.8341Z" fill="#231F20"/>
<path d="M24.6927 13.6661C24.8105 13.6573 24.8922 13.4567 24.8752 13.2182C24.8582 12.9797 24.749 12.7935 24.6312 12.8024C24.5134 12.8112 24.4317 13.0117 24.4487 13.2502C24.4657 13.4887 24.5749 13.6749 24.6927 13.6661Z" fill="#231F20"/>
<g style="mix-blend-mode:screen">
<path d="M24.467 20.4801C24.245 20.6198 23.998 20.7298 23.7227 20.804C25.0624 20.2861 25.6032 17.939 25.5989 15.7368C25.5946 13.4506 24.9338 10.9991 24.5827 9.94043C24.7526 10.0403 25.0753 10.2466 25.2173 10.3792L25.8364 12.0905C25.8545 12.1678 25.8717 12.2456 25.8872 12.3234C26.3312 14.5194 26.7283 19.056 24.467 20.4801Z" fill="#E5765C"/>
</g>
<path d="M22.6532 20.9358C22.6532 20.9358 19.5293 21.2761 17.5352 18.2939C17.5352 18.2939 18.1762 23.0599 22.6532 23.6961V20.9358Z" fill="#843928"/>
<path d="M25.9063 7.73826C25.9063 8.32284 25.8224 8.73201 25.8224 8.73201C25.7011 4.82773 21.875 3.88922 21.875 3.88922H21.8754C22.717 3.42615 23.8089 3.80835 24.7959 4.7398C24.8393 4.78089 24.881 4.82242 24.921 4.86484C25.7376 5.72956 25.9063 6.90977 25.9063 7.73826Z" fill="#872F1B"/>
<path d="M20.6367 7.47223C20.6367 7.47223 22.5362 8.80885 23.817 7.03125C23.817 7.03125 23.6806 8.16153 22.9337 8.59102C22.3529 8.92551 21.2279 8.8336 20.6367 7.47223Z" fill="#872F1B"/>
<path d="M23.375 7.85156C23.375 7.85156 23.8711 8.47635 24.7965 8.061C24.7965 8.061 23.5746 9.07286 23.375 7.85156Z" fill="#872F1B"/>
<path d="M26.5464 37.2615V36.7591H26.8282L26.2912 35.3889H25.6863V36.7591H26.0137V37.2615H24.8633V36.7591H25.1971V33.5229H24.8633V33.0205H27.2657L27.5432 33.3113V35.1043L27.2661 35.3889H26.7671L27.304 36.7591H27.6968V37.2615H26.5464ZM25.6863 34.8865H27.0609V33.5229H25.6863V34.8865Z" fill="#DAD7FF"/>
<g style="mix-blend-mode:soft-light">
<path d="M34.6284 29.4657L33.1729 28.316L32.5439 27.8189C32.1102 27.4764 31.5983 27.2546 31.057 27.1742L24.9766 26.2715L25.0957 25.3838L31.2377 26.283C32.0371 26.4129 32.7552 26.8592 33.2383 27.5259L33.4706 27.8467L34.6271 29.4427L34.6284 29.4657Z" fill="white"/>
</g>
<g style="mix-blend-mode:soft-light">
<path d="M13.2334 26.5177L7.67954 27.1014C6.65343 27.2092 5.68541 27.6418 4.90927 28.3395L3.72656 29.4026L4.76041 27.8437L4.90712 27.6223C5.38812 26.8973 6.13888 26.4086 6.98256 26.2711L13.0811 25.3848L13.2334 26.5181V26.5177Z" fill="white"/>
</g>
<g style="mix-blend-mode:screen">
<path d="M16.461 14.0079C16.3392 14.1365 15.9072 14.1692 15.8048 14.1551C15.5734 14.1224 15.3346 14.0587 15.1105 14.1272C14.8842 14.1962 14.7164 14.387 14.5249 14.5293C14.5047 14.5444 14.4836 14.5589 14.4591 14.5629C14.3072 14.5881 14.401 14.3968 14.4337 14.3464C14.5133 14.2236 14.611 14.1118 14.7189 14.0146C14.7701 13.9872 14.8209 13.958 14.87 13.9231C15.0266 13.8122 15.1608 13.7216 15.3402 13.6668C15.3484 13.6646 15.3561 13.6624 15.3643 13.6602C15.3828 13.6549 15.4013 13.6505 15.4202 13.6461C15.5265 13.6222 15.6366 13.6094 15.7489 13.6094C15.8023 13.6094 15.9111 13.6195 16.029 13.6443C16.1731 13.6739 16.3302 13.7243 16.4149 13.8025C16.5083 13.8886 16.51 13.9562 16.461 14.0079Z" fill="#E5765C"/>
</g>
<path d="M25.8594 33.707V34.7087H26.8812V33.707H25.8594ZM26.7809 34.6058H25.9596V33.81H26.7809V34.6058Z" fill="white"/>
<path d="M27.4956 36.4722L27.1747 35.6764H27.3821L27.8226 35.2235V33.1931L27.3821 32.7402H24.5898V33.8104H24.9173V36.4722H24.5898V37.5424H27.9762V36.4722H27.4956ZM27.8764 37.4394H26.3732V36.5751H26.5736L26.1731 35.5734H25.859V36.5751H26.1929V37.4394H24.6901V36.5751H25.0175V33.7075H24.6901V32.8432H27.342L27.7224 33.2342V35.1824L27.342 35.5734H27.028L27.4221 36.5751H27.8764V37.4394ZM25.9593 36.4722V35.6764H26.106L26.4201 36.4722H25.9593Z" fill="white"/>
<path d="M25.8594 33.707V34.7087H26.8812V33.707H25.8594ZM26.7809 34.6058H25.9596V33.81H26.7809V34.6058Z" fill="white"/>
<path d="M25.8594 33.707V34.7087H26.8812V33.707H25.8594ZM26.7809 34.6058H25.9596V33.81H26.7809V34.6058Z" fill="white"/>
<g style="mix-blend-mode:soft-light">
<path d="M15.5244 24.1006L15.6883 25.8888L13.224 26.5427L13.0781 25.3842L15.5244 24.1006Z" fill="white"/>
</g>
<g style="mix-blend-mode:soft-light">
<path d="M22.6529 24.0869L22.5156 25.7823L24.9787 26.2715L25.0979 25.3838L22.6529 24.0869Z" fill="white"/>
</g>
<path d="M15.4525 17.2404C15.4482 17.2404 15.4443 17.2404 15.44 17.239C14.6372 17.0769 14.0547 16.3063 14.0547 15.4071C14.0547 14.5079 14.623 13.7594 15.4056 13.5827C15.4405 13.5747 15.4749 13.5972 15.4826 13.633C15.4904 13.6688 15.4684 13.7042 15.4336 13.7121C14.7095 13.8756 14.1842 14.5888 14.1842 15.4075C14.1842 16.2263 14.7228 16.9593 15.4654 17.1096C15.5003 17.1167 15.5231 17.1516 15.5162 17.1874C15.5102 17.2192 15.4831 17.2408 15.4529 17.2408L15.4525 17.2404Z" fill="#231F20"/>
<path d="M16.7888 14.1503C16.7733 14.1503 16.7583 14.1445 16.7458 14.1335C16.5199 13.9254 16.1632 13.6775 15.7451 13.6775C15.6392 13.6775 15.5334 13.6894 15.4301 13.7124C15.3953 13.7203 15.3609 13.6978 15.3531 13.662C15.3454 13.6262 15.3673 13.5909 15.4022 13.5829C15.514 13.5577 15.6293 13.5449 15.7446 13.5449C16.2033 13.5449 16.5887 13.8114 16.8314 14.0349C16.8581 14.0592 16.8602 14.1012 16.8361 14.1286C16.8232 14.1432 16.8056 14.1507 16.7879 14.1507L16.7888 14.1503Z" fill="#231F20"/>
<path d="M15.4522 16.3349C15.432 16.3349 15.4122 16.3252 15.3993 16.307C15.3787 16.277 15.3855 16.2359 15.4148 16.2147C15.4187 16.212 15.7947 15.9346 15.8295 15.6615C15.8394 15.5828 15.8192 15.5139 15.768 15.4507C15.6536 15.3098 15.4935 15.3889 15.2887 15.5519C15.2784 15.5603 15.2651 15.5714 15.2492 15.5846C15.093 15.7163 14.9312 15.8404 14.8189 15.7812C14.7591 15.7499 14.7325 15.6778 14.7393 15.5669C14.7535 15.3389 14.8228 15.1154 14.939 14.9209C15.0375 14.7566 15.1558 14.6373 15.2909 14.567C15.5753 14.419 15.9199 14.4835 16.2198 14.5666C16.2542 14.5763 16.2744 14.6125 16.2654 14.6479C16.2563 14.6832 16.2211 14.704 16.1862 14.6947C15.91 14.6183 15.5942 14.5577 15.349 14.6854C15.2354 14.7446 15.1343 14.8471 15.0487 14.9907C14.9433 15.167 14.8805 15.3694 14.868 15.5758C14.8637 15.6478 14.8779 15.6637 14.8783 15.6637C14.8959 15.6717 14.9583 15.6588 15.1674 15.4825C15.1842 15.4684 15.1988 15.456 15.21 15.4472C15.3417 15.3429 15.6497 15.0981 15.8674 15.3663C15.9423 15.4582 15.9724 15.5638 15.9578 15.6796C15.9156 16.0106 15.5069 16.311 15.4897 16.3238C15.4785 16.3322 15.4651 16.3362 15.4522 16.3362V16.3349Z" fill="#231F20"/>
<path d="M23.5268 15.7163C23.5078 15.7163 23.4876 15.7141 23.4665 15.7096C23.2691 15.6672 23.0948 15.5647 22.9361 15.4604C22.9059 15.4406 22.8973 15.3999 22.9163 15.369C22.9352 15.338 22.9756 15.3292 23.0053 15.3486C23.1538 15.4463 23.3155 15.5417 23.4924 15.5797C23.5818 15.5987 23.6524 15.5395 23.7281 15.3813C23.929 14.9607 23.7535 14.4009 23.5556 13.9091C23.4265 13.5883 23.2738 13.2829 23.1021 13.001C23.0832 12.9701 23.0922 12.929 23.1224 12.9096C23.1525 12.8901 23.1925 12.8994 23.2114 12.9303C23.3869 13.2184 23.5431 13.5304 23.6748 13.8583C23.8839 14.3779 24.0671 14.9717 23.8439 15.4397C23.806 15.5188 23.7118 15.7163 23.5263 15.7163H23.5268Z" fill="#231F20"/>
<path d="M22.0809 17.632C21.3719 17.632 20.8005 17.0832 20.5914 16.8525C20.5673 16.8256 20.5686 16.7836 20.5949 16.7589C20.6211 16.7341 20.662 16.7355 20.6861 16.7624C21.7913 17.9855 22.7198 17.3885 23.0678 17.0752C23.0945 17.0509 23.1354 17.054 23.159 17.0814C23.1827 17.1088 23.1797 17.1508 23.153 17.1751C22.7809 17.5105 22.4156 17.6324 22.0809 17.6324V17.632Z" fill="#231F20"/>
<path d="M20.6388 16.8738C20.6143 16.8738 20.5906 16.8593 20.5799 16.8345C20.5653 16.8009 20.5799 16.762 20.6126 16.747C20.7085 16.7033 20.7898 16.6374 20.8544 16.5513C20.8759 16.5221 20.9168 16.5168 20.9447 16.5393C20.9731 16.5619 20.9783 16.6034 20.9563 16.6321C20.8785 16.736 20.7808 16.8151 20.6651 16.8681C20.6565 16.8721 20.6474 16.8738 20.6388 16.8738Z" fill="#231F20"/>
<path d="M20.3189 16.9419C20.2716 16.9419 20.2419 16.9379 20.2389 16.9375C20.2036 16.9322 20.1791 16.8986 20.1843 16.8624C20.1894 16.8261 20.2221 16.8009 20.2574 16.8062C20.2591 16.8062 20.433 16.8297 20.6137 16.747C20.6464 16.732 20.6842 16.747 20.6988 16.7806C20.7135 16.8142 20.6988 16.8531 20.6661 16.8681C20.5302 16.9304 20.3994 16.9423 20.3194 16.9423L20.3189 16.9419Z" fill="#231F20"/>
<path d="M15.4178 13.7136C15.3838 13.7136 15.3554 13.6866 15.3533 13.6513L15.3524 13.6354C15.3313 13.2881 15.2788 12.4189 15.2302 11.6483C14.9673 11.7535 14.1624 12.0345 13.6762 11.7601C13.4757 11.647 13.354 11.4544 13.314 11.1879C13.2494 10.7598 13.4228 10.4624 13.8147 10.3276C13.8483 10.3161 13.8853 10.3347 13.8965 10.3696C13.9077 10.4045 13.8896 10.4421 13.8556 10.4535C13.5218 10.5684 13.3862 10.8022 13.4413 11.168C13.4753 11.3947 13.5725 11.5507 13.7382 11.6439C14.2575 11.9369 15.253 11.4959 15.2629 11.4915C15.2823 11.4826 15.3042 11.4844 15.3223 11.4955C15.3404 11.5065 15.3515 11.5264 15.3533 11.5476C15.4032 12.3403 15.4595 13.2655 15.4815 13.627L15.4823 13.6433C15.4845 13.68 15.4574 13.7114 15.4221 13.7136C15.4208 13.7136 15.4195 13.7136 15.4182 13.7136H15.4178Z" fill="#231F20"/>
<path d="M13.8339 10.4567C13.8068 10.4567 13.7819 10.439 13.7728 10.4116C13.7617 10.3767 13.7797 10.3392 13.8137 10.3277C14.3317 10.1492 15.0601 10.3078 15.0911 10.3149C15.1259 10.3228 15.1479 10.3577 15.1405 10.3935C15.1332 10.4293 15.0988 10.4523 15.064 10.4443C15.0567 10.4426 14.339 10.2866 13.855 10.4536C13.8481 10.4558 13.8412 10.4571 13.8344 10.4571L13.8339 10.4567Z" fill="#231F20"/>
<path d="M17.4108 14.3952C17.3846 14.3952 17.3502 14.3819 17.3097 14.3373C17.2659 14.2891 17.203 14.2586 17.1424 14.2317C17.0056 14.1707 16.8601 14.1212 16.698 14.081C16.6631 14.0726 16.642 14.0364 16.6502 14.001C16.6584 13.9657 16.6932 13.9436 16.7281 13.952C16.898 13.9939 17.0503 14.0461 17.194 14.1102C17.2469 14.1336 17.3054 14.1618 17.3571 14.2029C17.3442 13.9652 17.3132 13.3837 17.3132 13.3837C17.293 13.0055 17.3863 12.6365 17.5838 12.3171L17.734 12.0736C17.8475 11.8898 17.8527 11.6583 17.7473 11.4692L17.555 11.1236C17.447 10.9296 17.4324 10.6999 17.515 10.4931C17.5976 10.2867 17.7649 10.1338 17.974 10.0738C19.5852 9.61157 23.5202 8.7115 25.257 10.3309C25.2647 10.338 25.2703 10.3468 25.2742 10.357L25.8933 12.0679C25.9058 12.1023 25.8886 12.1403 25.8555 12.1532C25.8219 12.166 25.7849 12.1483 25.7724 12.1143L25.1585 10.4184C23.4634 8.8582 19.5956 9.74634 18.0084 10.2015C17.8376 10.2505 17.7013 10.3751 17.6341 10.5435C17.5666 10.7122 17.5786 10.8996 17.6668 11.0578L17.8591 11.4033C17.9882 11.6353 17.9818 11.919 17.8424 12.1448L17.6922 12.3882C17.5094 12.6847 17.4225 13.0263 17.4414 13.3767C17.4744 13.9879 17.4909 14.2943 17.4909 14.2957C17.4943 14.3589 17.4577 14.3823 17.4418 14.389C17.4332 14.3925 17.4229 14.3956 17.4113 14.3956L17.4108 14.3952Z" fill="#231F20"/>
<path d="M25.8329 12.1599C25.8062 12.1599 25.7821 12.1431 25.7726 12.117C25.7657 12.0989 25.7675 12.079 25.7752 12.0627C25.8075 11.9668 26.1069 11.0442 25.8983 10.3063C25.8922 10.2855 25.897 10.2625 25.9103 10.2457C26.1375 9.96028 26.2325 9.68191 26.1925 9.41812C26.1332 9.02442 25.789 8.79024 25.7855 8.78803C25.7632 8.773 25.752 8.74561 25.7576 8.71865C25.7627 8.69391 26.2515 6.20447 24.7508 4.78875C23.9196 4.00444 23.066 3.64875 22.3467 3.78749C21.7973 3.89354 21.3593 4.27972 21.0461 4.93544C21.0362 4.95621 21.016 4.97035 20.9936 4.97212C20.9704 4.97433 20.9489 4.96372 20.936 4.94472C20.9317 4.93854 20.5074 4.34379 19.9783 4.35396C19.6694 4.3597 19.3789 4.56914 19.1144 4.9761C19.1032 4.99333 19.0851 5.00393 19.0649 5.0057C19.0451 5.00703 19.0253 4.99863 19.012 4.98317C19.0107 4.9814 18.8566 4.80333 18.5452 4.62393C18.2582 4.45824 17.7742 4.25763 17.0991 4.24084C15.9767 4.21256 15.1665 4.63189 14.8766 5.38968C14.5991 6.11477 14.8477 6.99717 15.4948 7.58484C15.5167 7.60517 15.5228 7.63786 15.5094 7.66482C15.4957 7.69177 15.466 7.70591 15.4372 7.69884C15.423 7.6953 14.0066 7.36303 13.3905 8.04437C13.1556 8.30419 12.9027 8.95726 13.0399 9.50782C13.138 9.90063 13.4116 10.1764 13.8535 10.3275C13.8875 10.339 13.9055 10.3765 13.8943 10.4114C13.8832 10.4459 13.8466 10.4649 13.8126 10.4534C13.3333 10.2899 13.0227 9.97442 12.9147 9.54096C12.7594 8.91749 13.0502 8.22554 13.2959 7.95424C13.8182 7.37717 14.8142 7.45891 15.2526 7.52872C14.6834 6.91012 14.4829 6.056 14.7565 5.34151C15.0676 4.52849 15.9237 4.07912 17.1026 4.10828C18.2418 4.13656 18.8678 4.65531 19.052 4.83603C19.3299 4.43438 19.641 4.22758 19.9765 4.22184C19.9817 4.22184 19.9864 4.22184 19.9916 4.22184C20.4588 4.22184 20.8318 4.60979 20.9764 4.78477C21.3025 4.15379 21.7663 3.76496 22.323 3.65758C23.0828 3.51089 23.976 3.87807 24.8382 4.69154C26.2825 6.05379 25.9507 8.35986 25.8918 8.70319C25.9912 8.78007 26.2627 9.02044 26.3199 9.39691C26.3646 9.69119 26.2678 9.99607 26.0312 10.3032C26.2437 11.1135 25.9082 12.0755 25.8935 12.1166C25.8845 12.1426 25.8604 12.1599 25.8333 12.1603L25.8329 12.1599Z" fill="#231F20"/>
<path d="M16.1863 29.4524C16.1648 29.4524 16.1433 29.4414 16.1312 29.4206C15.9737 29.1564 15.8765 28.855 15.8498 28.5484L15.8245 28.2607C15.8214 28.2241 15.8473 28.1923 15.883 28.1887C15.9187 28.1856 15.9497 28.2121 15.9531 28.2488L15.9785 28.5365C16.0034 28.8228 16.0942 29.1043 16.2414 29.3513C16.2599 29.3826 16.2504 29.4233 16.2198 29.4423C16.2095 29.4489 16.1979 29.452 16.1863 29.452V29.4524Z" fill="#231F20"/>
<path d="M16.9876 30.7375C16.9842 30.7375 16.9808 30.7375 16.9773 30.7366L16.0385 30.5789C16.0033 30.5731 15.9796 30.5387 15.9852 30.5029C15.9908 30.4667 16.0243 30.4424 16.0592 30.4481L16.998 30.6058C17.0332 30.6116 17.0569 30.6461 17.0513 30.6818C17.0461 30.7145 17.0186 30.7375 16.9876 30.7375Z" fill="#231F20"/>
<path d="M13.0768 25.4509C13.045 25.4509 13.0174 25.4266 13.0131 25.3934L13.0123 25.3872C13.0088 25.3598 13.0222 25.3329 13.0458 25.3201L14.0775 24.7576C14.1089 24.7408 14.1481 24.7527 14.1648 24.785C14.1816 24.8172 14.1696 24.8574 14.1382 24.8747L13.128 25.4252C13.1181 25.4385 13.103 25.4478 13.0858 25.4504C13.0828 25.4504 13.0802 25.4509 13.0772 25.4509H13.0768Z" fill="#231F20"/>
<path d="M14.8304 24.4882C14.8072 24.4882 14.7848 24.4754 14.7732 24.4528C14.7564 24.4206 14.7685 24.3804 14.7999 24.3631L15.4895 23.9871C15.5085 23.977 15.5317 23.977 15.5506 23.9871C15.5696 23.9977 15.582 24.0172 15.5842 24.0393L15.5889 24.094C15.5919 24.1307 15.5661 24.1625 15.5304 24.1661C15.5089 24.1678 15.4895 24.159 15.4762 24.144L14.8601 24.4798C14.8506 24.4851 14.8403 24.4873 14.83 24.4873L14.8304 24.4882Z" fill="#231F20"/>
<path d="M16.9897 30.7372C16.9686 30.7372 16.9475 30.7266 16.9355 30.7068L16.1555 29.4625C16.1499 29.4532 16.1443 29.4439 16.1387 29.4346L16.1305 29.4201C16.112 29.3887 16.1215 29.348 16.152 29.329C16.1826 29.31 16.2222 29.3198 16.2407 29.3511L16.2501 29.3675C16.2544 29.3754 16.2592 29.3834 16.2639 29.3909L17.0439 30.6356C17.0633 30.6665 17.0547 30.7072 17.0246 30.7271C17.0138 30.7342 17.0018 30.7377 16.9897 30.7377V30.7372Z" fill="#231F20"/>
<path d="M15.8587 27.9779C15.8255 27.9779 15.7976 27.9518 15.7946 27.9174L15.6526 26.2988C15.6496 26.2622 15.6754 26.2303 15.7111 26.2268C15.7464 26.2237 15.7778 26.2502 15.7812 26.2869L15.9232 27.9054C15.9262 27.9421 15.9004 27.9739 15.8647 27.9775C15.8625 27.9775 15.8608 27.9775 15.8587 27.9775V27.9779Z" fill="#231F20"/>
<path d="M15.7176 26.3595C15.6845 26.3595 15.6565 26.3334 15.6535 26.299L15.4612 24.1064C15.4582 24.0698 15.484 24.038 15.5197 24.0344C15.555 24.0313 15.5864 24.0578 15.5898 24.0945L15.7821 26.287C15.7851 26.3237 15.7593 26.3555 15.7236 26.3591C15.7215 26.3591 15.7197 26.3591 15.7176 26.3591V26.3595Z" fill="#231F20"/>
<path d="M14.9819 30.3393C14.9737 30.3393 14.966 30.338 14.9578 30.3344C14.1731 30.0123 13.6 29.3124 13.4245 28.4627C13.4245 28.4609 13.424 28.4596 13.4236 28.4578L13.0123 25.3935C13.0076 25.3573 13.0321 25.3237 13.0674 25.3189C13.1022 25.3145 13.1353 25.3392 13.1401 25.3754L13.551 28.4371C13.7179 29.2421 14.2617 29.9054 15.0056 30.2107C15.0387 30.2244 15.0546 30.2628 15.0417 30.2969C15.0318 30.3229 15.0073 30.3384 14.9819 30.3384V30.3393Z" fill="#231F20"/>
<path d="M15.8874 28.3205C15.8543 28.3205 15.8263 28.2944 15.8233 28.2599L15.7932 27.9171C15.7902 27.8804 15.816 27.8486 15.8517 27.845C15.8874 27.8415 15.9184 27.8685 15.9218 27.9051L15.952 28.248C15.955 28.2847 15.9292 28.3165 15.8935 28.32C15.8913 28.32 15.8896 28.32 15.8874 28.32V28.3205Z" fill="#231F20"/>
<path d="M16.0505 30.5794C16.0295 30.5794 16.0084 30.5688 15.9963 30.5489L15.5454 29.8287C15.3118 29.4566 15.1681 29.0271 15.1298 28.5862L14.7659 24.4278C14.7628 24.3911 14.7891 24.3593 14.8244 24.3558C14.8592 24.3522 14.8911 24.3792 14.8945 24.4159L15.2585 28.5742C15.295 28.9935 15.4319 29.4027 15.6543 29.7566L16.1056 30.4769C16.125 30.5078 16.1164 30.5485 16.0862 30.5683C16.0755 30.5754 16.0634 30.5789 16.0514 30.5789L16.0505 30.5794Z" fill="#231F20"/>
<path d="M14.982 30.3389C14.9609 30.3389 14.9398 30.3283 14.9278 30.3084L14.8142 30.1272C14.581 29.7543 14.4373 29.3244 14.399 28.8843L14.0432 24.8223C14.0402 24.7856 14.066 24.7538 14.1017 24.7502C14.1374 24.7472 14.1684 24.7737 14.1718 24.8103L14.5276 28.8728C14.5642 29.2917 14.701 29.7009 14.923 30.0561L15.0366 30.2373C15.056 30.2682 15.0474 30.3089 15.0173 30.3287C15.0065 30.3358 14.9945 30.3393 14.9824 30.3393L14.982 30.3389Z" fill="#231F20"/>
<path d="M16.0495 30.5794C16.046 30.5794 16.0426 30.5794 16.0391 30.5785L15.4902 30.4862C15.3065 30.4552 15.1275 30.4035 14.9584 30.3337C14.9253 30.32 14.9093 30.2816 14.9227 30.2476C14.936 30.2135 14.9735 30.1972 15.0066 30.2109C15.1671 30.2772 15.3366 30.3262 15.5108 30.3554L16.0598 30.4477C16.0951 30.4535 16.1187 30.4879 16.1131 30.5237C16.108 30.5564 16.0804 30.5794 16.0495 30.5794Z" fill="#231F20"/>
<path d="M14.1078 24.882C14.0845 24.882 14.0622 24.8692 14.0505 24.8466C14.0338 24.8144 14.0458 24.7742 14.0772 24.7569L14.7983 24.3633C14.8297 24.346 14.8688 24.3584 14.8856 24.3906C14.9024 24.4229 14.8904 24.4631 14.859 24.4803L14.1379 24.874C14.1284 24.8793 14.1177 24.882 14.1078 24.882Z" fill="#231F20"/>
<path d="M21.1817 30.7379C21.1697 30.7379 21.1576 30.7344 21.1469 30.7273C21.1168 30.7074 21.1082 30.6663 21.1275 30.6358L21.8826 29.4309C21.9019 29.4 21.942 29.3911 21.9716 29.411C22.0018 29.4309 22.0104 29.472 21.991 29.5025L21.2359 30.7074C21.2235 30.7273 21.2028 30.7379 21.1817 30.7379Z" fill="#231F20"/>
<path d="M21.1817 30.7375C21.1507 30.7375 21.1232 30.7145 21.118 30.6818C21.1124 30.6456 21.1361 30.6116 21.1714 30.6058L22.1106 30.4481C22.1458 30.4424 22.179 30.4667 22.1846 30.5029C22.1901 30.5391 22.1665 30.5731 22.1312 30.5789L21.192 30.7366C21.1886 30.7371 21.1851 30.7375 21.1817 30.7375Z" fill="#231F20"/>
<path d="M22.3812 27.2358C22.3812 27.2358 22.3773 27.2358 22.3752 27.2358C22.3394 27.2327 22.3136 27.2004 22.3166 27.1638L22.3709 26.5447C22.3739 26.508 22.4048 26.4815 22.441 26.4846C22.4767 26.4877 22.5025 26.52 22.4995 26.5566L22.4453 27.1757C22.4423 27.2102 22.4143 27.2362 22.3812 27.2362V27.2358Z" fill="#231F20"/>
<path d="M22.3499 27.5766C22.3499 27.5766 22.3461 27.5766 22.3439 27.5766C22.3082 27.5735 22.2824 27.5413 22.2854 27.5046L22.3151 27.1639C22.3181 27.1272 22.3491 27.1003 22.3852 27.1038C22.4209 27.1069 22.4467 27.1392 22.4437 27.1759L22.414 27.5165C22.411 27.551 22.3831 27.5771 22.3499 27.5771V27.5766Z" fill="#231F20"/>
<path d="M25.0952 25.4506C25.0922 25.4506 25.0896 25.4506 25.0866 25.4502C25.0694 25.448 25.0543 25.4387 25.0444 25.4254L24.0343 24.8749C24.0028 24.8576 23.9908 24.8174 24.0076 24.7852C24.0244 24.7529 24.0635 24.7405 24.0949 24.7578L25.1266 25.3203C25.1507 25.3331 25.164 25.36 25.1602 25.3879L25.1593 25.3941C25.155 25.4272 25.127 25.4515 25.0956 25.4515L25.0952 25.4506Z" fill="#231F20"/>
<path d="M22.4359 26.6163C22.4359 26.6163 22.432 26.6163 22.4298 26.6163C22.3941 26.6132 22.3683 26.581 22.3713 26.5443L22.5873 24.0809C22.5903 24.0442 22.6217 24.0173 22.6574 24.0208C22.6931 24.0239 22.719 24.0562 22.7159 24.0928L22.5 26.5562C22.497 26.5907 22.469 26.6167 22.4359 26.6167V26.6163Z" fill="#231F20"/>
<path d="M23.1895 30.3385C23.1641 30.3385 23.1395 30.3226 23.1297 30.297C23.1163 30.2629 23.1327 30.2245 23.1658 30.2108C23.9097 29.905 24.4535 29.2422 24.6204 28.4372L25.0313 25.3755C25.036 25.3393 25.0691 25.3141 25.104 25.319C25.1393 25.3238 25.1638 25.3574 25.1591 25.3936L24.7478 28.4579C24.7478 28.4579 24.7473 28.461 24.7469 28.4628C24.5714 29.3125 23.9983 30.012 23.2135 30.3345C23.2058 30.3376 23.1976 30.3394 23.1895 30.3394V30.3385Z" fill="#231F20"/>
<path d="M23.3434 24.4886C23.3331 24.4886 23.3227 24.486 23.3133 24.4811L22.689 24.1404C22.6765 24.1497 22.6606 24.1546 22.6447 24.1532C22.609 24.1501 22.5832 24.1179 22.5862 24.0812L22.5896 24.0406C22.5913 24.0185 22.6042 23.9986 22.6232 23.9884C22.6421 23.9778 22.6653 23.9778 22.6843 23.9884L23.3739 24.3644C23.4053 24.3817 23.4174 24.4219 23.4006 24.4541C23.389 24.4767 23.3666 24.4895 23.3434 24.4895V24.4886Z" fill="#231F20"/>
<path d="M21.9395 29.5328C21.9275 29.5328 21.9155 29.5293 21.9047 29.5222C21.8746 29.5023 21.866 29.4612 21.8853 29.4307L21.9103 29.3914C22.0712 29.136 22.1697 28.8404 22.1964 28.5369L22.2867 27.5047C22.2898 27.468 22.3212 27.4415 22.3569 27.4446C22.3926 27.4477 22.4184 27.4799 22.4154 27.5166L22.325 28.5488C22.2966 28.8736 22.1908 29.1899 22.0187 29.4634L21.9942 29.5028C21.9817 29.5226 21.9611 29.5333 21.94 29.5333L21.9395 29.5328Z" fill="#231F20"/>
<path d="M23.1895 30.3393C23.1775 30.3393 23.1655 30.3358 23.1547 30.3287C23.1246 30.3088 23.116 30.2678 23.1353 30.2373L23.2489 30.0561C23.4709 29.7013 23.6077 29.2921 23.6443 28.8728L24.0001 24.8103C24.0031 24.7737 24.0345 24.7472 24.0702 24.7502C24.1059 24.7533 24.1318 24.7856 24.1287 24.8223L23.7729 28.8847C23.7347 29.3248 23.591 29.7548 23.3578 30.1277L23.2442 30.3088C23.2317 30.3287 23.2111 30.3393 23.19 30.3393H23.1895Z" fill="#231F20"/>
<path d="M22.1231 30.5799C22.1111 30.5799 22.099 30.5764 22.0883 30.5693C22.0582 30.5494 22.0496 30.5083 22.0689 30.4779L22.5198 29.7576C22.7418 29.4037 22.8786 28.9945 22.9156 28.5752L23.2796 24.4169C23.2826 24.3802 23.3149 24.3532 23.3497 24.3568C23.3854 24.3598 23.4113 24.3921 23.4082 24.4288L23.0443 28.5871C23.0055 29.0281 22.8618 29.4576 22.6287 29.8296L22.1778 30.5499C22.1653 30.5698 22.1447 30.5804 22.1236 30.5804L22.1231 30.5799Z" fill="#231F20"/>
<path d="M24.0628 24.882C24.0525 24.882 24.0421 24.8793 24.0327 24.874L23.3116 24.4803C23.2802 24.4631 23.2681 24.4229 23.2849 24.3906C23.3017 24.3584 23.3408 24.346 23.3723 24.3633L24.0933 24.7569C24.1247 24.7742 24.1368 24.8144 24.12 24.8466C24.1084 24.8692 24.086 24.882 24.0628 24.882Z" fill="#231F20"/>
<path d="M22.1231 30.5794C22.0921 30.5794 22.0646 30.5564 22.0594 30.5237C22.0538 30.4875 22.0775 30.4535 22.1128 30.4477L22.6617 30.3554C22.836 30.3258 23.0055 30.2772 23.166 30.2109C23.1991 30.1972 23.2365 30.2135 23.2499 30.2476C23.2632 30.2816 23.2473 30.32 23.2142 30.3337C23.0451 30.404 22.8661 30.4552 22.6824 30.4862L22.1334 30.5785C22.13 30.579 22.1265 30.5794 22.1231 30.5794Z" fill="#231F20"/>
<path d="M22.4598 21.0056C20.7754 21.0056 19.5759 20.3799 18.835 19.8126C17.9135 19.1074 17.4944 18.3588 17.4772 18.327C17.4596 18.2952 17.4703 18.255 17.5013 18.2369C17.5323 18.2188 17.5715 18.2298 17.5891 18.2616C17.5934 18.2691 18.015 19.0212 18.9168 19.7096C19.7476 20.3441 21.1682 21.0533 23.2204 20.8306C24.0637 20.7387 24.737 20.3463 25.2214 19.6641C25.8057 18.8418 26.1215 17.613 26.1602 16.0112C26.1993 14.3967 25.9369 12.9036 25.8225 12.3363C25.8083 12.2665 25.7919 12.1909 25.7721 12.1052C25.7639 12.0694 25.7855 12.0341 25.8199 12.0252C25.8552 12.0168 25.8891 12.0389 25.8977 12.0743C25.918 12.1613 25.9347 12.2378 25.9489 12.3089C26.0642 12.8807 26.3288 14.3861 26.2893 16.0139C26.2501 17.6426 25.9257 18.897 25.3255 19.7414C24.8183 20.4555 24.1144 20.866 23.2337 20.9614C22.9653 20.9906 22.7071 21.0043 22.4598 21.0043V21.0056Z" fill="#231F20"/>
<path d="M15.5255 24.1673C15.5255 24.1673 15.5238 24.1673 15.5229 24.1673C15.4872 24.166 15.4597 24.135 15.461 24.0988L15.6993 17.4201C15.7006 17.3834 15.7307 17.3556 15.766 17.3565C15.8017 17.3578 15.8293 17.3887 15.828 17.425L15.5896 24.1037C15.5883 24.1395 15.5595 24.1677 15.5251 24.1677L15.5255 24.1673Z" fill="#231F20"/>
<path d="M17.464 32.1528C17.4287 32.1528 17.3999 32.1237 17.3994 32.0874L17.3848 31.038C17.3783 30.9024 17.2772 30.7861 17.1443 30.7636L16.9799 30.7362C16.9447 30.7305 16.921 30.696 16.9266 30.6602C16.9322 30.6244 16.9658 30.5992 17.0006 30.6054L17.1649 30.6328C17.3573 30.6651 17.504 30.8339 17.5134 31.0336L17.5281 32.0852C17.5285 32.1219 17.5001 32.1519 17.4644 32.1524H17.4635L17.464 32.1528Z" fill="#231F20"/>
<path d="M4.75562 27.9091C4.74314 27.9091 4.73066 27.9056 4.71948 27.8977C4.69022 27.8769 4.68248 27.8358 4.7027 27.8058L4.84941 27.5848C5.33815 26.8478 6.11042 26.345 6.9683 26.2058L13.0681 25.319C13.103 25.3141 13.1361 25.3393 13.1413 25.3755C13.1464 25.4117 13.1215 25.4453 13.0862 25.4506L6.98766 26.3374C6.16592 26.4709 5.42549 26.9534 4.95653 27.6604L4.80983 27.8813C4.79735 27.9003 4.77713 27.9105 4.75648 27.9105L4.75562 27.9091Z" fill="#231F20"/>
<path d="M17.5021 34.9593C17.4668 34.9593 17.438 34.9302 17.4376 34.8939L17.3984 32.0877C17.398 32.051 17.4264 32.0209 17.4621 32.0205H17.463C17.4983 32.0205 17.5271 32.0497 17.5275 32.0859L17.5667 34.8922C17.5671 34.9288 17.5387 34.9589 17.503 34.9593H17.5021Z" fill="#231F20"/>
<path d="M17.6245 43.7324H7.93563C7.89992 43.7324 7.87109 43.7028 7.87109 43.6661C7.87109 43.6295 7.89992 43.5999 7.93563 43.5999H17.5586L17.4373 34.8943C17.4369 34.8577 17.4653 34.8276 17.501 34.8272C17.5358 34.8263 17.566 34.8559 17.5664 34.8926L17.6886 43.6653C17.6886 43.6829 17.6821 43.7002 17.6701 43.7125C17.658 43.7249 17.6412 43.7324 17.624 43.7324H17.6245Z" fill="#231F20"/>
<path d="M7.93508 43.7321H-0.787028C-0.804237 43.7321 -0.820586 43.7251 -0.832632 43.7127C-0.844679 43.7003 -0.851562 43.6835 -0.851562 43.6659L-0.84769 36.1958C-0.84769 36.1825 -0.843818 36.1697 -0.836504 36.1587L4.7036 27.8062C4.72382 27.7761 4.76383 27.7682 4.79309 27.7889C4.82234 27.8097 4.83009 27.8508 4.80987 27.8808L-0.718621 36.2161L-0.722493 43.5991H7.93508C7.97079 43.5991 7.99961 43.6288 7.99961 43.6654C7.99961 43.7021 7.97079 43.7317 7.93508 43.7317V43.7321Z" fill="#231F20"/>
<path d="M22.6505 24.1534C22.6462 24.1534 22.6419 24.153 22.6376 24.1521C22.6337 24.1512 22.6294 24.1499 22.6255 24.1481C22.6216 24.1464 22.6178 24.1446 22.6143 24.1419C22.6109 24.1397 22.6074 24.1371 22.6044 24.134C22.5924 24.1216 22.5859 24.1044 22.5859 24.0867C22.5859 24.0827 22.5859 24.0783 22.5868 24.0739C22.5877 24.0699 22.589 24.0655 22.5907 24.0615C22.5924 24.0576 22.5941 24.0536 22.5967 24.05C22.5988 24.0465 22.6014 24.043 22.6044 24.0403C22.6074 24.0372 22.6109 24.0341 22.6143 24.0319C22.6178 24.0293 22.6216 24.0275 22.6255 24.0257C22.6294 24.024 22.6337 24.0226 22.6376 24.0218C22.6586 24.0173 22.681 24.0249 22.6961 24.0403C22.7077 24.0522 22.715 24.0695 22.715 24.0867C22.715 24.1039 22.7077 24.1216 22.6961 24.134C22.6931 24.1371 22.6896 24.1397 22.6862 24.1419C22.6827 24.1446 22.6789 24.1464 22.675 24.1481C22.6711 24.1499 22.6668 24.1512 22.6629 24.1521C22.6586 24.153 22.6543 24.1534 22.6505 24.1534Z" fill="#231F20"/>
<path d="M22.6505 24.1537C22.6148 24.1537 22.5859 24.1241 22.5859 24.0874V20.9471C22.5859 20.9105 22.6148 20.8809 22.6505 20.8809C22.6862 20.8809 22.715 20.9105 22.715 20.9471V24.0874C22.715 24.1241 22.6862 24.1537 22.6505 24.1537Z" fill="#231F20"/>
<path d="M20.6739 34.691H20.6731C20.6373 34.6905 20.6089 34.6605 20.6094 34.6238L20.6593 31.0368C20.6688 30.8344 20.8155 30.6661 21.0078 30.6338L21.1721 30.6064C21.207 30.6002 21.2405 30.625 21.2461 30.6612C21.2517 30.6974 21.2281 30.7315 21.1928 30.7372L21.0284 30.7646C20.8959 30.7867 20.7944 30.9033 20.7879 31.0412L20.738 34.626C20.7376 34.6623 20.7088 34.6914 20.6735 34.6914L20.6739 34.691Z" fill="#231F20"/>
<path d="M20.6231 38.4783H20.6223C20.5866 38.4779 20.5582 38.4478 20.5586 38.4112L20.6115 34.624C20.6119 34.5878 20.6408 34.5586 20.6761 34.5586H20.6769C20.7126 34.559 20.741 34.5891 20.7406 34.6258L20.6877 38.4129C20.6872 38.4492 20.6584 38.4783 20.6231 38.4783Z" fill="#231F20"/>
<path d="M41.2457 43.7317H30.2911C30.2554 43.7317 30.2266 43.7021 30.2266 43.6654C30.2266 43.6287 30.2554 43.5991 30.2911 43.5991H41.1811V38.6048L33.4154 27.8861C33.3939 27.8565 33.4 27.8154 33.4288 27.7933C33.4572 27.7717 33.4976 27.7774 33.5191 27.807L41.2973 38.5434C41.3055 38.5548 41.3102 38.5685 41.3102 38.5831V43.6658C41.3102 43.7025 41.2814 43.7321 41.2457 43.7321V43.7317Z" fill="#231F20"/>
<path d="M33.4701 27.9132C33.4503 27.9132 33.4309 27.9039 33.4185 27.8867L33.1861 27.5664C32.7103 26.9093 32.0146 26.4772 31.2273 26.349L25.0866 25.4503C25.0513 25.445 25.0268 25.4114 25.0319 25.3752C25.0371 25.3389 25.0694 25.3138 25.1051 25.3191L31.2471 26.2182C32.0688 26.3521 32.7942 26.8024 33.2902 27.4873L33.5226 27.8076C33.5441 27.8372 33.5381 27.8783 33.5092 27.9004C33.4976 27.9092 33.4843 27.9137 33.4709 27.9137L33.4701 27.9132Z" fill="#231F20"/>
<path d="M7.93421 43.7322C7.89979 43.7322 7.87097 43.7039 7.86968 43.6681L7.52377 33.8031C7.48677 32.7497 7.16409 31.7308 6.59016 30.8573L4.70187 27.88C4.68251 27.8495 4.69069 27.8084 4.7208 27.7881C4.75049 27.7682 4.7905 27.7766 4.81029 27.8075L6.69772 30.7839C7.28456 31.6773 7.61498 32.7201 7.65284 33.7983L7.99875 43.6633C8.00004 43.6999 7.97207 43.7304 7.93636 43.7317C7.9355 43.7317 7.93464 43.7317 7.93421 43.7317V43.7322Z" fill="#231F20"/>
<path d="M30.295 43.732C30.295 43.732 30.2933 43.732 30.2929 43.732C30.2572 43.7307 30.2292 43.6997 30.2305 43.6635L30.5764 33.7985C30.6143 32.7204 30.9447 31.6776 31.532 30.7833L33.4168 27.8113C33.4362 27.7808 33.4762 27.772 33.5063 27.7919C33.536 27.8118 33.5446 27.8529 33.5252 27.8838L31.64 30.8566C31.0656 31.7315 30.7425 32.75 30.7059 33.8034L30.36 43.6684C30.3587 43.7042 30.3303 43.7324 30.2955 43.7324L30.295 43.732Z" fill="#231F20"/>
<path d="M19.1967 28.6059C18.9618 28.6059 18.7346 28.5922 18.5217 28.5657C18.4864 28.5613 18.461 28.5281 18.4653 28.4919C18.4696 28.4557 18.5023 28.43 18.5372 28.434C18.745 28.4601 18.967 28.4733 19.1967 28.4733C19.6076 28.4733 19.9888 28.4309 20.3291 28.3465C20.3635 28.3381 20.3988 28.3598 20.407 28.3956C20.4151 28.4309 20.3941 28.4672 20.3592 28.4756C20.009 28.5622 19.6179 28.6059 19.1967 28.6059Z" fill="#231F20"/>
<path d="M18.2628 28.5244C18.2589 28.5244 18.2551 28.5244 18.2512 28.5235C17.5529 28.3941 16.9682 28.1104 16.5131 27.6796C16.4868 27.6548 16.4851 27.6128 16.5092 27.5859C16.5333 27.5589 16.5742 27.5572 16.6004 27.5819C17.0371 27.9955 17.6003 28.2681 18.274 28.3932C18.3088 28.3998 18.3325 28.4343 18.3261 28.4701C18.3205 28.5019 18.2934 28.5244 18.2628 28.5244Z" fill="#231F20"/>
<path d="M16.3686 27.5012C16.351 27.5012 16.3333 27.4937 16.3208 27.4796C16.0347 27.1548 15.811 26.7629 15.6561 26.3153C15.6441 26.2808 15.6617 26.2428 15.6953 26.2305C15.7288 26.2181 15.7658 26.2362 15.7779 26.2707C15.9272 26.7019 16.1419 27.0788 16.4168 27.3903C16.4409 27.4173 16.4387 27.4593 16.4121 27.484C16.3996 27.4955 16.3841 27.5012 16.3686 27.5012Z" fill="#231F20"/>
<path d="M22.2207 27.0908C22.2099 27.0908 22.1987 27.0882 22.1888 27.082C22.1578 27.0639 22.1471 27.0232 22.1647 26.9918C22.2443 26.8482 22.3145 26.6922 22.373 26.5279C22.3854 26.4934 22.4224 26.4757 22.4556 26.4886C22.4891 26.5014 22.5063 26.5394 22.4939 26.5734C22.4328 26.7444 22.3596 26.907 22.2766 27.0572C22.2645 27.0789 22.243 27.0908 22.2207 27.0908Z" fill="#231F20"/>
<path d="M20.5997 28.4035C20.5722 28.4035 20.5468 28.3854 20.5382 28.3571C20.5274 28.3222 20.5463 28.285 20.5803 28.274C21.196 28.0738 21.6813 27.7195 22.0229 27.2215C22.0436 27.1914 22.0836 27.1844 22.1128 27.2056C22.1421 27.2268 22.149 27.2679 22.1283 27.2979C21.7704 27.8202 21.2627 28.1914 20.6195 28.4008C20.613 28.403 20.6066 28.4039 20.6001 28.4039L20.5997 28.4035Z" fill="#231F20"/>
<path d="M21.0253 29.9035C20.9969 29.9035 20.971 29.8845 20.9633 29.8553C20.9538 29.82 20.9736 29.7833 21.008 29.7736C21.3303 29.6808 21.6323 29.5575 21.9068 29.4082C21.9382 29.3909 21.9774 29.4033 21.9941 29.4356C22.0109 29.4678 21.9989 29.508 21.9675 29.5253C21.6852 29.679 21.3742 29.8054 21.0433 29.9013C21.0373 29.9031 21.0317 29.9039 21.0257 29.9039L21.0253 29.9035Z" fill="#231F20"/>
<path d="M17.8501 30.0291C17.8467 30.0291 17.8428 30.0291 17.8393 30.0282C17.2056 29.9177 16.6386 29.7211 16.1541 29.4436C16.1232 29.4259 16.112 29.3853 16.1292 29.3535C16.1464 29.3216 16.1855 29.3097 16.2169 29.3278C16.6885 29.5978 17.2418 29.7896 17.8609 29.8974C17.8961 29.9036 17.9198 29.9376 17.9138 29.9738C17.9086 30.0061 17.8811 30.0291 17.8501 30.0291Z" fill="#231F20"/>
<path d="M19.1949 30.1389C18.8137 30.1389 18.4476 30.1155 18.1069 30.0699C18.0716 30.0651 18.0466 30.0319 18.0514 29.9957C18.0561 29.9595 18.0888 29.9339 18.1236 29.9387C18.4584 29.9838 18.8189 30.0068 19.1945 30.0068C19.7589 30.0068 20.283 29.9506 20.7524 29.8406C20.7876 29.8322 20.8216 29.8548 20.8298 29.8906C20.838 29.9263 20.816 29.9617 20.7812 29.9701C20.3023 30.0828 19.7688 30.1398 19.1945 30.1398L19.1949 30.1389Z" fill="#231F20"/>
<path d="M16.5569 27.6968C16.5414 27.6968 16.5255 27.6911 16.5134 27.6796C16.448 27.6182 16.3835 27.551 16.3211 27.4798C16.2975 27.4525 16.2996 27.4109 16.3259 27.3862C16.3525 27.3619 16.393 27.3636 16.4171 27.391C16.4769 27.4591 16.5384 27.5232 16.6008 27.5819C16.627 27.6067 16.6287 27.6486 16.6046 27.6756C16.5917 27.6897 16.5745 27.6972 16.5569 27.6972V27.6968Z" fill="#231F20"/>
<path d="M18.5299 28.5659C18.5273 28.5659 18.5247 28.5659 18.5221 28.5654C18.43 28.554 18.3393 28.5398 18.2524 28.5239C18.2171 28.5173 18.1938 28.4828 18.2003 28.447C18.2067 28.4108 18.2403 28.3874 18.2752 28.3936C18.3599 28.409 18.4481 28.4227 18.538 28.4342C18.5733 28.4386 18.5987 28.4718 18.5944 28.508C18.5905 28.5416 18.5626 28.5663 18.5303 28.5663L18.5299 28.5659Z" fill="#231F20"/>
<path d="M18.1161 30.0699C18.1135 30.0699 18.1105 30.0699 18.1079 30.0695C18.0163 30.0575 17.9255 30.0434 17.8386 30.0279C17.8033 30.0217 17.7801 29.9873 17.7861 29.9515C17.7921 29.9152 17.8257 29.8909 17.8605 29.8976C17.9457 29.9126 18.0344 29.9263 18.1238 29.9382C18.1591 29.9431 18.1841 29.9762 18.1798 30.0125C18.1755 30.046 18.1479 30.0703 18.1157 30.0703L18.1161 30.0699Z" fill="#231F20"/>
<path d="M20.3419 28.4765C20.3126 28.4765 20.2864 28.4561 20.2791 28.4256C20.2709 28.3899 20.2924 28.3545 20.3268 28.3457C20.4116 28.3249 20.4968 28.3006 20.5794 28.2736C20.6138 28.2626 20.6495 28.2816 20.6607 28.3165C20.6715 28.3514 20.653 28.3885 20.619 28.4C20.5333 28.4283 20.4451 28.4535 20.357 28.4747C20.3518 28.476 20.3471 28.4765 20.3419 28.4765Z" fill="#231F20"/>
<path d="M20.7675 29.9704C20.7378 29.9704 20.7116 29.9497 20.7047 29.9187C20.697 29.883 20.7185 29.8476 20.7533 29.8397C20.8398 29.8193 20.9237 29.7977 21.0097 29.7729C21.0442 29.7632 21.0799 29.7835 21.0893 29.8189C21.0988 29.8542 21.079 29.8909 21.0446 29.9006C20.9564 29.9258 20.8708 29.9484 20.7821 29.9691C20.7774 29.9704 20.7727 29.9709 20.7679 29.9709L20.7675 29.9704Z" fill="#231F20"/>
<path d="M22.0762 27.3256C22.0633 27.3256 22.0504 27.3217 22.0392 27.3137C22.01 27.2925 22.0031 27.2514 22.0233 27.2214C22.0753 27.1449 22.1231 27.0676 22.1648 26.9916C22.1825 26.9598 22.2216 26.9487 22.2526 26.9664C22.2836 26.9845 22.2948 27.0247 22.2771 27.0566C22.2332 27.1361 22.1833 27.2174 22.1287 27.2974C22.1162 27.3159 22.096 27.3256 22.0758 27.3256H22.0762Z" fill="#231F20"/>
<path d="M20.62 38.4783C20.6015 38.4783 20.583 38.4704 20.5705 38.4545C20.5344 38.4103 20.4991 38.3652 20.4638 38.3201C20.3528 38.1792 20.2379 38.0334 20.1072 37.9114C19.9888 37.8014 19.8525 37.7055 19.7199 37.6127C19.5233 37.4749 19.3203 37.3326 19.1654 37.1368C18.7222 36.577 18.8104 35.6328 19.359 35.0751C19.8043 34.6222 20.2539 34.559 20.6733 34.5586C20.709 34.5586 20.7379 34.5882 20.7379 34.6249C20.7379 34.6615 20.709 34.6912 20.6733 34.6912C20.2207 34.6916 19.8391 34.7733 19.4498 35.1692C18.9468 35.6809 18.8625 36.5434 19.2656 37.0529C19.4089 37.2336 19.5952 37.3644 19.7927 37.5032C19.9286 37.5986 20.0689 37.6971 20.1936 37.8133C20.3317 37.9419 20.4496 38.0917 20.5641 38.2366C20.5989 38.2813 20.6342 38.3255 20.6699 38.3692C20.6927 38.3975 20.6888 38.439 20.6617 38.4624C20.6497 38.4726 20.635 38.4779 20.6204 38.4779L20.62 38.4783Z" fill="#231F20"/>
<path d="M17.5018 34.9589C17.4824 34.9589 17.4631 34.9501 17.4506 34.9328C17.4291 34.9037 17.4342 34.8621 17.4626 34.84C17.5526 34.7693 17.6261 34.7 17.6877 34.6266C17.92 34.3509 18.034 33.9771 18.1347 33.647C18.2586 33.2405 18.3846 32.6661 18.0495 32.37C17.9109 32.2476 17.7216 32.203 17.5233 32.1646C17.5104 32.1619 17.4975 32.1597 17.485 32.1575L17.4515 32.1513C17.4162 32.1447 17.3934 32.1102 17.3994 32.074C17.4059 32.0378 17.4398 32.0143 17.4747 32.0205L17.5065 32.0263C17.5199 32.0285 17.5336 32.0311 17.547 32.0338C17.7548 32.074 17.9712 32.1252 18.1334 32.2693C18.5262 32.6166 18.3924 33.2445 18.2577 33.6863C18.1532 34.0288 18.0349 34.4163 17.7853 34.7128C17.7178 34.7928 17.6382 34.8688 17.5409 34.9448C17.5293 34.954 17.5156 34.9585 17.5018 34.9585V34.9589Z" fill="#231F20"/>
<path d="M15.863 17.5001C15.8255 17.5001 15.7873 17.4957 15.749 17.4873C15.7141 17.4793 15.6922 17.444 15.6999 17.4082C15.7077 17.3724 15.7416 17.3499 15.7769 17.3578C15.8058 17.3644 15.8346 17.3675 15.863 17.3675C16.0824 17.3675 16.2609 17.1842 16.2609 16.9588C16.2609 16.7335 16.0824 16.5501 15.863 16.5501C15.6436 16.5501 15.465 16.7335 15.465 16.9588C15.465 17.0238 15.4796 17.0861 15.5089 17.1448C15.5252 17.1775 15.5128 17.2173 15.4809 17.2341C15.4491 17.2509 15.4104 17.2381 15.394 17.2054C15.3553 17.128 15.3359 17.0454 15.3359 16.9592C15.3359 16.6606 15.5726 16.418 15.863 16.418C16.1534 16.418 16.39 16.661 16.39 16.9592C16.39 17.2575 16.1534 17.5005 15.863 17.5005V17.5001Z" fill="#231F20"/>
<path d="M15.763 17.4892C15.7583 17.4892 15.754 17.4887 15.7493 17.4874C15.5953 17.4525 15.4658 17.3495 15.3939 17.205C15.3776 17.1723 15.39 17.1326 15.4219 17.1158C15.4537 17.099 15.4924 17.1118 15.5088 17.1445C15.5634 17.2536 15.6611 17.3314 15.7772 17.3579C15.8121 17.3659 15.834 17.4012 15.8263 17.437C15.8198 17.4679 15.7932 17.4892 15.7635 17.4892H15.763Z" fill="#231F20"/>
<path d="M11.3562 34.0495C11.3089 34.0495 11.2616 34.0478 11.2138 34.0447C10.6674 34.0062 10.1688 33.7513 9.8091 33.3271C9.44943 32.9029 9.27217 32.3603 9.3096 31.7996C9.34703 31.2384 9.59528 30.7263 10.0083 30.3569C10.4213 29.9875 10.9492 29.8055 11.4956 29.8439C12.6233 29.9239 13.4777 30.9309 13.3998 32.089C13.3254 33.1981 12.4228 34.05 11.3562 34.05V34.0495ZM11.2228 33.9121C12.2786 33.9868 13.1985 33.1649 13.2712 32.0793C13.3439 30.9941 12.5437 30.0503 11.4866 29.9756C10.9746 29.9394 10.4798 30.1099 10.0926 30.4563C9.70585 30.8023 9.47309 31.2826 9.43781 31.8084C9.40253 32.3342 9.5686 32.8424 9.90591 33.2401C10.2428 33.6373 10.7104 33.8763 11.2224 33.9126L11.2228 33.9121Z" fill="#231F20"/>
</g>
</g>
<defs>
<clipPath id="clip0_3724_39153">
<rect x="0.703125" width="37" height="38" rx="18.5" fill="white"/>
</clipPath>
<clipPath id="clip1_3724_39153">
<rect width="37" height="38" fill="white" transform="translate(0.703125)"/>
</clipPath>
</defs>
</svg>
