<svg width="20" height="21" viewBox="0 0 20 21" fill="none" xmlns="http://www.w3.org/2000/svg">
<path d="M17.6258 5.94945L14.0505 2.37501C13.9317 2.25612 13.7906 2.16181 13.6352 2.09746C13.4799 2.03312 13.3135 2 13.1453 2C12.9772 2 12.8107 2.03312 12.6554 2.09746C12.5001 2.16181 12.359 2.25612 12.2401 2.37501L2.37521 12.2399C2.25583 12.3584 2.16119 12.4993 2.09677 12.6547C2.03236 12.81 1.99947 12.9766 2.00001 13.1447V16.72C2.00001 17.0595 2.13486 17.385 2.37491 17.6251C2.61496 17.8651 2.94054 18 3.28002 18H16.7202C16.8899 18 17.0527 17.9326 17.1727 17.8125C17.2928 17.6925 17.3602 17.5297 17.3602 17.36C17.3602 17.1903 17.2928 17.0275 17.1727 16.9074C17.0527 16.7874 16.8899 16.72 16.7202 16.72H8.66569L17.6258 7.75988C17.7447 7.64101 17.839 7.49989 17.9033 7.34457C17.9677 7.18926 18.0008 7.02278 18.0008 6.85466C18.0008 6.68655 17.9677 6.52007 17.9033 6.36476C17.839 6.20944 17.7447 6.06832 17.6258 5.94945ZM6.85526 16.72H3.28002V13.1447L10.3201 6.10466L13.8953 9.6799L6.85526 16.72ZM14.8002 8.77509L11.2257 5.19985L13.1457 3.27982L16.7202 6.85507L14.8002 8.77509Z" fill="#FCFCD8" fill-opacity="0.5"/>
</svg>
