<svg width="22" height="28" viewBox="0 0 22 28" fill="none" xmlns="http://www.w3.org/2000/svg">
<circle cx="10.9057" cy="10.06" r="3.21429" stroke="#FCFCD8"/>
<path d="M9.80939 2.06007C10.4023 1.42571 11.4083 1.42571 12.0012 2.06007L12.7624 2.87459C13.2553 3.40191 13.952 3.69049 14.6733 3.66611L15.7876 3.62845C16.6554 3.59913 17.3667 4.31047 17.3374 5.17826L17.2997 6.2925C17.2753 7.01386 17.5639 7.71056 18.0912 8.20341L18.9057 8.96467C19.5401 9.55755 19.5401 10.5635 18.9057 11.1564L18.0912 11.9177C17.5639 12.4105 17.2753 13.1072 17.2997 13.8286L17.3374 14.9428C17.3667 15.8106 16.6554 16.522 15.7876 16.4926L14.6733 16.455C13.952 16.4306 13.2553 16.7192 12.7624 17.2465L12.0012 18.061C11.4083 18.6954 10.4023 18.6954 9.80939 18.061L9.04813 17.2465C8.55529 16.7192 7.85859 16.4306 7.13723 16.455L6.02299 16.4926C5.15519 16.522 4.44385 15.8106 4.47318 14.9428L4.51084 13.8286C4.53521 13.1072 4.24663 12.4105 3.71931 11.9177L2.9048 11.1564C2.27044 10.5635 2.27044 9.55755 2.9048 8.96467L3.71931 8.20341C4.24663 7.71056 4.53521 7.01387 4.51084 6.2925L4.47318 5.17826C4.44385 4.31047 5.15519 3.59913 6.02299 3.62845L7.13723 3.66611C7.85859 3.69049 8.55529 3.4019 9.04813 2.87459L9.80939 2.06007Z" stroke="#FCFCD8"/>
<path d="M4.87578 16.251L1 22.8542H3.51072C4.33401 22.8542 5.07319 23.3587 5.3732 24.1254L6.1677 26.1557L10.9048 18.3145" stroke="#FCFCD8"/>
<path d="M16.9348 16.251L20.8105 22.8542H18.2998C17.4765 22.8542 16.7374 23.3587 16.4373 24.1254L15.6428 26.1557L10.9058 18.3145" stroke="#FCFCD8"/>
</svg>
