<svg width="14" height="14" viewBox="0 0 14 14" fill="none" xmlns="http://www.w3.org/2000/svg">
<path d="M4.66602 7.11699H8.74935M4.66602 9.45033H7.22102M5.83268 3.50033H8.16602C9.33268 3.50033 9.33268 2.91699 9.33268 2.33366C9.33268 1.16699 8.74935 1.16699 8.16602 1.16699H5.83268C5.24935 1.16699 4.66602 1.16699 4.66602 2.33366C4.66602 3.50033 5.24935 3.50033 5.83268 3.50033Z" stroke="#7D22FF" stroke-miterlimit="10" stroke-linecap="round" stroke-linejoin="round"/>
<path d="M9.33333 2.34473C11.2758 2.44973 12.25 3.16723 12.25 5.83306V9.33306C12.25 11.6664 11.6667 12.8331 8.75 12.8331H5.25C2.33333 12.8331 1.75 11.6664 1.75 9.33306V5.83306C1.75 3.17306 2.72417 2.44973 4.66667 2.34473" stroke="#7D22FF" stroke-miterlimit="10" stroke-linecap="round" stroke-linejoin="round"/>
</svg>
