<svg width="193" height="47" viewBox="0 0 193 47" fill="none" xmlns="http://www.w3.org/2000/svg">
<rect width="177" height="47" rx="15" fill="#141414"/>
<rect x="0.5" y="0.5" width="176" height="46" rx="14.5" stroke="white" stroke-opacity="0.09"/>
<path d="M55.18 27.665C54.76 28.225 54.24 28.63 53.62 28.88C53 29.12 52.375 29.24 51.745 29.24C50.945 29.24 50.23 29.095 49.6 28.805C48.97 28.505 48.435 28.105 47.995 27.605C47.555 27.105 47.22 26.53 46.99 25.88C46.76 25.23 46.645 24.555 46.645 23.855C46.645 23.075 46.75 22.335 46.96 21.635C47.18 20.925 47.5 20.305 47.92 19.775C48.35 19.245 48.88 18.825 49.51 18.515C50.15 18.195 50.895 18.035 51.745 18.035C52.325 18.035 52.87 18.105 53.38 18.245C53.9 18.375 54.36 18.585 54.76 18.875C55.17 19.165 55.51 19.535 55.78 19.985C56.06 20.425 56.25 20.96 56.35 21.59H54.925C54.855 21.18 54.725 20.83 54.535 20.54C54.345 20.24 54.11 19.995 53.83 19.805C53.55 19.615 53.23 19.475 52.87 19.385C52.52 19.285 52.145 19.235 51.745 19.235C51.095 19.235 50.535 19.365 50.065 19.625C49.605 19.885 49.225 20.23 48.925 20.66C48.635 21.08 48.42 21.565 48.28 22.115C48.14 22.655 48.07 23.21 48.07 23.78C48.07 24.34 48.15 24.88 48.31 25.4C48.47 25.91 48.705 26.365 49.015 26.765C49.325 27.155 49.705 27.47 50.155 27.71C50.615 27.94 51.145 28.055 51.745 28.055C52.305 28.055 52.8 27.965 53.23 27.785C53.66 27.605 54.02 27.36 54.31 27.05C54.61 26.73 54.835 26.36 54.985 25.94C55.135 25.51 55.2 25.05 55.18 24.56H51.76V23.36H56.455V29H55.555L55.18 27.665ZM63.2768 24.38C63.2568 24.08 63.1868 23.795 63.0668 23.525C62.9568 23.255 62.8018 23.025 62.6018 22.835C62.4118 22.635 62.1818 22.48 61.9118 22.37C61.6518 22.25 61.3618 22.19 61.0418 22.19C60.7118 22.19 60.4118 22.25 60.1418 22.37C59.8818 22.48 59.6568 22.635 59.4668 22.835C59.2768 23.035 59.1268 23.27 59.0168 23.54C58.9068 23.8 58.8418 24.08 58.8218 24.38H63.2768ZM64.5068 26.54C64.3368 27.41 63.9618 28.065 63.3818 28.505C62.8018 28.945 62.0718 29.165 61.1918 29.165C60.5718 29.165 60.0318 29.065 59.5718 28.865C59.1218 28.665 58.7418 28.385 58.4318 28.025C58.1218 27.665 57.8868 27.235 57.7268 26.735C57.5768 26.235 57.4918 25.69 57.4718 25.1C57.4718 24.51 57.5618 23.97 57.7418 23.48C57.9218 22.99 58.1718 22.565 58.4918 22.205C58.8218 21.845 59.2068 21.565 59.6468 21.365C60.0968 21.165 60.5868 21.065 61.1168 21.065C61.8068 21.065 62.3768 21.21 62.8268 21.5C63.2868 21.78 63.6518 22.14 63.9218 22.58C64.2018 23.02 64.3918 23.5 64.4918 24.02C64.6018 24.54 64.6468 25.035 64.6268 25.505H58.8218C58.8118 25.845 58.8518 26.17 58.9418 26.48C59.0318 26.78 59.1768 27.05 59.3768 27.29C59.5768 27.52 59.8318 27.705 60.1418 27.845C60.4518 27.985 60.8168 28.055 61.2368 28.055C61.7768 28.055 62.2168 27.93 62.5568 27.68C62.9068 27.43 63.1368 27.05 63.2468 26.54H64.5068ZM67.2685 21.245H68.8135V22.37H67.2685V27.185C67.2685 27.335 67.2785 27.455 67.2985 27.545C67.3285 27.635 67.3785 27.705 67.4485 27.755C67.5185 27.805 67.6135 27.84 67.7335 27.86C67.8635 27.87 68.0285 27.875 68.2285 27.875H68.8135V29H67.8385C67.5085 29 67.2235 28.98 66.9835 28.94C66.7535 28.89 66.5635 28.805 66.4135 28.685C66.2735 28.565 66.1685 28.395 66.0985 28.175C66.0285 27.955 65.9935 27.665 65.9935 27.305V22.37H64.6735V21.245H65.9935V18.92H67.2685V21.245ZM75.8147 22.925C75.8647 22.935 75.9097 22.94 75.9497 22.94C75.9997 22.94 76.0497 22.94 76.0997 22.94H76.3697C76.6397 22.94 76.8947 22.905 77.1347 22.835C77.3847 22.755 77.5997 22.645 77.7797 22.505C77.9697 22.355 78.1197 22.17 78.2297 21.95C78.3397 21.73 78.3947 21.48 78.3947 21.2C78.3947 20.63 78.2147 20.205 77.8547 19.925C77.4947 19.635 77.0447 19.49 76.5047 19.49C76.1647 19.49 75.8647 19.555 75.6047 19.685C75.3547 19.805 75.1447 19.97 74.9747 20.18C74.8147 20.39 74.6947 20.635 74.6147 20.915C74.5347 21.195 74.4947 21.49 74.4947 21.8H73.2197C73.2397 21.29 73.3197 20.825 73.4597 20.405C73.6097 19.985 73.8197 19.625 74.0897 19.325C74.3597 19.025 74.6947 18.79 75.0947 18.62C75.5047 18.45 75.9747 18.365 76.5047 18.365C76.9647 18.365 77.3897 18.425 77.7797 18.545C78.1797 18.655 78.5247 18.825 78.8147 19.055C79.1047 19.285 79.3297 19.58 79.4897 19.94C79.6597 20.3 79.7447 20.725 79.7447 21.215C79.7447 21.695 79.6047 22.12 79.3247 22.49C79.0447 22.86 78.6947 23.14 78.2747 23.33V23.36C78.9247 23.5 79.4047 23.805 79.7147 24.275C80.0347 24.745 80.1947 25.3 80.1947 25.94C80.1947 26.47 80.0947 26.94 79.8947 27.35C79.7047 27.75 79.4447 28.085 79.1147 28.355C78.7847 28.625 78.3947 28.83 77.9447 28.97C77.5047 29.1 77.0347 29.165 76.5347 29.165C75.9947 29.165 75.5047 29.09 75.0647 28.94C74.6247 28.79 74.2497 28.57 73.9397 28.28C73.6297 27.98 73.3897 27.615 73.2197 27.185C73.0597 26.755 72.9847 26.265 72.9947 25.715H74.2697C74.2897 26.405 74.4897 26.97 74.8697 27.41C75.2497 27.84 75.8047 28.055 76.5347 28.055C76.8447 28.055 77.1397 28.01 77.4197 27.92C77.6997 27.82 77.9447 27.685 78.1547 27.515C78.3647 27.335 78.5297 27.12 78.6497 26.87C78.7797 26.61 78.8447 26.32 78.8447 26C78.8447 25.67 78.7847 25.38 78.6647 25.13C78.5447 24.87 78.3847 24.655 78.1847 24.485C77.9847 24.305 77.7447 24.175 77.4647 24.095C77.1947 24.005 76.8997 23.96 76.5797 23.96C76.3097 23.96 76.0547 23.975 75.8147 24.005V22.925ZM85.3545 18.29H87.3045L90.6795 27.29L94.0695 18.29H96.0195V29H94.6695V20.09H94.6395L91.2945 29H90.0795L86.7345 20.09H86.7045V29H85.3545V18.29ZM98.6609 25.13C98.6609 25.6 98.7209 26.02 98.8409 26.39C98.9709 26.75 99.1459 27.055 99.3659 27.305C99.5859 27.545 99.8409 27.73 100.131 27.86C100.431 27.99 100.746 28.055 101.076 28.055C101.406 28.055 101.716 27.99 102.006 27.86C102.306 27.73 102.566 27.545 102.786 27.305C103.006 27.055 103.176 26.75 103.296 26.39C103.426 26.02 103.491 25.6 103.491 25.13C103.491 24.66 103.426 24.245 103.296 23.885C103.176 23.515 103.006 23.205 102.786 22.955C102.566 22.705 102.306 22.515 102.006 22.385C101.716 22.255 101.406 22.19 101.076 22.19C100.746 22.19 100.431 22.255 100.131 22.385C99.8409 22.515 99.5859 22.705 99.3659 22.955C99.1459 23.205 98.9709 23.515 98.8409 23.885C98.7209 24.245 98.6609 24.66 98.6609 25.13ZM97.3109 25.13C97.3109 24.56 97.3909 24.03 97.5509 23.54C97.7109 23.04 97.9509 22.61 98.2709 22.25C98.5909 21.88 98.9859 21.59 99.4559 21.38C99.9259 21.17 100.466 21.065 101.076 21.065C101.696 21.065 102.236 21.17 102.696 21.38C103.166 21.59 103.561 21.88 103.881 22.25C104.201 22.61 104.441 23.04 104.601 23.54C104.761 24.03 104.841 24.56 104.841 25.13C104.841 25.7 104.761 26.23 104.601 26.72C104.441 27.21 104.201 27.64 103.881 28.01C103.561 28.37 103.166 28.655 102.696 28.865C102.236 29.065 101.696 29.165 101.076 29.165C100.466 29.165 99.9259 29.065 99.4559 28.865C98.9859 28.655 98.5909 28.37 98.2709 28.01C97.9509 27.64 97.7109 27.21 97.5509 26.72C97.3909 26.23 97.3109 25.7 97.3109 25.13ZM105.894 21.245H107.094V22.475H107.124C107.654 21.535 108.494 21.065 109.644 21.065C110.154 21.065 110.579 21.135 110.919 21.275C111.259 21.415 111.534 21.61 111.744 21.86C111.954 22.11 112.099 22.41 112.179 22.76C112.269 23.1 112.314 23.48 112.314 23.9V29H111.039V23.75C111.039 23.27 110.899 22.89 110.619 22.61C110.339 22.33 109.954 22.19 109.464 22.19C109.074 22.19 108.734 22.25 108.444 22.37C108.164 22.49 107.929 22.66 107.739 22.88C107.549 23.1 107.404 23.36 107.304 23.66C107.214 23.95 107.169 24.27 107.169 24.62V29H105.894V21.245ZM115.549 21.245H117.094V22.37H115.549V27.185C115.549 27.335 115.559 27.455 115.579 27.545C115.609 27.635 115.659 27.705 115.729 27.755C115.799 27.805 115.894 27.84 116.014 27.86C116.144 27.87 116.309 27.875 116.509 27.875H117.094V29H116.119C115.789 29 115.504 28.98 115.264 28.94C115.034 28.89 114.844 28.805 114.694 28.685C114.554 28.565 114.449 28.395 114.379 28.175C114.309 27.955 114.274 27.665 114.274 27.305V22.37H112.954V21.245H114.274V18.92H115.549V21.245ZM118.061 18.29H119.336V22.385H119.366C119.466 22.145 119.606 21.945 119.786 21.785C119.966 21.615 120.166 21.48 120.386 21.38C120.616 21.27 120.851 21.19 121.091 21.14C121.341 21.09 121.581 21.065 121.811 21.065C122.321 21.065 122.746 21.135 123.086 21.275C123.426 21.415 123.701 21.61 123.911 21.86C124.121 22.11 124.266 22.41 124.346 22.76C124.436 23.1 124.481 23.48 124.481 23.9V29H123.206V23.75C123.206 23.27 123.066 22.89 122.786 22.61C122.506 22.33 122.121 22.19 121.631 22.19C121.241 22.19 120.901 22.25 120.611 22.37C120.331 22.49 120.096 22.66 119.906 22.88C119.716 23.1 119.571 23.36 119.471 23.66C119.381 23.95 119.336 24.27 119.336 24.62V29H118.061V18.29ZM126.726 26.555C126.736 26.835 126.801 27.075 126.921 27.275C127.041 27.465 127.196 27.62 127.386 27.74C127.586 27.85 127.806 27.93 128.046 27.98C128.296 28.03 128.551 28.055 128.811 28.055C129.011 28.055 129.221 28.04 129.441 28.01C129.661 27.98 129.861 27.925 130.041 27.845C130.231 27.765 130.386 27.65 130.506 27.5C130.626 27.34 130.686 27.14 130.686 26.9C130.686 26.57 130.561 26.32 130.311 26.15C130.061 25.98 129.746 25.845 129.366 25.745C128.996 25.635 128.591 25.54 128.151 25.46C127.711 25.37 127.301 25.25 126.921 25.1C126.551 24.94 126.241 24.72 125.991 24.44C125.741 24.16 125.616 23.77 125.616 23.27C125.616 22.88 125.701 22.545 125.871 22.265C126.051 21.985 126.276 21.76 126.546 21.59C126.826 21.41 127.136 21.28 127.476 21.2C127.826 21.11 128.171 21.065 128.511 21.065C128.951 21.065 129.356 21.105 129.726 21.185C130.096 21.255 130.421 21.385 130.701 21.575C130.991 21.755 131.221 22.005 131.391 22.325C131.561 22.635 131.661 23.025 131.691 23.495H130.416C130.396 23.245 130.331 23.04 130.221 22.88C130.111 22.71 129.971 22.575 129.801 22.475C129.631 22.375 129.441 22.305 129.231 22.265C129.031 22.215 128.826 22.19 128.616 22.19C128.426 22.19 128.231 22.205 128.031 22.235C127.841 22.265 127.666 22.32 127.506 22.4C127.346 22.47 127.216 22.57 127.116 22.7C127.016 22.82 126.966 22.98 126.966 23.18C126.966 23.4 127.041 23.585 127.191 23.735C127.351 23.875 127.551 23.995 127.791 24.095C128.031 24.185 128.301 24.265 128.601 24.335C128.901 24.395 129.201 24.46 129.501 24.53C129.821 24.6 130.131 24.685 130.431 24.785C130.741 24.885 131.011 25.02 131.241 25.19C131.481 25.35 131.671 25.555 131.811 25.805C131.961 26.055 132.036 26.365 132.036 26.735C132.036 27.205 131.936 27.595 131.736 27.905C131.546 28.215 131.291 28.465 130.971 28.655C130.661 28.845 130.306 28.975 129.906 29.045C129.516 29.125 129.126 29.165 128.736 29.165C128.306 29.165 127.896 29.12 127.506 29.03C127.116 28.94 126.771 28.795 126.471 28.595C126.171 28.385 125.931 28.115 125.751 27.785C125.571 27.445 125.471 27.035 125.451 26.555H126.726ZM136.93 18.29H143.965V19.49H138.355V22.895H143.275V24.095H138.355V29H136.93V18.29ZM144.839 21.245H146.039V22.88H146.069C146.379 22.25 146.759 21.785 147.209 21.485C147.659 21.185 148.229 21.045 148.919 21.065V22.415C148.409 22.415 147.974 22.485 147.614 22.625C147.254 22.765 146.964 22.97 146.744 23.24C146.524 23.51 146.364 23.84 146.264 24.23C146.164 24.61 146.114 25.05 146.114 25.55V29H144.839V21.245ZM154.55 24.38C154.53 24.08 154.46 23.795 154.34 23.525C154.23 23.255 154.075 23.025 153.875 22.835C153.685 22.635 153.455 22.48 153.185 22.37C152.925 22.25 152.635 22.19 152.315 22.19C151.985 22.19 151.685 22.25 151.415 22.37C151.155 22.48 150.93 22.635 150.74 22.835C150.55 23.035 150.4 23.27 150.29 23.54C150.18 23.8 150.115 24.08 150.095 24.38H154.55ZM155.78 26.54C155.61 27.41 155.235 28.065 154.655 28.505C154.075 28.945 153.345 29.165 152.465 29.165C151.845 29.165 151.305 29.065 150.845 28.865C150.395 28.665 150.015 28.385 149.705 28.025C149.395 27.665 149.16 27.235 149 26.735C148.85 26.235 148.765 25.69 148.745 25.1C148.745 24.51 148.835 23.97 149.015 23.48C149.195 22.99 149.445 22.565 149.765 22.205C150.095 21.845 150.48 21.565 150.92 21.365C151.37 21.165 151.86 21.065 152.39 21.065C153.08 21.065 153.65 21.21 154.1 21.5C154.56 21.78 154.925 22.14 155.195 22.58C155.475 23.02 155.665 23.5 155.765 24.02C155.875 24.54 155.92 25.035 155.9 25.505H150.095C150.085 25.845 150.125 26.17 150.215 26.48C150.305 26.78 150.45 27.05 150.65 27.29C150.85 27.52 151.105 27.705 151.415 27.845C151.725 27.985 152.09 28.055 152.51 28.055C153.05 28.055 153.49 27.93 153.83 27.68C154.18 27.43 154.41 27.05 154.52 26.54H155.78ZM162.157 24.38C162.137 24.08 162.067 23.795 161.947 23.525C161.837 23.255 161.682 23.025 161.482 22.835C161.292 22.635 161.062 22.48 160.792 22.37C160.532 22.25 160.242 22.19 159.922 22.19C159.592 22.19 159.292 22.25 159.022 22.37C158.762 22.48 158.537 22.635 158.347 22.835C158.157 23.035 158.007 23.27 157.897 23.54C157.787 23.8 157.722 24.08 157.702 24.38H162.157ZM163.387 26.54C163.217 27.41 162.842 28.065 162.262 28.505C161.682 28.945 160.952 29.165 160.072 29.165C159.452 29.165 158.912 29.065 158.452 28.865C158.002 28.665 157.622 28.385 157.312 28.025C157.002 27.665 156.767 27.235 156.607 26.735C156.457 26.235 156.372 25.69 156.352 25.1C156.352 24.51 156.442 23.97 156.622 23.48C156.802 22.99 157.052 22.565 157.372 22.205C157.702 21.845 158.087 21.565 158.527 21.365C158.977 21.165 159.467 21.065 159.997 21.065C160.687 21.065 161.257 21.21 161.707 21.5C162.167 21.78 162.532 22.14 162.802 22.58C163.082 23.02 163.272 23.5 163.372 24.02C163.482 24.54 163.527 25.035 163.507 25.505H157.702C157.692 25.845 157.732 26.17 157.822 26.48C157.912 26.78 158.057 27.05 158.257 27.29C158.457 27.52 158.712 27.705 159.022 27.845C159.332 27.985 159.697 28.055 160.117 28.055C160.657 28.055 161.097 27.93 161.437 27.68C161.787 27.43 162.017 27.05 162.127 26.54H163.387Z" fill="url(#paint0_linear_4920_92870)"/>
<path d="M28.5205 33.4825H26.4824V32.4667H28.5205C32.0824 32.4667 34.984 29.5651 34.984 26.0032V20.4857C34.984 16.9238 32.0824 14.0222 28.5205 14.0222H26.4824V13H28.5205C32.6475 13 35.9999 16.3524 35.9999 20.4794V25.9968C35.9999 30.1238 32.6475 33.4762 28.5205 33.4762V33.4825Z" fill="#FFC526"/>
<path d="M26.9962 33.4825H25.9803V32.9746C25.9803 31.146 25.5232 29.4889 24.6152 28.0603L25.2057 27.0889L25.4787 27.5206C26.4883 29.1206 26.9962 30.9555 26.9962 32.9809V33.4889V33.4825Z" fill="#FFC526"/>
<path d="M23.6574 26.7775L23.2955 26.422C21.3082 24.4474 18.8955 23.7363 18.8701 23.7299L18.8574 22.7585C21.3654 21.9648 23.2638 20.5045 24.5019 18.4156L24.7622 17.9775L25.3781 18.9363C24.2225 20.8728 22.5654 22.3204 20.432 23.2537C21.3971 23.6982 22.7622 24.4728 24.0066 25.7045L24.2352 25.9331C23.9876 26.1744 23.7908 26.4601 23.6511 26.7775H23.6574Z" fill="#FFC526"/>
<path d="M26.216 17.2032C25.9112 16.8667 25.6953 16.4603 25.5874 16.0159L25.5684 15.9397C25.9684 14.5556 25.9747 13.5206 25.9747 13.5079V13H26.9906V13.5079C26.9906 13.5524 26.9906 14.6889 26.5461 16.219L26.216 17.2032Z" fill="#FFC526"/>
<path d="M23.5175 33.4825H21.4794C17.3524 33.4825 14 30.1302 14 26.0032V20.4857C14 16.3524 17.3524 13 21.4794 13H23.5175V14.0159H21.4794C17.9175 14.0159 15.0159 16.9175 15.0159 20.4794V25.9968C15.0159 29.5587 17.9175 32.4603 21.4794 32.4603H23.5175V33.4762V33.4825Z" fill="#FFC526"/>
<path d="M24.0256 33.4825H23.0098V32.9746C23.0098 32.9238 23.0098 31.7619 23.4733 30.2C23.7526 29.254 24.1399 28.3651 24.6225 27.5524C25.778 25.6159 27.4352 24.1683 29.5685 23.2349C28.8447 22.8984 27.8923 22.3841 26.9399 21.6222C25.1494 20.2 23.0098 17.6349 23.0098 13.5079V13H24.0256V13.5079C24.0256 16.4921 25.2193 18.9556 27.5685 20.8222C29.3399 22.2254 31.1114 22.746 31.1304 22.746L31.1431 23.7175C28.6352 24.5111 26.7368 25.9714 25.4987 28.0603C25.0606 28.8032 24.705 29.6159 24.451 30.4794C24.0383 31.8889 24.0256 32.9556 24.0256 32.9683V33.4762V33.4825Z" fill="#FFC526"/>
<defs>
<linearGradient id="paint0_linear_4920_92870" x1="46" y1="23" x2="193" y2="23" gradientUnits="userSpaceOnUse">
<stop stop-color="#FFD938"/>
<stop offset="0.445" stop-color="#FF7373"/>
<stop offset="1" stop-color="#A755FF"/>
</linearGradient>
</defs>
</svg>
