<svg width="25" height="25" viewBox="0 0 25 25" fill="none" xmlns="http://www.w3.org/2000/svg">
<path d="M20.7109 12.1396V22.1396H4.71094V12.1396" stroke="#505F62" stroke-width="2" stroke-linecap="round" stroke-linejoin="round"/>
<path d="M22.7109 7.13965H2.71094V12.1396H22.7109V7.13965Z" stroke="#505F62" stroke-width="2" stroke-linecap="round" stroke-linejoin="round"/>
<path d="M12.7109 22.1396V7.13965" stroke="#505F62" stroke-width="2" stroke-linecap="round" stroke-linejoin="round"/>
<path d="M12.7109 7.13965H8.21094C7.5479 7.13965 6.91201 6.87626 6.44317 6.40742C5.97433 5.93857 5.71094 5.30269 5.71094 4.63965C5.71094 3.97661 5.97433 3.34072 6.44317 2.87188C6.91201 2.40304 7.5479 2.13965 8.21094 2.13965C11.7109 2.13965 12.7109 7.13965 12.7109 7.13965Z" stroke="#505F62" stroke-width="2" stroke-linecap="round" stroke-linejoin="round"/>
<path d="M12.7109 7.13965H17.2109C17.874 7.13965 18.5099 6.87626 18.9787 6.40742C19.4475 5.93857 19.7109 5.30269 19.7109 4.63965C19.7109 3.97661 19.4475 3.34072 18.9787 2.87188C18.5099 2.40304 17.874 2.13965 17.2109 2.13965C13.7109 2.13965 12.7109 7.13965 12.7109 7.13965Z" stroke="#505F62" stroke-width="2" stroke-linecap="round" stroke-linejoin="round"/>
</svg>
