<svg width="20" height="21" viewBox="0 0 20 21" fill="none" xmlns="http://www.w3.org/2000/svg">
<g clip-path="url(#clip0_5471_107612)">
<path d="M1 10.9697C1 13.3567 1.94821 15.6459 3.63604 17.3337C5.32387 19.0215 7.61305 19.9697 10 19.9697C12.3869 19.9697 14.6761 19.0215 16.364 17.3337C18.0518 15.6459 19 13.3567 19 10.9697C19 8.58278 18.0518 6.29359 16.364 4.60577C14.6761 2.91794 12.3869 1.96973 10 1.96973C7.61305 1.96973 5.32387 2.91794 3.63604 4.60577C1.94821 6.29359 1 8.58278 1 10.9697Z" stroke="#FCFCD8" stroke-opacity="0.6" stroke-width="2" stroke-linecap="round" stroke-linejoin="round"/>
<path d="M1.69141 14.4322H4.11541C4.75794 14.4316 5.37398 14.176 5.82814 13.7215C6.2823 13.267 6.53741 12.6507 6.53741 12.0082V9.93217C6.53741 9.28929 6.79279 8.67273 7.24738 8.21814C7.70197 7.76356 8.31852 7.50817 8.96141 7.50817C9.27947 7.50817 9.59442 7.44553 9.88827 7.32381C10.1821 7.20209 10.4491 7.02369 10.674 6.79878C10.8989 6.57388 11.0773 6.30688 11.199 6.01303C11.3208 5.71918 11.3834 5.40423 11.3834 5.08617V2.07617M18.9994 10.8282C18.3084 10.4715 17.543 10.2831 16.7654 10.2782H13.7994C13.4754 10.2689 13.1527 10.3246 12.8506 10.4422C12.5485 10.5598 12.2731 10.7368 12.0406 10.9627C11.8081 11.1886 11.6232 11.4589 11.497 11.7575C11.3708 12.0561 11.3058 12.377 11.3058 12.7012C11.3058 13.0254 11.3708 13.3462 11.497 13.6449C11.6232 13.9435 11.8081 14.2137 12.0406 14.4396C12.2731 14.6656 12.5485 14.8425 12.8506 14.9601C13.1527 15.0777 13.4754 15.1335 13.7994 15.1242C14.2582 15.1242 14.6983 15.3064 15.0227 15.6309C15.3471 15.9553 15.5294 16.3953 15.5294 16.8542V18.0642" stroke="#FCFCD8" stroke-opacity="0.6" stroke-width="2" stroke-linecap="round" stroke-linejoin="round"/>
</g>
<defs>
<clipPath id="clip0_5471_107612">
<rect width="20" height="20" fill="white" transform="translate(0 0.969727)"/>
</clipPath>
</defs>
</svg>
