<svg width="73" height="25" viewBox="0 0 73 25" fill="none" xmlns="http://www.w3.org/2000/svg">
<path d="M12.1225 17.2544C10.9611 18.9724 9.05003 19.9907 6.67853 19.9907C2.78303 19.9927 0 17.2312 0 13.2736C0 9.31604 2.78303 6.45605 6.70296 6.45605C9.00117 6.45605 10.9142 7.45125 12.051 9.16918L9.63069 11.0359C9.0256 10.0909 7.98455 9.4687 6.72739 9.4687C4.66971 9.4687 3.219 11.061 3.219 13.2756C3.219 15.4901 4.64716 16.9839 6.70296 16.9839C7.98455 16.9839 9.0256 16.3868 9.63069 15.4167L12.1225 17.2583V17.2544Z" fill="#FCFCD8"/>
<path d="M18.1482 6.5791C22.0437 6.5791 24.7779 9.2671 24.7779 13.2479C24.7779 17.2287 22.0437 19.8916 18.1482 19.8916C14.2527 19.8916 11.543 17.2036 11.543 13.2479C11.543 9.29222 14.2771 6.5791 18.1482 6.5791ZM18.1482 16.906C20.2059 16.906 21.6322 15.389 21.6322 13.2479C21.6322 11.1068 20.204 9.5647 18.1482 9.5647C16.0924 9.5647 14.6887 11.1068 14.6887 13.2479C14.6887 15.389 16.1168 16.906 18.1482 16.906Z" fill="#FCFCD8"/>
<path d="M25.2891 19.4943V0.894712L28.4348 0V8.49687C29.4025 7.27751 30.8063 6.5799 32.5483 6.5799C35.7184 6.5799 37.6295 8.5703 37.6295 12.6516V18.4856L34.4838 19.4943V12.8757C34.4838 10.5858 33.4916 9.5655 31.7985 9.5655C29.8629 9.5655 28.4348 11.1327 28.4348 13.2738V18.4875L25.2891 19.4962V19.4943Z" fill="#FCFCD8"/>
<path d="M42.2029 19.2704L37.3828 7.7918L40.4834 6.95312L43.7983 15.4133L46.9308 8.00243L50.5012 6.95312L43.6385 23.2802L39.8802 24.4705L42.2029 19.2704Z" fill="#FCFCD8"/>
<path d="M55.6528 19.0054L52.3436 19.9426L47.377 7.8592L50.5076 6.95097L53.8676 15.8633L57.2068 7.40315L60.9257 6.38477L55.6509 19.0074L55.6528 19.0054Z" fill="#FCFCD8"/>
<path d="M69.1846 11.54L62.1133 13.5034L63.2784 15.9344L71.8567 13.6483" fill="#FCFCD8"/>
<path d="M66.3515 17.4312C64.5851 17.4312 63.2547 16.3606 62.8431 14.7432L62.8262 14.6408C62.6928 13.8659 62.7154 13.0697 62.892 12.3045C63.328 10.8609 64.5381 9.89087 66.1824 9.89087C67.8267 9.89087 68.9899 10.8861 69.3525 12.3045L71.1979 13.8156L72.4701 13.4659C72.4701 13.4021 72.4738 13.3383 72.4738 13.2745C72.4738 9.94111 70.1756 6.90527 66.1335 6.90527C62.0915 6.90527 59.5527 9.69183 59.5527 13.6494C59.5527 17.607 62.2625 20.4419 66.2068 20.4419C68.4806 20.4419 70.465 19.4969 71.6263 17.8795L69.3281 15.9625C68.6742 16.8592 67.6575 17.4312 66.3515 17.4312Z" fill="#FCFCD8"/>
<path d="M69.3301 15.9626L69.5518 15.5877L72.4758 14.9287C72.4758 14.9287 72.4532 16.7413 71.6283 17.8795L69.3301 15.9626Z" fill="#FCFCD8"/>
</svg>
