<svg width="44" height="44" viewBox="0 0 44 44" fill="none" xmlns="http://www.w3.org/2000/svg">
<path d="M8.90536 42.7551L0.189514 21.092C0.0704076 20.796 0.0997331 20.4609 0.268449 20.19L11.0909 2.81622C11.3339 2.4262 11.8114 2.25194 12.2484 2.39379L32.961 9.11612C33.2344 9.20483 33.4563 9.40685 33.5703 9.67066L42.7834 30.9945C43.0145 31.5294 42.7411 32.1479 42.1899 32.337L10.1576 43.3277C9.65434 43.5004 9.10396 43.2487 8.90536 42.7551Z" fill="#7D22FF"/>
<path d="M21.8122 25.9197L1.83643 21.566C1.05389 21.3954 0.398375 22.1681 0.694179 22.9124L8.57882 42.7512C8.77575 43.2467 9.32685 43.5005 9.83143 43.3281L42.468 32.1773C43.0229 31.9877 43.2964 31.3635 43.0595 30.8271L34.431 11.286C34.1144 10.569 33.1334 10.4784 32.6909 11.1252L22.8505 25.5073C22.6206 25.8433 22.21 26.0064 21.8122 25.9197Z" fill="#C39BFC"/>
<path d="M9.21875 43.3482L16.4207 24.623M43.2121 31.825L24.487 22.6064" stroke="#7D22FF"/>
<path d="M11.2344 13.8066C14.7553 13.8066 15.4489 10.9782 15.0754 8.77832C15.7156 12.5495 19.5567 11.2476 20.837 10.3497C17.9562 13.4923 20.9437 14.2256 22.7576 14.4352C19.4286 14.938 19.8768 17.7874 20.5169 19.1492C18.2123 15.1265 15.3955 17.5778 14.4353 19.1492C15.3955 14.7494 13.1549 14.4352 11.2344 13.8066Z" fill="white"/>
<path d="M16.4212 1C16.3252 2.92053 16.2484 6.99205 16.7093 7.91391M22.4712 10.5066C23.0474 9.64238 28.5209 4.45695 29.6732 4.45695M11.5242 11.0828C10.5639 10.6026 6.05068 6.76159 1.44141 6.76159M12.3884 17.1325C11.3321 16.8444 7.66392 18.1695 6.05068 18.8609M15.8454 20.3013C15.5573 20.5894 13.5407 25.4868 13.5407 26.9272M21.895 18.8609C22.6633 18.8609 28.6361 21.2808 30.2494 22.894M25.6401 13.3874C26.1202 13.1954 31.5745 13.7331 32.2659 13.9636" stroke="white"/>
</svg>
