<svg width="27" height="27" viewBox="0 0 27 27" fill="none" xmlns="http://www.w3.org/2000/svg">
<path d="M17.5 18.5L8.5 9.5L7.1548 10.8452C6.78531 11.2147 6.76259 11.8064 7.10265 12.2031L9.5 15L3.17308 18.9959C1.54683 20.0231 1.29366 22.2937 2.65374 23.6537L2.94397 23.944C4.2722 25.2722 6.4805 25.067 7.54121 23.5167L12 17L14.7929 19.7929C15.1834 20.1834 15.8166 20.1834 16.2071 19.7929L17.5 18.5Z" stroke="#E1FF26"/>
<path d="M18.5 17L10 8.5L16.5 1.5L18.5 3.5L18 4.5L19 4L22 7L20 10.5L23.5 8.5L25.5 10.5L18.5 17Z" stroke="#E1FF26"/>
</svg>
