<svg width="23" height="22" viewBox="0 0 23 22" fill="none" xmlns="http://www.w3.org/2000/svg">
<rect width="23" height="22" rx="11" fill="#E1FF26"/>
<path d="M9.584 10.812C9.584 11.132 9.592 11.492 9.608 11.892C9.632 12.284 9.696 12.656 9.8 13.008C9.912 13.352 10.088 13.644 10.328 13.884C10.568 14.124 10.904 14.244 11.336 14.244C11.768 14.244 12.104 14.124 12.344 13.884C12.584 13.644 12.756 13.352 12.86 13.008C12.972 12.656 13.036 12.284 13.052 11.892C13.076 11.492 13.088 11.132 13.088 10.812C13.088 10.604 13.084 10.376 13.076 10.128C13.076 9.872 13.056 9.62 13.016 9.372C12.984 9.116 12.932 8.868 12.86 8.628C12.796 8.388 12.696 8.18 12.56 8.004C12.432 7.82 12.268 7.672 12.068 7.56C11.868 7.448 11.624 7.392 11.336 7.392C11.048 7.392 10.804 7.448 10.604 7.56C10.404 7.672 10.236 7.82 10.1 8.004C9.972 8.18 9.872 8.388 9.8 8.628C9.736 8.868 9.684 9.116 9.644 9.372C9.612 9.62 9.592 9.872 9.584 10.128C9.584 10.376 9.584 10.604 9.584 10.812ZM8.504 10.824C8.504 10.512 8.512 10.188 8.528 9.852C8.544 9.516 8.584 9.188 8.648 8.868C8.712 8.548 8.804 8.244 8.924 7.956C9.044 7.668 9.208 7.416 9.416 7.2C9.624 6.984 9.884 6.812 10.196 6.684C10.516 6.556 10.896 6.492 11.336 6.492C11.776 6.492 12.152 6.556 12.464 6.684C12.784 6.812 13.048 6.984 13.256 7.2C13.464 7.416 13.628 7.668 13.748 7.956C13.868 8.244 13.96 8.548 14.024 8.868C14.088 9.188 14.128 9.516 14.144 9.852C14.16 10.188 14.168 10.512 14.168 10.824C14.168 11.136 14.16 11.46 14.144 11.796C14.128 12.132 14.088 12.46 14.024 12.78C13.96 13.1 13.868 13.404 13.748 13.692C13.628 13.972 13.464 14.22 13.256 14.436C13.048 14.652 12.788 14.824 12.476 14.952C12.164 15.072 11.784 15.132 11.336 15.132C10.896 15.132 10.516 15.072 10.196 14.952C9.884 14.824 9.624 14.652 9.416 14.436C9.208 14.22 9.044 13.972 8.924 13.692C8.804 13.404 8.712 13.1 8.648 12.78C8.584 12.46 8.544 12.132 8.528 11.796C8.512 11.46 8.504 11.136 8.504 10.824Z" fill="#014F59"/>
</svg>
