<svg width="44" height="41" viewBox="0 0 44 41" fill="none" xmlns="http://www.w3.org/2000/svg">
<path d="M28.7931 40.613H24.752V38.5987H28.7931C35.8557 38.5987 41.609 32.8454 41.609 25.7828V14.8427C41.609 7.78017 35.8557 2.02687 28.7931 2.02687H24.752V0H28.7931C36.9761 0 43.6233 6.64713 43.6233 14.8302V25.7702C43.6233 33.9533 36.9761 40.6004 28.7931 40.6004V40.613Z" fill="#FCFCD8"/>
<path d="M25.7718 40.6129H23.7575V39.6058C23.7575 35.9801 22.851 32.6943 21.0508 29.8617L22.2216 27.9355L22.7629 28.7916C24.7646 31.9641 25.7718 35.6024 25.7718 39.6184V40.6255V40.6129Z" fill="#FCFCD8"/>
<path d="M19.1483 27.3188L18.4308 26.6138C14.4903 22.6986 9.70639 21.2886 9.65604 21.276L9.63086 19.3498C14.6036 17.7762 18.3678 14.8806 20.8227 10.7388L21.3389 9.87012L22.56 11.7711C20.2688 15.6108 16.983 18.4812 12.753 20.3318C14.6666 21.213 17.3733 22.7489 19.8408 25.1913L20.294 25.6445C19.803 26.1229 19.4127 26.6894 19.1358 27.3188H19.1483Z" fill="#FCFCD8"/>
<path d="M24.2197 8.3341C23.6154 7.66686 23.1873 6.86115 22.9733 5.9799L22.9355 5.82883C23.7287 3.08437 23.7413 1.03232 23.7413 1.00714V0H25.7555V1.00714C25.7555 1.09527 25.7555 3.34875 24.8743 6.38276L24.2197 8.3341Z" fill="#FCFCD8"/>
<path d="M18.8713 40.613H14.8302C6.64713 40.613 0 33.9658 0 25.7828V14.8427C0 6.64713 6.64713 0 14.8302 0H18.8713V2.01428H14.8302C7.76758 2.01428 2.01428 7.76758 2.01428 14.8302V25.7702C2.01428 32.8328 7.76758 38.5861 14.8302 38.5861H18.8713V40.6004V40.613Z" fill="#FCFCD8"/>
<path d="M19.8795 40.613H17.8652V39.6058C17.8652 39.5051 17.8652 37.2013 18.7843 34.1043C19.3382 32.2285 20.1061 30.466 21.0629 28.8546C23.3542 25.0149 26.64 22.1445 30.8699 20.2939C29.4348 19.6267 27.5464 18.6069 25.658 17.0962C22.1078 14.2762 17.8652 9.19016 17.8652 1.00714V0H19.8795V1.00714C19.8795 6.9241 22.2463 11.8087 26.9043 15.51C30.4167 18.2922 33.9291 19.3245 33.9669 19.3245L33.9921 21.2507C29.0193 22.8243 25.2551 25.7199 22.8002 29.8617C21.9316 31.3347 21.2266 32.9461 20.723 34.6583C19.9047 37.4531 19.8795 39.5681 19.8795 39.5932V40.6004V40.613Z" fill="#FCFCD8"/>
</svg>
