<svg width="18" height="18" viewBox="0 0 18 18" fill="none" xmlns="http://www.w3.org/2000/svg">
<path d="M7.00285 15.4499L6.78126 16.1664L7.00285 15.4499C6.60217 15.326 6.21736 15.1657 5.85225 14.9728C5.21867 14.6382 4.37639 14.6838 3.80822 15.2519L4.23249 15.6762L3.80822 15.252C3.74632 15.3139 3.64595 15.3139 3.58404 15.252L2.74764 14.4155C2.68569 14.3536 2.68569 14.2532 2.74764 14.1912C3.31581 13.6231 3.36148 12.7808 3.02687 12.1472C2.83415 11.7822 2.67397 11.3976 2.55013 10.9972C2.33863 10.3133 1.71125 9.75 0.9079 9.75C0.820694 9.75 0.75 9.67931 0.75 9.5921V8.4079C0.75 8.3207 0.820695 8.25 0.907903 8.25C1.71125 8.25 2.33863 7.68675 2.55013 7.00283C2.67408 6.60204 2.83441 6.21712 3.02735 5.85191C3.36196 5.21853 3.31634 4.37649 2.74834 3.80849C2.68663 3.74678 2.68663 3.64674 2.74834 3.58503L3.58544 2.74793C3.6472 2.68617 3.74732 2.68617 3.80908 2.74793C4.37708 3.31594 5.21911 3.3616 5.85254 3.02704C6.21757 2.83424 6.60228 2.674 7.00286 2.55012C7.68676 2.33861 8.25 1.71124 8.25 0.9079C8.25 0.820694 8.32069 0.75 8.4079 0.75H9.5921C9.67931 0.75 9.75 0.820694 9.75 0.9079C9.75 1.71124 10.3132 2.33861 10.9971 2.55012C11.3977 2.674 11.7824 2.83424 12.1475 3.02704C12.7809 3.3616 13.6229 3.31594 14.1909 2.74793C14.2527 2.68617 14.3528 2.68617 14.4146 2.74792L15.2517 3.58503C15.3134 3.64674 15.3134 3.74678 15.2517 3.80849C14.6837 4.37649 14.638 5.21853 14.9726 5.85191C15.1656 6.21712 15.3259 6.60204 15.4499 7.00283L16.129 6.79281L15.4499 7.00283C15.6614 7.68675 16.2887 8.25 17.0921 8.25C17.1793 8.25 17.25 8.3207 17.25 8.4079V9.5921C17.25 9.67931 17.1793 9.75 17.0921 9.75C16.2887 9.75 15.6614 10.3133 15.4499 10.9972C15.326 11.3976 15.1659 11.7822 14.9731 12.1472C14.6385 12.7808 14.6842 13.6231 15.2524 14.1912C15.3143 14.2532 15.3143 14.3536 15.2524 14.4155L14.416 15.2519C14.354 15.3139 14.2537 15.3139 14.1918 15.252C13.6236 14.6838 12.7813 14.6382 12.1478 14.9728C11.7826 15.1657 11.3978 15.326 10.9972 15.4499C10.3132 15.6614 9.75 16.2888 9.75 17.0921C9.75 17.1793 9.67931 17.25 9.5921 17.25H8.4079C8.32069 17.25 8.25 17.1793 8.25 17.0921C8.25 16.2888 7.68676 15.6614 7.00285 15.4499ZM9 12.5C10.0742 12.5 11.0299 12.3341 11.682 11.682C12.3341 11.0299 12.5 10.0742 12.5 9C12.5 7.92579 12.3341 6.97013 11.682 6.31802C11.0299 5.66591 10.0742 5.5 9 5.5C7.92579 5.5 6.97013 5.66591 6.31802 6.31802C5.66591 6.97013 5.5 7.92579 5.5 9C5.5 10.0742 5.66591 11.0299 6.31802 11.682C6.97013 12.3341 7.92579 12.5 9 12.5Z" stroke="#FCFCD8" stroke-width="1.5"/>
</svg>
