<svg width="28" height="44" viewBox="0 0 28 44" fill="none" xmlns="http://www.w3.org/2000/svg">
<path d="M0.436985 28.6275C0.437643 23.8942 5.93466 16.7341 8.68308 13.7456H19.9803C23.4467 18.4073 29.4425 27.6564 27.1522 33.289C19.9803 50.9274 1.73484 41.3841 0.436985 33.289C0.376945 32.512 0.292888 30.492 0.436985 28.6275Z" fill="#353535"/>
<path d="M5.47647 1.47255C6.03742 5.45534 8.2345 10.0973 9.26292 11.9204H18.3785C21.7442 9.17132 21.0898 2.92177 20.3418 0.140625L13.3299 4.6984C11.3198 3.8101 6.93495 1.92132 5.47647 1.47255Z" fill="#353535"/>
<path d="M20.1133 22.9463L19.5096 25.0059H8.00391L8.6076 22.9463H20.1133ZM14.7156 36.8312L8.21697 28.8767L8.18146 27.3852H11.413C12.2534 27.3852 12.9696 27.2668 13.5614 27.0301C14.1533 26.7874 14.6061 26.4264 14.9197 25.947C15.2334 25.4617 15.3903 24.8521 15.3903 24.1182C15.3903 23.0351 15.0647 22.1858 14.4137 21.5702C13.7627 20.9488 12.7624 20.6381 11.413 20.6381H8.00391L8.6076 18.6494H11.413C12.8571 18.6494 14.0408 18.8891 14.9641 19.3685C15.8933 19.842 16.5799 20.493 17.0238 21.3216C17.4736 22.1443 17.6985 23.0765 17.6985 24.1182C17.6985 25.0592 17.4914 25.9263 17.0771 26.7194C16.6687 27.5065 16.0117 28.1398 15.1062 28.6192C14.2066 29.0986 13.0169 29.3383 11.5373 29.3383H11.484L17.4854 36.6892V36.8312H14.7156ZM20.1133 18.6494L19.5096 20.7091L10.4542 20.6381L11.0579 18.6494H20.1133Z" fill="#E1FF26"/>
</svg>
