<svg width="24" height="24" viewBox="0 0 24 24" fill="none" xmlns="http://www.w3.org/2000/svg">
<path fill-rule="evenodd" clip-rule="evenodd" d="M14.0264 8.75812C13.3939 6.74729 10.608 6.74729 9.97551 8.75812C9.88533 9.0448 9.63687 9.21631 9.38097 9.21631C7.27191 9.21631 6.50883 11.93 8.12116 13.1401C8.34334 13.3068 8.4476 13.6157 8.35628 13.906C8.0464 14.8912 8.44385 15.8128 9.1219 16.3217C9.80345 16.8332 10.8046 16.9498 11.6415 16.3217C11.8575 16.1595 12.1443 16.1595 12.3603 16.3217C13.1973 16.9498 14.1984 16.8332 14.88 16.3217C15.558 15.8128 15.9555 14.8912 15.6456 13.906C15.5543 13.6157 15.6585 13.3068 15.8807 13.1401C17.493 11.93 16.73 9.21631 14.6209 9.21631C14.365 9.21631 14.1165 9.0448 14.0264 8.75812ZM11.4064 9.20819C11.5986 8.59727 12.4033 8.59727 12.5955 9.20819C12.8741 10.094 13.6833 10.7163 14.6209 10.7163C14.911 10.7163 15.1274 10.8947 15.2154 11.1745C15.304 11.456 15.2317 11.7518 14.9803 11.9404C14.237 12.4983 13.9372 13.4739 14.2147 14.3561C14.3171 14.6818 14.1945 14.9606 13.9796 15.122C13.7681 15.2807 13.5033 15.304 13.2607 15.122C12.5112 14.5594 11.4906 14.5594 10.7411 15.122C10.4985 15.304 10.2337 15.2807 10.0223 15.122C9.80732 14.9606 9.68473 14.6818 9.78717 14.3561C10.0646 13.4739 9.76489 12.4983 9.02155 11.9404C8.77021 11.7518 8.69788 11.456 8.78643 11.1745C8.87444 10.8947 9.09091 10.7163 9.38097 10.7163C10.3185 10.7163 11.1278 10.094 11.4064 9.20819Z" fill="#FCFCD8"/>
<path fill-rule="evenodd" clip-rule="evenodd" d="M9.56381 1.25C8.02202 1.25 6.77215 2.49987 6.77215 4.04167C6.77215 4.75503 6.19385 5.33333 5.48048 5.33333H5.17162C3.59556 5.33333 2.19164 6.55273 2.27715 8.24648C2.37867 10.2575 2.82533 13.3918 4.45448 16.3608C4.91077 17.1923 5.52016 18.0092 6.17893 18.7703L6.22852 18.8276C7.17619 19.9226 7.96635 20.8356 8.81582 21.4579C9.72951 22.1273 10.7047 22.4607 12.001 22.4607C13.2973 22.4607 14.2725 22.1273 15.1861 21.4579C16.0356 20.8356 16.8258 19.9226 17.7734 18.8276L17.823 18.7703C18.4818 18.0092 19.0912 17.1923 19.5475 16.3608C21.2308 13.2931 21.6506 9.82667 21.7333 7.66561C21.7979 5.97999 20.404 4.75 18.8192 4.75H18.2298C17.6775 4.75 17.2298 4.30228 17.2298 3.75C17.2298 2.36929 16.1105 1.25 14.7298 1.25H9.56381ZM8.27215 4.04167C8.27215 3.3283 8.85045 2.75 9.56381 2.75H14.7298C15.2821 2.75 15.7298 3.19772 15.7298 3.75C15.7298 5.13071 16.8491 6.25 18.2298 6.25H18.8192C19.6568 6.25 20.2626 6.8731 20.2344 7.60819C20.1553 9.67293 19.7527 12.8686 18.2325 15.6392C17.8435 16.348 17.305 17.0768 16.6889 17.7886C15.6788 18.9557 14.9967 19.7373 14.2997 20.2479C13.6521 20.7223 12.9898 20.9607 12.001 20.9607C11.0122 20.9607 10.3498 20.7223 9.70229 20.2479C9.0053 19.7373 8.32322 18.9557 7.3131 17.7886C6.69702 17.0768 6.15845 16.348 5.76951 15.6392C4.29102 12.9448 3.87069 10.0616 3.77524 8.17085C3.73893 7.45149 4.33148 6.83333 5.17162 6.83333H5.48048C7.02228 6.83333 8.27215 5.58346 8.27215 4.04167Z" fill="#FCFCD8"/>
</svg>
