<svg width="24" height="22" viewBox="0 0 24 22" fill="none" xmlns="http://www.w3.org/2000/svg">
<path fill-rule="evenodd" clip-rule="evenodd" d="M7.75 1.25C5.12665 1.25 3 3.37665 3 6C3 8.62335 5.12665 10.75 7.75 10.75C10.3734 10.75 12.5 8.62335 12.5 6C12.5 3.37665 10.3734 1.25 7.75 1.25ZM4.5 6C4.5 4.20507 5.95507 2.75 7.75 2.75C9.54493 2.75 11 4.20507 11 6C11 7.79493 9.54493 9.25 7.75 9.25C5.95507 9.25 4.5 7.79493 4.5 6Z" fill="#E1FF26"/>
<path fill-rule="evenodd" clip-rule="evenodd" d="M4.75 12.25C2.12665 12.25 0 14.3766 0 17C0 19.6234 2.12665 21.75 4.75 21.75H10.75C13.3734 21.75 15.5 19.6234 15.5 17C15.5 14.3766 13.3734 12.25 10.75 12.25H4.75ZM1.5 17C1.5 15.2051 2.95507 13.75 4.75 13.75H10.75C12.5449 13.75 14 15.2051 14 17C14 18.7949 12.5449 20.25 10.75 20.25H4.75C2.95507 20.25 1.5 18.7949 1.5 17Z" fill="#E1FF26"/>
<path d="M19.75 1.25V7.75" stroke="#E1FF26" stroke-linecap="round" stroke-linejoin="round"/>
<path d="M16.5 4.5L23 4.5" stroke="#E1FF26" stroke-linecap="round" stroke-linejoin="round"/>
</svg>
