<svg width="25" height="25" viewBox="0 0 25 25" fill="none" xmlns="http://www.w3.org/2000/svg">
<path d="M6.71094 2.14062L3.71094 6.14062V20.1406C3.71094 20.6711 3.92165 21.1798 4.29672 21.5548C4.6718 21.9299 5.1805 22.1406 5.71094 22.1406H19.7109C20.2414 22.1406 20.7501 21.9299 21.1252 21.5548C21.5002 21.1798 21.7109 20.6711 21.7109 20.1406V6.14062L18.7109 2.14062H6.71094Z" stroke="#505F62" stroke-width="2" stroke-linecap="round" stroke-linejoin="round"/>
<path d="M3.71094 6.14062H21.7109" stroke="#505F62" stroke-width="2" stroke-linecap="round" stroke-linejoin="round"/>
<path d="M16.7109 10.1406C16.7109 11.2015 16.2895 12.2189 15.5394 12.9691C14.7892 13.7192 13.7718 14.1406 12.7109 14.1406C11.6501 14.1406 10.6327 13.7192 9.88251 12.9691C9.13236 12.2189 8.71094 11.2015 8.71094 10.1406" stroke="#505F62" stroke-width="2" stroke-linecap="round" stroke-linejoin="round"/>
</svg>
