<svg width="27" height="27" viewBox="0 0 27 27" fill="none" xmlns="http://www.w3.org/2000/svg">
<path d="M17.5 18.6572L8.5 9.65723L7.1548 11.0024C6.78531 11.3719 6.76259 11.9636 7.10265 12.3603L9.5 15.1572L3.17308 19.1532C1.54683 20.1803 1.29366 22.4509 2.65374 23.811L2.94397 24.1012C4.2722 25.4294 6.4805 25.2242 7.54121 23.6739L12 17.1572L14.7929 19.9501C15.1834 20.3406 15.8166 20.3406 16.2071 19.9501L17.5 18.6572Z" stroke="#FCFCD8"/>
<path d="M18.5 17.1572L10 8.65723L16.5 1.65723L18.5 3.65723L18 4.65723L19 4.15723L22 7.15723L20 10.6572L23.5 8.65723L25.5 10.6572L18.5 17.1572Z" stroke="#FCFCD8"/>
</svg>
