<svg width="30" height="30" viewBox="0 0 30 30" fill="none" xmlns="http://www.w3.org/2000/svg">
<g clip-path="url(#clip0_3718_37019)">
<path d="M14.7116 21.2718C18.0483 21.2718 20.7533 18.5669 20.7533 15.2301C20.7533 11.8934 18.0483 9.18848 14.7116 9.18848C11.3749 9.18848 8.66992 11.8934 8.66992 15.2301C8.66992 18.5669 11.3749 21.2718 14.7116 21.2718Z" stroke="#505F62" stroke-width="2" stroke-linecap="round" stroke-linejoin="round"/>
<path d="M14.7109 1.93848V4.35514" stroke="#505F62" stroke-width="2" stroke-linecap="round" stroke-linejoin="round"/>
<path d="M14.7109 26.1055V28.5221" stroke="#505F62" stroke-width="2" stroke-linecap="round" stroke-linejoin="round"/>
<path d="M5.31055 5.83008L7.02638 7.54591" stroke="#505F62" stroke-width="2" stroke-linecap="round" stroke-linejoin="round"/>
<path d="M22.3965 22.915L24.1123 24.6309" stroke="#505F62" stroke-width="2" stroke-linecap="round" stroke-linejoin="round"/>
<path d="M1.41992 15.2305H3.83659" stroke="#505F62" stroke-width="2" stroke-linecap="round" stroke-linejoin="round"/>
<path d="M25.5859 15.2305H28.0026" stroke="#505F62" stroke-width="2" stroke-linecap="round" stroke-linejoin="round"/>
<path d="M5.31055 24.6309L7.02638 22.915" stroke="#505F62" stroke-width="2" stroke-linecap="round" stroke-linejoin="round"/>
<path d="M22.3965 7.54591L24.1123 5.83008" stroke="#505F62" stroke-width="2" stroke-linecap="round" stroke-linejoin="round"/>
</g>
<defs>
<clipPath id="clip0_3718_37019">
<rect width="29" height="29" fill="white" transform="translate(0.210938 0.730469)"/>
</clipPath>
</defs>
</svg>
