<svg width="27" height="27" viewBox="0 0 27 27" fill="none" xmlns="http://www.w3.org/2000/svg">
<path d="M8.61174 24.0636L8.58334 24.0167C8.11867 23.2485 7.28619 22.7791 6.38838 22.7791H6.2674C4.73214 22.7791 3.48757 21.5345 3.48757 19.9993V19.6144C3.48757 18.7336 3.02331 17.918 2.26595 17.4683L1.89438 17.2477C0.865204 16.6366 0.559941 15.2868 1.226 14.2923C1.6768 13.6193 1.69729 12.7461 1.27857 12.0526L1.18748 11.9017C0.526265 10.8066 0.856296 9.38422 1.93217 8.69216L2.23347 8.49835C3.01512 7.99555 3.48757 7.12989 3.48757 6.20049V6.14776C3.48757 4.60413 4.73893 3.35277 6.28256 3.35277H6.4173C7.29886 3.35277 8.11801 2.89785 8.58398 2.1495L8.7229 1.92639C9.3869 0.860003 10.8042 0.539375 11.8758 1.19486C12.5986 1.63694 13.5199 1.63866 14.238 1.18893C15.2855 0.532814 16.6667 0.852083 17.3201 1.90135L17.4797 2.15768C17.9425 2.90094 18.756 3.35277 19.6316 3.35277H19.9162C21.4367 3.35277 22.6692 4.58533 22.6692 6.10577V6.27284C22.6692 7.15106 23.1368 7.96284 23.8965 8.40343L23.9487 8.43365C25.0798 9.08964 25.4704 10.544 24.8372 11.6881C24.4131 12.4544 24.4438 13.4011 24.9244 14.1333C25.6438 15.2292 25.3317 16.7015 24.2294 17.4112L23.919 17.611C23.14 18.1125 22.6692 18.9825 22.6692 19.909C22.6692 21.374 21.5247 22.596 20.0619 22.6772L19.479 22.7095C18.6935 22.753 17.9801 23.1815 17.5725 23.8544L17.4739 24.017C16.8543 25.04 15.5287 25.3767 14.496 24.7734C13.7973 24.3653 12.9306 24.3756 12.2418 24.8003L12.0779 24.9014C10.8905 25.6336 9.33377 25.2573 8.61174 24.0636Z" stroke="#E1FF26"/>
<path d="M7.76953 13.1152L10.1484 15.4941C10.5389 15.8846 11.1721 15.8846 11.5626 15.4941L17.7988 9.25781" stroke="#E1FF26"/>
</svg>
