<svg width="43" height="43" viewBox="0 0 43 43" fill="none" xmlns="http://www.w3.org/2000/svg">
<path d="M13.9868 39.2097L13.9416 39.1349C13.2016 37.9116 11.876 37.1642 10.4463 37.1642H10.2537C7.80892 37.1642 5.82706 35.1823 5.82706 32.7376V32.1248C5.82706 30.7221 5.08777 29.4234 3.88174 28.7073L3.29006 28.3559C1.65119 27.3828 1.16509 25.2334 2.22573 23.6498C2.94358 22.578 2.97621 21.1876 2.30944 20.0833L2.16439 19.843C1.11146 18.0992 1.63701 15.8341 3.35024 14.7321L3.83003 14.4234C5.07473 13.6228 5.82706 12.2443 5.82706 10.7643V10.6803C5.82706 8.22226 7.81973 6.22959 10.2778 6.22959H10.4924C11.8962 6.22959 13.2006 5.50517 13.9426 4.3135L14.1638 3.95822C15.2212 2.26009 17.4781 1.74953 19.1846 2.79332C20.3355 3.4973 21.8027 3.50003 22.946 2.78389C24.6141 1.73908 26.8136 2.24748 27.854 3.91835L28.1081 4.32652C28.8451 5.5101 30.1407 6.22959 31.5349 6.22959H31.9881C34.4093 6.22959 36.372 8.19233 36.372 10.6135V10.8795C36.372 12.278 37.1167 13.5707 38.3264 14.2723L38.4094 14.3204C40.2106 15.365 40.8327 17.681 39.8244 19.5027C39.149 20.723 39.1978 22.2306 39.9632 23.3966C41.1088 25.1417 40.6117 27.4862 38.8564 28.6162L38.3622 28.9344C37.1217 29.733 36.372 31.1184 36.372 32.5938C36.372 34.9266 34.5494 36.8727 32.2202 37.0018L31.2919 37.0533C30.041 37.1227 28.905 37.8049 28.2559 38.8764L28.099 39.1354C27.1124 40.7644 25.0014 41.3006 23.3569 40.34C22.2444 39.6901 20.8641 39.7065 19.7674 40.3828L19.5064 40.5437C17.6155 41.7096 15.1366 41.1105 13.9868 39.2097Z" fill="#E1FF26"/>
<path d="M12.5547 21.7754L16.7616 25.9823C17.1522 26.3729 17.7853 26.3729 18.1759 25.9823L28.5254 15.6328" stroke="black" stroke-width="2"/>
</svg>
