<svg width="21" height="17" viewBox="0 0 21 17" fill="none" xmlns="http://www.w3.org/2000/svg">
<path d="M14.9562 6.13253V3.71977C14.9562 3.19994 14.7497 2.70141 14.3821 2.33384C14.0145 1.96626 13.516 1.75977 12.9962 1.75977H3.79984C3.28002 1.75977 2.78149 1.96626 2.41391 2.33384C2.04634 2.70141 1.83984 3.19994 1.83984 3.71977V13.5198C1.83984 14.0396 2.04634 14.5381 2.41391 14.9057C2.78149 15.2733 3.28002 15.4798 3.79984 15.4798H12.9962C13.516 15.4798 14.0145 15.2733 14.3821 14.9057C14.7497 14.5381 14.9562 14.0396 14.9562 13.5198V11.107L18.0392 12.7514C18.1885 12.8309 18.3558 12.8704 18.5249 12.8661C18.694 12.8618 18.859 12.8138 19.0041 12.7268C19.1491 12.6398 19.2691 12.5167 19.3525 12.3696C19.4359 12.2224 19.4797 12.0562 19.4798 11.8871V5.35245C19.4797 5.18332 19.4359 5.01711 19.3525 4.86997C19.2691 4.72283 19.1491 4.59977 19.0041 4.51276C18.859 4.42574 18.694 4.37774 18.5249 4.37342C18.3558 4.3691 18.1885 4.4086 18.0392 4.48809L14.9562 6.13253Z" stroke="#FCFCD8" stroke-opacity="0.6" stroke-width="1.995" stroke-linecap="round" stroke-linejoin="round"/>
</svg>
