<svg width="15" height="16" viewBox="0 0 15 16" fill="none" xmlns="http://www.w3.org/2000/svg">
<g clip-path="url(#clip0_7248_203895)">
<path d="M0.75 7.86328C0.75 9.65349 1.46116 11.3704 2.72703 12.6363C3.9929 13.9021 5.70979 14.6133 7.5 14.6133C9.29021 14.6133 11.0071 13.9021 12.273 12.6363C13.5388 11.3704 14.25 9.65349 14.25 7.86328C14.25 6.07307 13.5388 4.35618 12.273 3.09031C11.0071 1.82444 9.29021 1.11328 7.5 1.11328C5.70979 1.11328 3.9929 1.82444 2.72703 3.09031C1.46116 4.35618 0.75 6.07307 0.75 7.86328Z" stroke="#FCFCD8" stroke-linecap="round" stroke-linejoin="round"/>
<path d="M1.26953 10.4594H3.08753C3.56944 10.459 4.03146 10.2673 4.37208 9.92637C4.7127 9.58547 4.90403 9.12329 4.90403 8.64138V7.08438C4.90403 6.60222 5.09557 6.1398 5.43651 5.79886C5.77745 5.45792 6.23987 5.26638 6.72203 5.26638C6.96058 5.26638 7.19679 5.2194 7.41718 5.12811C7.63756 5.03682 7.83781 4.90302 8.00649 4.73434C8.17517 4.56566 8.30897 4.36542 8.40026 4.14503C8.49155 3.92464 8.53853 3.68843 8.53853 3.44988V1.19238M14.2505 7.75638C13.7323 7.48888 13.1582 7.34754 12.575 7.34388H10.3505C10.1075 7.3369 9.86552 7.37874 9.63894 7.46692C9.41236 7.55511 9.20577 7.68784 9.03139 7.85728C8.85701 8.02672 8.7184 8.22941 8.62374 8.45337C8.52909 8.67733 8.48032 8.91799 8.48032 9.16113C8.48032 9.40427 8.52909 9.64494 8.62374 9.86889C8.7184 10.0929 8.85701 10.2955 9.03139 10.465C9.20577 10.6344 9.41236 10.7672 9.63894 10.8553C9.86552 10.9435 10.1075 10.9854 10.3505 10.9784C10.6946 10.9784 11.0247 11.1151 11.268 11.3584C11.5113 11.6017 11.648 11.9318 11.648 12.2759V13.1834" stroke="#FCFCD8" stroke-linecap="round" stroke-linejoin="round"/>
</g>
<defs>
<clipPath id="clip0_7248_203895">
<rect width="15" height="15" fill="white" transform="translate(0 0.363281)"/>
</clipPath>
</defs>
</svg>
