<svg width="24" height="19" viewBox="0 0 24 19" fill="none" xmlns="http://www.w3.org/2000/svg">
<path d="M9.73587 1.37598C11.3512 7.25272 12.6596 8.51687 18.7471 10.0765C12.6605 11.6361 11.3512 12.8995 9.73587 18.777C8.12054 12.8995 6.81123 11.6353 0.724609 10.0765C6.81123 8.51687 8.12054 7.25272 9.73587 1.37598Z" fill="url(#paint0_linear_3724_38267)"/>
<path d="M18.7449 0.514648C19.5146 3.31481 20.138 3.91716 23.0386 4.6603C20.1384 5.40343 19.5146 6.00538 18.7449 8.80594C17.9752 6.00538 17.3513 5.40303 14.4512 4.6603C17.3513 3.91716 17.9752 3.31481 18.7449 0.514648Z" fill="url(#paint1_linear_3724_38267)"/>
<defs>
<linearGradient id="paint0_linear_3724_38267" x1="19.0695" y1="0.768076" x2="2.27902" y2="12.8494" gradientUnits="userSpaceOnUse">
<stop stop-color="#FF8E8E"/>
<stop offset="1" stop-color="#7D22FF"/>
</linearGradient>
<linearGradient id="paint1_linear_3724_38267" x1="23.1922" y1="0.224994" x2="15.1918" y2="5.98153" gradientUnits="userSpaceOnUse">
<stop stop-color="#FF8E8E"/>
<stop offset="1" stop-color="#7D22FF"/>
</linearGradient>
</defs>
</svg>
